RiseStarHandSemiBold.ufo
<glyph name="exclam" format="1">
  <advance width="247"/>
  <unicode hex="0021"/>
  <outline>
    <contour>
      <point x="87" y="81" type="qcurve"/>
      <point x="73" y="101"/>
      <point x="88" y="120" type="qcurve"/>
      <point x="94" y="128"/>
      <point x="103" y="132" type="qcurve"/>
      <point x="105" y="136" type="line"/>
      <point x="111" y="149"/>
      <point x="137" y="159"/>
      <point x="161" y="148"/>
      <point x="171" y="122"/>
      <point x="166" y="110" type="qcurve"/>
      <point x="163" y="103" type="line"/>
      <point x="171" y="96"/>
      <point x="177" y="89" type="qcurve"/>
      <point x="196" y="65"/>
      <point x="182" y="34" type="qcurve"/>
      <point x="170" y="10"/>
      <point x="147" y="1" type="qcurve"/>
      <point x="127" y="-7"/>
      <point x="93" y="16"/>
      <point x="88" y="32" type="qcurve"/>
      <point x="82" y="53"/>
    </contour>
    <contour>
      <point x="122" y="398" type="qcurve"/>
      <point x="124" y="408"/>
      <point x="125" y="417" type="qcurve"/>
      <point x="133" y="467"/>
      <point x="132" y="504" type="qcurve"/>
      <point x="131" y="526"/>
      <point x="124" y="546" type="qcurve"/>
      <point x="116" y="513"/>
      <point x="116" y="468" type="qcurve"/>
      <point x="116" y="435"/>
    </contour>
    <contour>
      <point x="91" y="254" type="qcurve"/>
      <point x="83" y="277"/>
      <point x="75" y="306" type="qcurve"/>
      <point x="72" y="317"/>
      <point x="69" y="329" type="qcurve"/>
      <point x="50" y="403"/>
      <point x="50" y="468" type="qcurve"/>
      <point x="50" y="534"/>
      <point x="65" y="581" type="qcurve"/>
      <point x="66" y="585"/>
      <point x="72" y="606"/>
      <point x="76" y="617"/>
      <point x="84" y="632"/>
      <point x="97" y="643"/>
      <point x="106" y="646" type="qcurve"/>
      <point x="117" y="652"/>
      <point x="137" y="647"/>
      <point x="149" y="641"/>
      <point x="161" y="624"/>
      <point x="166" y="614"/>
      <point x="173" y="599"/>
      <point x="173" y="597" type="qcurve"/>
      <point x="195" y="554"/>
      <point x="198" y="507" type="qcurve"/>
      <point x="200" y="464"/>
      <point x="190" y="407" type="qcurve"/>
      <point x="181" y="352"/>
      <point x="171" y="306" type="qcurve"/>
      <point x="164" y="273"/>
      <point x="160" y="257" type="qcurve"/>
      <point x="163" y="249"/>
      <point x="166" y="243" type="qcurve"/>
      <point x="183" y="206" type="line"/>
      <point x="189" y="194"/>
      <point x="180" y="168"/>
      <point x="155" y="156"/>
      <point x="129" y="166"/>
      <point x="123" y="178" type="qcurve"/>
      <point x="107" y="214" type="line"/>
      <point x="97" y="220"/>
      <point x="87" y="241"/>
      <point x="90" y="252" type="qcurve"/>
      <point x="90" y="252"/>
    </contour>
  </outline>
</glyph>
<glyph name="quotedbl" format="1">
  <advance width="283"/>
  <unicode hex="0022"/>
  <outline>
    <contour>
      <point x="150" y="604" type="qcurve"/>
      <point x="157" y="615"/>
      <point x="185" y="620"/>
      <point x="196" y="612" type="qcurve"/>
      <point x="208" y="603" type="line"/>
      <point x="221" y="594"/>
      <point x="233" y="566"/>
      <point x="234" y="544"/>
      <point x="233" y="527" type="qcurve"/>
      <point x="231" y="489" type="line"/>
      <point x="231" y="475"/>
      <point x="210" y="457"/>
      <point x="184" y="458"/>
      <point x="165" y="478"/>
      <point x="165" y="492" type="qcurve"/>
      <point x="167" y="530" type="line"/>
      <point x="168" y="544"/>
      <point x="166" y="552" type="qcurve"/>
      <point x="157" y="558" type="line"/>
      <point x="149" y="564"/>
      <point x="146" y="574" type="qcurve"/>
      <point x="144" y="554" type="line"/>
      <point x="140" y="512"/>
      <point x="123" y="486" type="qcurve"/>
      <point x="110" y="467" type="line"/>
      <point x="103" y="456"/>
      <point x="76" y="450"/>
      <point x="53" y="465"/>
      <point x="48" y="492"/>
      <point x="55" y="504" type="qcurve"/>
      <point x="68" y="523" type="line"/>
      <point x="76" y="535"/>
      <point x="78" y="560" type="qcurve"/>
      <point x="81" y="593" type="line"/>
      <point x="82" y="606"/>
      <point x="104" y="624"/>
      <point x="117" y="623" type="qcurve"/>
      <point x="128" y="622"/>
      <point x="144" y="608"/>
      <point x="146" y="598" type="qcurve"/>
      <point x="147" y="601"/>
    </contour>
  </outline>
</glyph>
<glyph name="numbersign" format="1">
  <advance width="773"/>
  <unicode hex="0023"/>
  <outline>
    <contour>
      <point x="76" y="198" type="qcurve"/>
      <point x="106" y="204" type="line"/>
      <point x="129" y="209"/>
      <point x="219" y="232" type="qcurve"/>
      <point x="230" y="284"/>
      <point x="239" y="329" type="qcurve"/>
      <point x="227" y="329"/>
      <point x="215" y="328" type="qcurve"/>
      <point x="127" y="324"/>
      <point x="109" y="323" type="qcurve"/>
      <point x="92" y="322" type="line"/>
      <point x="78" y="322"/>
      <point x="58" y="341"/>
      <point x="57" y="368"/>
      <point x="76" y="388"/>
      <point x="89" y="388" type="qcurve"/>
      <point x="107" y="389" type="line"/>
      <point x="124" y="390"/>
      <point x="211" y="394" type="qcurve"/>
      <point x="232" y="395"/>
      <point x="254" y="396" type="qcurve"/>
      <point x="258" y="416"/>
      <point x="263" y="436" type="qcurve"/>
      <point x="283" y="528"/>
      <point x="295" y="578" type="qcurve"/>
      <point x="306" y="629" type="line"/>
      <point x="309" y="642"/>
      <point x="333" y="656"/>
      <point x="359" y="650"/>
      <point x="374" y="627"/>
      <point x="371" y="614" type="qcurve"/>
      <point x="359" y="563" type="line"/>
      <point x="347" y="513"/>
      <point x="327" y="422" type="qcurve"/>
      <point x="325" y="411"/>
      <point x="322" y="400" type="qcurve"/>
      <point x="349" y="402"/>
      <point x="378" y="404" type="qcurve"/>
      <point x="392" y="468"/>
      <point x="402" y="499" type="qcurve"/>
      <point x="419" y="553"/>
      <point x="424" y="564" type="qcurve"/>
      <point x="428" y="572" type="line"/>
      <point x="434" y="584"/>
      <point x="460" y="593"/>
      <point x="484" y="581"/>
      <point x="493" y="555"/>
      <point x="487" y="543" type="qcurve"/>
      <point x="483" y="535" type="line"/>
      <point x="479" y="526"/>
      <point x="464" y="479" type="qcurve"/>
      <point x="457" y="456"/>
      <point x="446" y="408" type="qcurve"/>
      <point x="569" y="417"/>
      <point x="616" y="420" type="qcurve"/>
      <point x="667" y="423" type="line"/>
      <point x="680" y="424"/>
      <point x="701" y="406"/>
      <point x="703" y="379"/>
      <point x="685" y="359"/>
      <point x="671" y="358" type="qcurve"/>
      <point x="621" y="354" type="line"/>
      <point x="570" y="351"/>
      <point x="437" y="341" type="qcurve"/>
      <point x="436" y="341"/>
      <point x="433" y="341"/>
      <point x="432" y="341" type="qcurve"/>
      <point x="426" y="313"/>
      <point x="420" y="281" type="qcurve"/>
      <point x="471" y="292"/>
      <point x="524" y="302" type="qcurve"/>
      <point x="668" y="328"/>
      <point x="678" y="329" type="qcurve"/>
      <point x="686" y="330" type="line"/>
      <point x="699" y="332"/>
      <point x="721" y="315"/>
      <point x="725" y="288"/>
      <point x="708" y="266"/>
      <point x="694" y="265" type="qcurve"/>
      <point x="686" y="264" type="line"/>
      <point x="675" y="262"/>
      <point x="536" y="237" type="qcurve"/>
      <point x="469" y="225"/>
      <point x="406" y="211" type="qcurve"/>
      <point x="386" y="106"/>
      <point x="376" y="59" type="qcurve"/>
      <point x="364" y="0" type="line"/>
      <point x="361" y="-13"/>
      <point x="338" y="-28"/>
      <point x="312" y="-22"/>
      <point x="297" y="1"/>
      <point x="299" y="14" type="qcurve"/>
      <point x="312" y="73" type="line"/>
      <point x="320" y="112"/>
      <point x="336" y="195" type="qcurve"/>
      <point x="305" y="187"/>
      <point x="275" y="179" type="qcurve"/>
      <point x="258" y="97"/>
      <point x="254" y="67" type="qcurve"/>
      <point x="250" y="28" type="line"/>
      <point x="248" y="14"/>
      <point x="227" y="-3"/>
      <point x="200" y="0"/>
      <point x="183" y="22"/>
      <point x="184" y="35" type="qcurve"/>
      <point x="189" y="74" type="line"/>
      <point x="192" y="102"/>
      <point x="204" y="160" type="qcurve"/>
      <point x="140" y="144"/>
      <point x="119" y="139" type="qcurve"/>
      <point x="90" y="133" type="line"/>
      <point x="76" y="131"/>
      <point x="53" y="146"/>
      <point x="48" y="172"/>
      <point x="63" y="195"/>
    </contour>
    <contour>
      <point x="364" y="337" type="qcurve"/>
      <point x="334" y="335"/>
      <point x="308" y="333" type="qcurve"/>
      <point x="299" y="294"/>
      <point x="290" y="251" type="qcurve"/>
      <point x="319" y="259"/>
      <point x="350" y="266" type="qcurve"/>
      <point x="352" y="276"/>
      <point x="354" y="288" type="qcurve"/>
      <point x="359" y="314"/>
    </contour>
  </outline>
</glyph>
<glyph name="ampersand" format="1">
  <advance width="726"/>
  <unicode hex="0026"/>
  <outline>
    <contour>
      <point x="157" y="397" type="qcurve"/>
      <point x="168" y="408"/>
      <point x="181" y="419" type="qcurve"/>
      <point x="226" y="457"/>
      <point x="253" y="489" type="qcurve"/>
      <point x="276" y="515"/>
      <point x="284" y="554"/>
      <point x="275" y="579" type="qcurve"/>
      <point x="268" y="599"/>
      <point x="250" y="607" type="qcurve"/>
      <point x="228" y="617"/>
      <point x="202" y="613" type="qcurve"/>
      <point x="177" y="609"/>
      <point x="152" y="586" type="qcurve"/>
      <point x="127" y="561"/>
      <point x="119" y="528" type="qcurve"/>
      <point x="111" y="496"/>
      <point x="125" y="457" type="qcurve"/>
      <point x="137" y="425"/>
    </contour>
    <contour>
      <point x="305" y="129" type="qcurve"/>
      <point x="259" y="181"/>
      <point x="209" y="237" type="qcurve"/>
      <point x="180" y="270"/>
      <point x="156" y="296" type="qcurve"/>
      <point x="153" y="292"/>
      <point x="150" y="288" type="qcurve"/>
      <point x="125" y="250"/>
      <point x="124" y="213" type="qcurve"/>
      <point x="125" y="178"/>
      <point x="149" y="152" type="qcurve"/>
      <point x="174" y="125"/>
      <point x="225" y="120" type="qcurve"/>
      <point x="267" y="116"/>
    </contour>
    <contour>
      <point x="506" y="321" type="qcurve"/>
      <point x="506" y="306" type="line"/>
      <point x="506" y="288"/>
      <point x="499" y="252" type="qcurve"/>
      <point x="491" y="212"/>
      <point x="455" y="162" type="qcurve"/>
      <point x="438" y="137"/>
      <point x="412" y="115" type="qcurve"/>
      <point x="430" y="103"/>
      <point x="446" y="96" type="qcurve"/>
      <point x="470" y="86"/>
      <point x="499" y="118" type="qcurve"/>
      <point x="539" y="161"/>
      <point x="569" y="253" type="qcurve"/>
      <point x="601" y="350"/>
      <point x="606" y="371" type="qcurve"/>
      <point x="611" y="392" type="line"/>
      <point x="614" y="405"/>
      <point x="638" y="419"/>
      <point x="664" y="413"/>
      <point x="678" y="389"/>
      <point x="675" y="376" type="qcurve"/>
      <point x="670" y="355" type="line"/>
      <point x="665" y="332"/>
      <point x="632" y="232" type="qcurve"/>
      <point x="597" y="126"/>
      <point x="548" y="73" type="qcurve"/>
      <point x="520" y="43"/>
      <point x="457" y="22"/>
      <point x="421" y="35" type="qcurve"/>
      <point x="388" y="48"/>
      <point x="354" y="78" type="qcurve"/>
      <point x="291" y="48"/>
      <point x="219" y="55" type="qcurve"/>
      <point x="142" y="62"/>
      <point x="100" y="107" type="qcurve"/>
      <point x="58" y="152"/>
      <point x="59" y="213" type="qcurve"/>
      <point x="59" y="270"/>
      <point x="96" y="325" type="qcurve"/>
      <point x="103" y="336"/>
      <point x="112" y="347" type="qcurve"/>
      <point x="80" y="387"/>
      <point x="63" y="435" type="qcurve"/>
      <point x="42" y="492"/>
      <point x="55" y="544" type="qcurve"/>
      <point x="67" y="595"/>
      <point x="106" y="633" type="qcurve"/>
      <point x="146" y="672"/>
      <point x="192" y="678" type="qcurve"/>
      <point x="238" y="685"/>
      <point x="277" y="667" type="qcurve"/>
      <point x="321" y="647"/>
      <point x="337" y="600" type="qcurve"/>
      <point x="352" y="558"/>
      <point x="345" y="522" type="qcurve"/>
      <point x="338" y="486"/>
      <point x="303" y="446" type="qcurve"/>
      <point x="272" y="410"/>
      <point x="223" y="368" type="qcurve"/>
      <point x="211" y="358"/>
      <point x="199" y="347" type="qcurve"/>
      <point x="225" y="318"/>
      <point x="258" y="281" type="qcurve"/>
      <point x="314" y="219"/>
      <point x="364" y="161" type="qcurve"/>
      <point x="386" y="179"/>
      <point x="401" y="200" type="qcurve"/>
      <point x="429" y="239"/>
      <point x="434" y="265" type="qcurve"/>
      <point x="440" y="295"/>
      <point x="440" y="306" type="qcurve"/>
      <point x="440" y="321" type="line"/>
      <point x="440" y="335"/>
      <point x="459" y="354"/>
      <point x="486" y="354"/>
      <point x="506" y="335"/>
    </contour>
  </outline>
</glyph>
<glyph name="quotesingle" format="1">
  <advance width="195"/>
  <unicode hex="0027"/>
  <outline>
    <contour>
      <point x="112" y="633" type="qcurve"/>
      <point x="129" y="600" type="line"/>
      <point x="149" y="559"/>
      <point x="145" y="515" type="qcurve"/>
      <point x="142" y="481" type="line"/>
      <point x="141" y="467"/>
      <point x="119" y="450"/>
      <point x="93" y="452"/>
      <point x="75" y="473"/>
      <point x="76" y="487" type="qcurve"/>
      <point x="80" y="522" type="line"/>
      <point x="82" y="547"/>
      <point x="70" y="571" type="qcurve"/>
      <point x="53" y="603" type="line"/>
      <point x="47" y="615"/>
      <point x="56" y="641"/>
      <point x="80" y="653"/>
      <point x="106" y="645"/>
    </contour>
  </outline>
</glyph>
<glyph name="parenleft" format="1">
  <advance width="402"/>
  <unicode hex="0028"/>
  <outline>
    <contour>
      <point x="261" y="599" type="qcurve"/>
      <point x="241" y="591" type="line"/>
      <point x="229" y="586"/>
      <point x="197" y="551" type="qcurve"/>
      <point x="165" y="514"/>
      <point x="139" y="436" type="qcurve"/>
      <point x="113" y="358"/>
      <point x="116" y="269" type="qcurve"/>
      <point x="120" y="179"/>
      <point x="153" y="92" type="qcurve"/>
      <point x="183" y="12"/>
      <point x="247" y="-24" type="qcurve"/>
      <point x="308" y="-58"/>
      <point x="322" y="-64" type="qcurve"/>
      <point x="327" y="-65" type="line"/>
      <point x="340" y="-68"/>
      <point x="355" y="-91"/>
      <point x="349" y="-118"/>
      <point x="326" y="-133"/>
      <point x="313" y="-130" type="qcurve"/>
      <point x="306" y="-128" type="line"/>
      <point x="299" y="-127"/>
      <point x="281" y="-119"/>
      <point x="267" y="-111"/>
      <point x="229" y="-89"/>
      <point x="215" y="-82" type="qcurve"/>
      <point x="129" y="-34"/>
      <point x="91" y="69" type="qcurve"/>
      <point x="54" y="166"/>
      <point x="50" y="266" type="qcurve"/>
      <point x="46" y="367"/>
      <point x="76" y="457" type="qcurve"/>
      <point x="107" y="548"/>
      <point x="148" y="595" type="qcurve"/>
      <point x="190" y="642"/>
      <point x="217" y="652" type="qcurve"/>
      <point x="237" y="660" type="line"/>
      <point x="249" y="665"/>
      <point x="275" y="654"/>
      <point x="284" y="629"/>
      <point x="273" y="603"/>
    </contour>
  </outline>
</glyph>
<glyph name="parenright" format="1">
  <advance width="355"/>
  <unicode hex="0029"/>
  <outline>
    <contour>
      <point x="101" y="688" type="qcurve"/>
      <point x="138" y="664" type="line"/>
      <point x="181" y="636"/>
      <point x="232" y="561" type="qcurve"/>
      <point x="284" y="485"/>
      <point x="302" y="338" type="qcurve"/>
      <point x="321" y="189"/>
      <point x="247" y="51" type="qcurve"/>
      <point x="176" y="-83"/>
      <point x="142" y="-115" type="qcurve"/>
      <point x="112" y="-143" type="line"/>
      <point x="102" y="-152"/>
      <point x="75" y="-151"/>
      <point x="56" y="-132"/>
      <point x="57" y="-104"/>
      <point x="67" y="-95" type="qcurve"/>
      <point x="97" y="-67" type="line"/>
      <point x="123" y="-42"/>
      <point x="189" y="82" type="qcurve"/>
      <point x="253" y="202"/>
      <point x="237" y="330" type="qcurve"/>
      <point x="220" y="461"/>
      <point x="178" y="524" type="qcurve"/>
      <point x="134" y="588"/>
      <point x="102" y="608" type="qcurve"/>
      <point x="65" y="633" type="line"/>
      <point x="54" y="640"/>
      <point x="48" y="667"/>
      <point x="63" y="690"/>
      <point x="90" y="695"/>
    </contour>
  </outline>
</glyph>
<glyph name="plus" format="1">
  <advance width="578"/>
  <unicode hex="002B"/>
  <outline>
    <contour>
      <point x="86" y="320" type="qcurve"/>
      <point x="95" y="320" type="line"/>
      <point x="105" y="319"/>
      <point x="173" y="321" type="qcurve"/>
      <point x="196" y="322"/>
      <point x="222" y="322" type="qcurve"/>
      <point x="224" y="385"/>
      <point x="224" y="440" type="qcurve"/>
      <point x="225" y="506" type="line"/>
      <point x="225" y="520"/>
      <point x="244" y="539"/>
      <point x="271" y="539"/>
      <point x="291" y="519"/>
      <point x="291" y="506" type="qcurve"/>
      <point x="290" y="439" type="line"/>
      <point x="290" y="385"/>
      <point x="288" y="323" type="qcurve"/>
      <point x="319" y="323"/>
      <point x="353" y="323" type="qcurve"/>
      <point x="460" y="323"/>
      <point x="479" y="322" type="qcurve"/>
      <point x="497" y="321" type="line"/>
      <point x="510" y="321"/>
      <point x="529" y="300"/>
      <point x="528" y="273"/>
      <point x="507" y="255"/>
      <point x="494" y="255" type="qcurve"/>
      <point x="476" y="256" type="line"/>
      <point x="459" y="257"/>
      <point x="353" y="257" type="qcurve"/>
      <point x="319" y="257"/>
      <point x="287" y="257" type="qcurve"/>
      <point x="288" y="199"/>
      <point x="295" y="142" type="qcurve"/>
      <point x="306" y="64" type="line"/>
      <point x="307" y="51"/>
      <point x="291" y="29"/>
      <point x="264" y="25"/>
      <point x="242" y="42"/>
      <point x="240" y="55" type="qcurve"/>
      <point x="230" y="133" type="line"/>
      <point x="222" y="194"/>
      <point x="221" y="256" type="qcurve"/>
      <point x="197" y="256"/>
      <point x="178" y="255" type="qcurve"/>
      <point x="100" y="253"/>
      <point x="89" y="254" type="qcurve"/>
      <point x="80" y="255" type="line"/>
      <point x="67" y="256"/>
      <point x="49" y="277"/>
      <point x="51" y="304"/>
      <point x="73" y="322"/>
    </contour>
  </outline>
</glyph>
<glyph name="comma" format="1">
  <advance width="235"/>
  <unicode hex="002C"/>
  <outline>
    <contour>
      <point x="175" y="72" type="qcurve"/>
      <point x="181" y="54" type="line"/>
      <point x="191" y="25"/>
      <point x="179" y="-17" type="qcurve"/>
      <point x="166" y="-60"/>
      <point x="130" y="-87" type="qcurve"/>
      <point x="103" y="-108" type="line"/>
      <point x="92" y="-116"/>
      <point x="65" y="-113"/>
      <point x="49" y="-91"/>
      <point x="52" y="-64"/>
      <point x="63" y="-56" type="qcurve"/>
      <point x="90" y="-35" type="line"/>
      <point x="109" y="-21"/>
      <point x="115" y="2" type="qcurve"/>
      <point x="122" y="24"/>
      <point x="119" y="32" type="qcurve"/>
      <point x="113" y="50" type="line"/>
      <point x="108" y="63"/>
      <point x="120" y="88"/>
      <point x="145" y="97"/>
      <point x="170" y="85"/>
    </contour>
  </outline>
</glyph>
<glyph name="hyphen" format="1">
  <advance width="491"/>
  <unicode hex="002D"/>
  <outline>
    <contour>
      <point x="86" y="313" type="qcurve"/>
      <point x="146" y="307" type="line"/>
      <point x="205" y="301"/>
      <point x="307" y="298" type="qcurve"/>
      <point x="410" y="294" type="line"/>
      <point x="423" y="294"/>
      <point x="442" y="274"/>
      <point x="441" y="247"/>
      <point x="421" y="228"/>
      <point x="407" y="228" type="qcurve"/>
      <point x="305" y="232" type="line"/>
      <point x="201" y="235"/>
      <point x="140" y="241" type="qcurve"/>
      <point x="80" y="247" type="line"/>
      <point x="66" y="249"/>
      <point x="49" y="270"/>
      <point x="52" y="297"/>
      <point x="73" y="314"/>
    </contour>
  </outline>
</glyph>
<glyph name="period" format="1">
  <advance width="168"/>
  <unicode hex="002E"/>
  <outline>
    <contour>
      <point x="106" y="97" type="qcurve"/>
      <point x="109" y="94" type="line"/>
      <point x="119" y="85"/>
      <point x="119" y="57"/>
      <point x="100" y="38"/>
      <point x="72" y="38"/>
      <point x="63" y="48" type="qcurve"/>
      <point x="60" y="51" type="line"/>
      <point x="50" y="60"/>
      <point x="50" y="88"/>
      <point x="69" y="107"/>
      <point x="97" y="107"/>
    </contour>
  </outline>
</glyph>
<glyph name="slash" format="1">
  <advance width="468"/>
  <unicode hex="002F"/>
  <outline>
    <contour>
      <point x="415" y="578" type="qcurve"/>
      <point x="384" y="513" type="line"/>
      <point x="352" y="449"/>
      <point x="265" y="257"/>
      <point x="197" y="92" type="qcurve"/>
      <point x="128" y="-73"/>
      <point x="121" y="-91" type="qcurve"/>
      <point x="114" y="-109" type="line"/>
      <point x="108" y="-122"/>
      <point x="83" y="-132"/>
      <point x="58" y="-122"/>
      <point x="47" y="-97"/>
      <point x="52" y="-84" type="qcurve"/>
      <point x="60" y="-66" type="line"/>
      <point x="67" y="-47"/>
      <point x="136" y="117" type="qcurve"/>
      <point x="205" y="283"/>
      <point x="292" y="477"/>
      <point x="324" y="542" type="qcurve"/>
      <point x="356" y="607" type="line"/>
      <point x="362" y="619"/>
      <point x="388" y="628"/>
      <point x="412" y="616"/>
      <point x="421" y="590"/>
    </contour>
  </outline>
</glyph>
<glyph name="zero" format="1">
  <advance width="584"/>
  <unicode hex="0030"/>
  <outline>
    <contour>
      <point x="196" y="496" type="qcurve"/>
      <point x="194" y="483"/>
      <point x="188" y="457" type="qcurve"/>
      <point x="186" y="450"/>
      <point x="185" y="443" type="qcurve"/>
      <point x="175" y="399"/>
      <point x="176" y="331" type="qcurve"/>
      <point x="178" y="265"/>
      <point x="234" y="129"/>
      <point x="273" y="90" type="qcurve"/>
      <point x="305" y="57"/>
      <point x="391" y="67"/>
      <point x="425" y="124" type="qcurve"/>
      <point x="463" y="188"/>
      <point x="468" y="258" type="qcurve"/>
      <point x="473" y="330"/>
      <point x="456" y="398" type="qcurve"/>
      <point x="439" y="464"/>
      <point x="409" y="507" type="qcurve"/>
      <point x="382" y="544"/>
      <point x="348" y="551" type="qcurve"/>
      <point x="310" y="557"/>
      <point x="247" y="527" type="qcurve"/>
      <point x="223" y="515"/>
      <point x="202" y="501" type="qcurve"/>
      <point x="199" y="499"/>
    </contour>
    <contour>
      <point x="112" y="399" type="qcurve"/>
      <point x="110" y="396" type="line"/>
      <point x="102" y="385"/>
      <point x="74" y="380"/>
      <point x="53" y="396"/>
      <point x="48" y="424"/>
      <point x="56" y="435" type="qcurve"/>
      <point x="95" y="488" type="line"/>
      <point x="112" y="511"/>
      <point x="134" y="531" type="qcurve"/>
      <point x="135" y="536"/>
      <point x="136" y="543" type="qcurve"/>
      <point x="138" y="562" type="line"/>
      <point x="139" y="576"/>
      <point x="157" y="593"/>
      <point x="170" y="591" type="qcurve"/>
      <point x="189" y="589"/>
      <point x="198" y="576" type="qcurve"/>
      <point x="208" y="581"/>
      <point x="219" y="586" type="qcurve"/>
      <point x="301" y="626"/>
      <point x="359" y="616" type="qcurve"/>
      <point x="421" y="605"/>
      <point x="463" y="545" type="qcurve"/>
      <point x="500" y="492"/>
      <point x="520" y="414" type="qcurve"/>
      <point x="539" y="336"/>
      <point x="534" y="253" type="qcurve"/>
      <point x="528" y="168"/>
      <point x="481" y="90" type="qcurve"/>
      <point x="431" y="5"/>
      <point x="280" y="-12"/>
      <point x="226" y="44" type="qcurve"/>
      <point x="178" y="92"/>
      <point x="145" y="172" type="qcurve"/>
      <point x="112" y="250"/>
      <point x="110" y="329" type="qcurve"/>
      <point x="109" y="367"/>
    </contour>
  </outline>
</glyph>
<glyph name="one" format="1">
  <advance width="227"/>
  <unicode hex="0031"/>
  <outline>
    <contour>
      <point x="116" y="640" type="qcurve"/>
      <point x="116" y="627" type="line"/>
      <point x="117" y="616"/>
      <point x="126" y="559" type="qcurve"/>
      <point x="136" y="500"/>
      <point x="145" y="440" type="qcurve"/>
      <point x="153" y="380"/>
      <point x="158" y="303" type="qcurve"/>
      <point x="162" y="227"/>
      <point x="166" y="170" type="qcurve"/>
      <point x="171" y="112"/>
      <point x="173" y="87" type="qcurve"/>
      <point x="176" y="60"/>
      <point x="177" y="40" type="qcurve"/>
      <point x="178" y="20"/>
      <point x="178" y="4" type="qcurve"/>
      <point x="178" y="-11" type="line"/>
      <point x="178" y="-25"/>
      <point x="158" y="-44"/>
      <point x="131" y="-44"/>
      <point x="112" y="-25"/>
      <point x="112" y="-11" type="qcurve"/>
      <point x="112" y="4" type="line"/>
      <point x="112" y="19"/>
      <point x="111" y="38" type="qcurve"/>
      <point x="110" y="56"/>
      <point x="108" y="80" type="qcurve"/>
      <point x="105" y="106"/>
      <point x="96" y="223"/>
      <point x="92" y="299" type="qcurve"/>
      <point x="88" y="373"/>
      <point x="79" y="431" type="qcurve"/>
      <point x="71" y="490"/>
      <point x="61" y="548" type="qcurve"/>
      <point x="51" y="610"/>
      <point x="50" y="625" type="qcurve"/>
      <point x="50" y="638" type="line"/>
      <point x="50" y="652"/>
      <point x="68" y="672"/>
      <point x="95" y="673"/>
      <point x="116" y="654"/>
    </contour>
  </outline>
</glyph>
<glyph name="two" format="1">
  <advance width="557"/>
  <unicode hex="0032"/>
  <outline>
    <contour>
      <point x="52" y="400" type="qcurve"/>
      <point x="51" y="410" type="line"/>
      <point x="49" y="413"/>
      <point x="51" y="429"/>
      <point x="51" y="434"/>
      <point x="57" y="449"/>
      <point x="60" y="455"/>
      <point x="67" y="471"/>
      <point x="69" y="476" type="qcurve"/>
      <point x="89" y="522"/>
      <point x="146" y="570" type="qcurve"/>
      <point x="211" y="625"/>
      <point x="262" y="607" type="qcurve"/>
      <point x="311" y="590"/>
      <point x="330" y="518" type="qcurve"/>
      <point x="347" y="454"/>
      <point x="322" y="374" type="qcurve"/>
      <point x="299" y="298"/>
      <point x="248" y="220" type="qcurve"/>
      <point x="200" y="146"/>
      <point x="168" y="94" type="qcurve"/>
      <point x="154" y="69"/>
      <point x="145" y="53" type="qcurve"/>
      <point x="163" y="52"/>
      <point x="189" y="52" type="qcurve"/>
      <point x="250" y="52"/>
      <point x="318" y="60" type="qcurve"/>
      <point x="388" y="69"/>
      <point x="422" y="70" type="qcurve"/>
      <point x="459" y="72"/>
      <point x="474" y="68" type="qcurve"/>
      <point x="483" y="65" type="line"/>
      <point x="496" y="62"/>
      <point x="510" y="38"/>
      <point x="503" y="12"/>
      <point x="479" y="-2"/>
      <point x="466" y="2" type="qcurve"/>
      <point x="457" y="4" type="line"/>
      <point x="449" y="5"/>
      <point x="425" y="4" type="qcurve"/>
      <point x="394" y="3"/>
      <point x="326" y="-5" type="qcurve"/>
      <point x="254" y="-14"/>
      <point x="189" y="-14" type="qcurve"/>
      <point x="122" y="-14"/>
      <point x="102" y="-8" type="qcurve"/>
      <point x="82" y="-2"/>
      <point x="64" y="37"/>
      <point x="72" y="56" type="qcurve"/>
      <point x="79" y="72"/>
      <point x="112" y="127" type="qcurve"/>
      <point x="144" y="181"/>
      <point x="192" y="256" type="qcurve"/>
      <point x="238" y="326"/>
      <point x="259" y="393" type="qcurve"/>
      <point x="278" y="456"/>
      <point x="266" y="501" type="qcurve"/>
      <point x="256" y="539"/>
      <point x="240" y="545" type="qcurve"/>
      <point x="225" y="550"/>
      <point x="189" y="519" type="qcurve"/>
      <point x="144" y="482"/>
      <point x="129" y="449" type="qcurve"/>
      <point x="119" y="426"/>
      <point x="116" y="415" type="qcurve"/>
      <point x="117" y="409" type="line"/>
      <point x="119" y="395"/>
      <point x="102" y="373"/>
      <point x="75" y="370"/>
      <point x="53" y="387"/>
    </contour>
  </outline>
</glyph>
<glyph name="three" format="1">
  <advance width="470"/>
  <unicode hex="0033"/>
  <outline>
    <contour>
      <point x="53" y="517" type="qcurve"/>
      <point x="60" y="530" type="line"/>
      <point x="65" y="540"/>
      <point x="84" y="560"/>
      <point x="99" y="572"/>
      <point x="118" y="586" type="qcurve"/>
      <point x="169" y="622"/>
      <point x="228" y="620" type="qcurve"/>
      <point x="291" y="619"/>
      <point x="340" y="561" type="qcurve"/>
      <point x="389" y="502"/>
      <point x="373" y="425" type="qcurve"/>
      <point x="360" y="363"/>
      <point x="314" y="316" type="qcurve"/>
      <point x="342" y="310"/>
      <point x="364" y="294" type="qcurve"/>
      <point x="406" y="263"/>
      <point x="418" y="208" type="qcurve"/>
      <point x="429" y="152"/>
      <point x="400" y="103" type="qcurve"/>
      <point x="372" y="56"/>
      <point x="297" y="27" type="qcurve"/>
      <point x="221" y="-2"/>
      <point x="165" y="17" type="qcurve"/>
      <point x="107" y="38"/>
      <point x="85" y="91" type="qcurve"/>
      <point x="68" y="131" type="line"/>
      <point x="63" y="143"/>
      <point x="74" y="169"/>
      <point x="99" y="179"/>
      <point x="124" y="169"/>
      <point x="129" y="156" type="qcurve"/>
      <point x="146" y="116" type="line"/>
      <point x="157" y="90"/>
      <point x="187" y="79" type="qcurve"/>
      <point x="219" y="68"/>
      <point x="272" y="88" type="qcurve"/>
      <point x="327" y="110"/>
      <point x="344" y="137" type="qcurve"/>
      <point x="359" y="164"/>
      <point x="353" y="194" type="qcurve"/>
      <point x="347" y="225"/>
      <point x="325" y="241" type="qcurve"/>
      <point x="305" y="256"/>
      <point x="268" y="251" type="qcurve"/>
      <point x="268" y="251"/>
      <point x="222" y="266" type="qcurve"/>
      <point x="169" y="290"/>
      <point x="207" y="309" type="qcurve"/>
      <point x="218" y="316"/>
      <point x="258" y="352" type="qcurve"/>
      <point x="298" y="389"/>
      <point x="308" y="439" type="qcurve"/>
      <point x="318" y="484"/>
      <point x="289" y="518" type="qcurve"/>
      <point x="259" y="553"/>
      <point x="226" y="554" type="qcurve"/>
      <point x="189" y="555"/>
      <point x="157" y="532" type="qcurve"/>
      <point x="126" y="510"/>
      <point x="119" y="501" type="qcurve"/>
      <point x="113" y="488" type="line"/>
      <point x="107" y="476"/>
      <point x="81" y="467"/>
      <point x="56" y="479"/>
      <point x="47" y="505"/>
    </contour>
  </outline>
</glyph>
<glyph name="four" format="1">
  <advance width="567"/>
  <unicode hex="0034"/>
  <outline>
    <contour>
      <point x="343" y="649" type="qcurve"/>
      <point x="355" y="638"/>
      <point x="353" y="621" type="qcurve"/>
      <point x="365" y="610"/>
      <point x="363" y="595" type="qcurve"/>
      <point x="361" y="568" type="line"/>
      <point x="359" y="543"/>
      <point x="355" y="482" type="qcurve"/>
      <point x="352" y="421"/>
      <point x="350" y="314" type="qcurve"/>
      <point x="349" y="287"/>
      <point x="349" y="262" type="qcurve"/>
      <point x="384" y="267"/>
      <point x="422" y="287" type="qcurve"/>
      <point x="469" y="313" type="line"/>
      <point x="481" y="319"/>
      <point x="508" y="311"/>
      <point x="520" y="287"/>
      <point x="512" y="261"/>
      <point x="500" y="254" type="qcurve"/>
      <point x="453" y="229" type="line"/>
      <point x="401" y="201"/>
      <point x="350" y="195" type="qcurve"/>
      <point x="352" y="161"/>
      <point x="354" y="132" type="qcurve"/>
      <point x="361" y="54"/>
      <point x="362" y="22" type="qcurve"/>
      <point x="362" y="-9" type="line"/>
      <point x="362" y="-22"/>
      <point x="343" y="-42"/>
      <point x="316" y="-42"/>
      <point x="296" y="-23"/>
      <point x="296" y="-10" type="qcurve"/>
      <point x="296" y="21" type="line"/>
      <point x="295" y="51"/>
      <point x="288" y="126" type="qcurve"/>
      <point x="286" y="157"/>
      <point x="284" y="192" type="qcurve"/>
      <point x="260" y="192"/>
      <point x="231" y="194" type="qcurve"/>
      <point x="157" y="199"/>
      <point x="110" y="218" type="qcurve"/>
      <point x="95" y="224"/>
      <point x="83" y="230"/>
      <point x="57" y="248"/>
      <point x="48" y="271"/>
      <point x="51" y="286" type="qcurve"/>
      <point x="54" y="308"/>
      <point x="82" y="349" type="qcurve"/>
      <point x="105" y="383"/>
      <point x="145" y="448" type="qcurve"/>
      <point x="187" y="515"/>
      <point x="235" y="574" type="qcurve"/>
      <point x="282" y="633"/>
      <point x="290" y="641" type="qcurve"/>
      <point x="296" y="648" type="line"/>
      <point x="306" y="658"/>
      <point x="333" y="658"/>
    </contour>
    <contour>
      <point x="283" y="258" type="qcurve"/>
      <point x="283" y="285"/>
      <point x="284" y="315" type="qcurve"/>
      <point x="286" y="423"/>
      <point x="289" y="486" type="qcurve"/>
      <point x="291" y="519"/>
      <point x="293" y="541" type="qcurve"/>
      <point x="289" y="536"/>
      <point x="286" y="533" type="qcurve"/>
      <point x="241" y="477"/>
      <point x="201" y="413" type="qcurve"/>
      <point x="160" y="347"/>
      <point x="136" y="312" type="qcurve"/>
      <point x="126" y="297"/>
      <point x="120" y="286" type="qcurve"/>
      <point x="127" y="283"/>
      <point x="135" y="279" type="qcurve"/>
      <point x="172" y="264"/>
      <point x="235" y="260" type="qcurve"/>
      <point x="261" y="258"/>
    </contour>
  </outline>
</glyph>
<glyph name="five" format="1">
  <advance width="465"/>
  <unicode hex="0035"/>
  <outline>
    <contour>
      <point x="386" y="603" type="qcurve"/>
      <point x="363" y="592" type="line"/>
      <point x="336" y="580"/>
      <point x="302" y="574" type="qcurve"/>
      <point x="270" y="568"/>
      <point x="219" y="565" type="qcurve"/>
      <point x="180" y="562"/>
      <point x="159" y="557" type="qcurve"/>
      <point x="150" y="550"/>
      <point x="142" y="520" type="qcurve"/>
      <point x="128" y="470"/>
      <point x="121" y="406" type="qcurve"/>
      <point x="118" y="377"/>
      <point x="117" y="357" type="qcurve"/>
      <point x="119" y="358"/>
      <point x="120" y="358" type="qcurve"/>
      <point x="167" y="376"/>
      <point x="224" y="378" type="qcurve"/>
      <point x="287" y="381"/>
      <point x="346" y="339" type="qcurve"/>
      <point x="406" y="295"/>
      <point x="415" y="221" type="qcurve"/>
      <point x="423" y="148"/>
      <point x="371" y="91" type="qcurve"/>
      <point x="322" y="37"/>
      <point x="251" y="28" type="qcurve"/>
      <point x="181" y="19"/>
      <point x="82" y="87"/>
      <point x="72" y="129" type="qcurve"/>
      <point x="64" y="162"/>
      <point x="64" y="179" type="qcurve"/>
      <point x="64" y="191" type="line"/>
      <point x="64" y="205"/>
      <point x="83" y="224"/>
      <point x="110" y="224"/>
      <point x="130" y="205"/>
      <point x="130" y="191" type="qcurve"/>
      <point x="130" y="179" type="line"/>
      <point x="130" y="170"/>
      <point x="136" y="144" type="qcurve"/>
      <point x="140" y="127"/>
      <point x="197" y="88"/>
      <point x="243" y="94" type="qcurve"/>
      <point x="289" y="99"/>
      <point x="323" y="136" type="qcurve"/>
      <point x="354" y="170"/>
      <point x="349" y="214" type="qcurve"/>
      <point x="344" y="259"/>
      <point x="307" y="286" type="qcurve"/>
      <point x="267" y="314"/>
      <point x="227" y="312" type="qcurve"/>
      <point x="181" y="310"/>
      <point x="143" y="296" type="qcurve"/>
      <point x="66" y="268"/>
      <point x="53" y="320" type="qcurve"/>
      <point x="48" y="341"/>
      <point x="55" y="414" type="qcurve"/>
      <point x="63" y="483"/>
      <point x="78" y="538" type="qcurve"/>
      <point x="98" y="608"/>
      <point x="140" y="620" type="qcurve"/>
      <point x="167" y="628"/>
      <point x="215" y="631" type="qcurve"/>
      <point x="262" y="634"/>
      <point x="290" y="639" type="qcurve"/>
      <point x="317" y="644"/>
      <point x="336" y="652" type="qcurve"/>
      <point x="359" y="663" type="line"/>
      <point x="371" y="668"/>
      <point x="397" y="659"/>
      <point x="408" y="634"/>
      <point x="398" y="608"/>
    </contour>
  </outline>
</glyph>
<glyph name="six" format="1">
  <advance width="551"/>
  <unicode hex="0036"/>
  <outline>
    <contour>
      <point x="138" y="179" type="line"/>
      <point x="148" y="153"/>
      <point x="162" y="133" type="qcurve"/>
      <point x="194" y="90"/>
      <point x="252" y="78" type="qcurve"/>
      <point x="311" y="64"/>
      <point x="363" y="87" type="qcurve"/>
      <point x="416" y="110"/>
      <point x="430" y="133" type="qcurve"/>
      <point x="441" y="151"/>
      <point x="429" y="188" type="qcurve"/>
      <point x="416" y="226"/>
      <point x="377" y="246" type="qcurve"/>
      <point x="337" y="266"/>
      <point x="256" y="245" type="qcurve"/>
      <point x="173" y="223"/>
      <point x="144" y="186" type="qcurve"/>
    </contour>
    <contour>
      <point x="88" y="129" type="qcurve"/>
      <point x="74" y="127"/>
      <point x="62" y="136" type="qcurve"/>
      <point x="52" y="144"/>
      <point x="49" y="171"/>
      <point x="57" y="182" type="qcurve"/>
      <point x="66" y="193" type="line"/>
      <point x="65" y="198"/>
      <point x="64" y="203" type="qcurve"/>
      <point x="59" y="226"/>
      <point x="57" y="252" type="qcurve"/>
      <point x="51" y="347"/>
      <point x="75" y="419" type="qcurve"/>
      <point x="100" y="491"/>
      <point x="135" y="536" type="qcurve"/>
      <point x="172" y="583"/>
      <point x="243" y="613" type="qcurve"/>
      <point x="309" y="641"/>
      <point x="347" y="648" type="qcurve"/>
      <point x="381" y="654" type="line"/>
      <point x="394" y="656"/>
      <point x="417" y="640"/>
      <point x="421" y="614"/>
      <point x="405" y="591"/>
      <point x="392" y="589" type="qcurve"/>
      <point x="358" y="583" type="line"/>
      <point x="328" y="577"/>
      <point x="268" y="552" type="qcurve"/>
      <point x="214" y="529"/>
      <point x="187" y="495" type="qcurve"/>
      <point x="159" y="459"/>
      <point x="138" y="398" type="qcurve"/>
      <point x="118" y="339"/>
      <point x="123" y="257" type="qcurve"/>
      <point x="166" y="289"/>
      <point x="239" y="308" type="qcurve"/>
      <point x="345" y="336"/>
      <point x="407" y="305" type="qcurve"/>
      <point x="469" y="273"/>
      <point x="491" y="209" type="qcurve"/>
      <point x="514" y="143"/>
      <point x="486" y="98" type="qcurve"/>
      <point x="461" y="58"/>
      <point x="389" y="27" type="qcurve"/>
      <point x="317" y="-5"/>
      <point x="237" y="13" type="qcurve"/>
      <point x="156" y="31"/>
      <point x="109" y="94" type="qcurve"/>
      <point x="97" y="110"/>
    </contour>
  </outline>
</glyph>
<glyph name="seven" format="1">
  <advance width="463"/>
  <unicode hex="0037"/>
  <outline>
    <contour>
      <point x="81" y="647" type="qcurve"/>
      <point x="155" y="652" type="line"/>
      <point x="231" y="658"/>
      <point x="297" y="656" type="qcurve"/>
      <point x="327" y="655"/>
      <point x="350" y="653"/>
      <point x="386" y="642"/>
      <point x="396" y="632" type="qcurve"/>
      <point x="412" y="615"/>
      <point x="414" y="563"/>
      <point x="409" y="540" type="qcurve"/>
      <point x="400" y="482"/>
      <point x="362" y="390" type="qcurve"/>
      <point x="324" y="302"/>
      <point x="295" y="231" type="qcurve"/>
      <point x="267" y="162"/>
      <point x="253" y="96" type="qcurve"/>
      <point x="238" y="31"/>
      <point x="239" y="2" type="qcurve"/>
      <point x="240" y="-29"/>
      <point x="241" y="-38" type="qcurve"/>
      <point x="243" y="-49" type="line"/>
      <point x="245" y="-63"/>
      <point x="229" y="-85"/>
      <point x="202" y="-89"/>
      <point x="180" y="-72"/>
      <point x="178" y="-59" type="qcurve"/>
      <point x="176" y="-48" type="line"/>
      <point x="174" y="-35"/>
      <point x="173" y="0" type="qcurve"/>
      <point x="172" y="37"/>
      <point x="188" y="110" type="qcurve"/>
      <point x="204" y="182"/>
      <point x="234" y="256" type="qcurve"/>
      <point x="263" y="327"/>
      <point x="301" y="416" type="qcurve"/>
      <point x="336" y="500"/>
      <point x="343" y="549" type="qcurve"/>
      <point x="346" y="572"/>
      <point x="346" y="585" type="qcurve"/>
      <point x="329" y="589"/>
      <point x="295" y="590" type="qcurve"/>
      <point x="232" y="592"/>
      <point x="160" y="586" type="qcurve"/>
      <point x="85" y="581" type="line"/>
      <point x="72" y="580"/>
      <point x="51" y="598"/>
      <point x="49" y="625"/>
      <point x="67" y="646"/>
    </contour>
  </outline>
</glyph>
<glyph name="eight" format="1">
  <advance width="548"/>
  <unicode hex="0038"/>
  <outline>
    <contour>
      <point x="228" y="372" type="qcurve"/>
      <point x="252" y="399"/>
      <point x="283" y="429" type="qcurve"/>
      <point x="378" y="524"/>
      <point x="412" y="553" type="qcurve"/>
      <point x="414" y="554" type="line"/>
      <point x="368" y="561" type="line"/>
      <point x="315" y="569"/>
      <point x="256" y="556" type="qcurve"/>
      <point x="200" y="543"/>
      <point x="158" y="502" type="qcurve"/>
      <point x="118" y="463"/>
      <point x="116" y="434" type="qcurve"/>
      <point x="116" y="429"/>
      <point x="120" y="419"/>
      <point x="137" y="405"/>
      <point x="153" y="397" type="qcurve"/>
      <point x="189" y="382"/>
    </contour>
    <contour>
      <point x="253" y="300" type="qcurve"/>
      <point x="223" y="264"/>
      <point x="208" y="236" type="qcurve"/>
      <point x="181" y="185"/>
      <point x="184" y="159" type="qcurve"/>
      <point x="186" y="137"/>
      <point x="220" y="115" type="qcurve"/>
      <point x="256" y="91"/>
      <point x="297" y="98" type="qcurve"/>
      <point x="340" y="105"/>
      <point x="375" y="142" type="qcurve"/>
      <point x="404" y="173"/>
      <point x="397" y="198" type="qcurve"/>
      <point x="389" y="231"/>
      <point x="353" y="261" type="qcurve"/>
      <point x="318" y="292"/>
      <point x="261" y="299" type="qcurve"/>
      <point x="258" y="300"/>
    </contour>
    <contour>
      <point x="464" y="589" type="qcurve"/>
      <point x="481" y="589"/>
      <point x="491" y="577" type="qcurve"/>
      <point x="500" y="567"/>
      <point x="498" y="539"/>
      <point x="487" y="531" type="qcurve"/>
      <point x="455" y="503" type="line"/>
      <point x="423" y="476"/>
      <point x="329" y="383" type="qcurve"/>
      <point x="317" y="370"/>
      <point x="305" y="358" type="qcurve"/>
      <point x="359" y="344"/>
      <point x="397" y="311" type="qcurve"/>
      <point x="447" y="268"/>
      <point x="461" y="215" type="qcurve"/>
      <point x="477" y="155"/>
      <point x="423" y="96" type="qcurve"/>
      <point x="373" y="43"/>
      <point x="308" y="33" type="qcurve"/>
      <point x="241" y="22"/>
      <point x="184" y="60" type="qcurve"/>
      <point x="124" y="99"/>
      <point x="118" y="151" type="qcurve"/>
      <point x="113" y="198"/>
      <point x="150" y="268" type="qcurve"/>
      <point x="162" y="290"/>
      <point x="182" y="317" type="qcurve"/>
      <point x="153" y="325"/>
      <point x="127" y="337" type="qcurve"/>
      <point x="47" y="373"/>
      <point x="50" y="438" type="qcurve"/>
      <point x="53" y="493"/>
      <point x="112" y="549" type="qcurve"/>
      <point x="168" y="604"/>
      <point x="242" y="620" type="qcurve"/>
      <point x="313" y="636"/>
      <point x="378" y="627" type="qcurve"/>
      <point x="436" y="618" type="line"/>
      <point x="447" y="616"/>
      <point x="463" y="600"/>
    </contour>
  </outline>
</glyph>
<glyph name="nine" format="1">
  <advance width="474"/>
  <unicode hex="0039"/>
  <outline>
    <contour>
      <point x="329" y="486" type="qcurve"/>
      <point x="320" y="489"/>
      <point x="315" y="495" type="qcurve"/>
      <point x="294" y="517" type="line"/>
      <point x="277" y="535"/>
      <point x="251" y="549" type="qcurve"/>
      <point x="228" y="561"/>
      <point x="215" y="560" type="qcurve"/>
      <point x="202" y="559"/>
      <point x="173" y="539" type="qcurve"/>
      <point x="144" y="518"/>
      <point x="113" y="451"/>
      <point x="117" y="416" type="qcurve"/>
      <point x="120" y="381"/>
      <point x="136" y="358" type="qcurve"/>
      <point x="148" y="341"/>
      <point x="178" y="337" type="qcurve"/>
      <point x="213" y="332"/>
      <point x="245" y="350" type="qcurve"/>
      <point x="279" y="370"/>
      <point x="296" y="399" type="qcurve"/>
      <point x="316" y="433"/>
      <point x="322" y="458" type="qcurve"/>
      <point x="326" y="474"/>
    </contour>
    <contour>
      <point x="364" y="539" type="qcurve"/>
      <point x="390" y="536"/>
      <point x="399" y="516" type="qcurve"/>
      <point x="403" y="506"/>
      <point x="409" y="482" type="qcurve"/>
      <point x="414" y="460"/>
      <point x="417" y="435" type="qcurve"/>
      <point x="420" y="410"/>
      <point x="423" y="371" type="qcurve"/>
      <point x="425" y="330"/>
      <point x="425" y="292" type="qcurve"/>
      <point x="424" y="252"/>
      <point x="415" y="216" type="qcurve"/>
      <point x="406" y="178"/>
      <point x="386" y="144" type="qcurve"/>
      <point x="366" y="109"/>
      <point x="336" y="86" type="qcurve"/>
      <point x="308" y="64"/>
      <point x="234" y="35"/>
      <point x="197" y="32" type="qcurve"/>
      <point x="160" y="28"/>
      <point x="130" y="35" type="qcurve"/>
      <point x="104" y="41"/>
      <point x="87" y="48" type="qcurve"/>
      <point x="72" y="54" type="line"/>
      <point x="59" y="59"/>
      <point x="48" y="84"/>
      <point x="58" y="109"/>
      <point x="83" y="120"/>
      <point x="96" y="115" type="qcurve"/>
      <point x="111" y="109" type="line"/>
      <point x="123" y="104"/>
      <point x="145" y="99" type="qcurve"/>
      <point x="164" y="95"/>
      <point x="191" y="97" type="qcurve"/>
      <point x="219" y="100"/>
      <point x="274" y="122"/>
      <point x="295" y="138" type="qcurve"/>
      <point x="315" y="154"/>
      <point x="330" y="178" type="qcurve"/>
      <point x="344" y="203"/>
      <point x="351" y="231" type="qcurve"/>
      <point x="358" y="260"/>
      <point x="359" y="293" type="qcurve"/>
      <point x="359" y="329"/>
      <point x="357" y="366" type="qcurve"/>
      <point x="356" y="370"/>
      <point x="356" y="371" type="qcurve"/>
      <point x="355" y="368"/>
      <point x="353" y="366" type="qcurve"/>
      <point x="327" y="321"/>
      <point x="278" y="293" type="qcurve"/>
      <point x="226" y="264"/>
      <point x="170" y="271" type="qcurve"/>
      <point x="110" y="279"/>
      <point x="81" y="321" type="qcurve"/>
      <point x="56" y="358"/>
      <point x="51" y="409" type="qcurve"/>
      <point x="46" y="462"/>
      <point x="91" y="562"/>
      <point x="135" y="593" type="qcurve"/>
      <point x="178" y="623"/>
      <point x="210" y="626" type="qcurve"/>
      <point x="242" y="628"/>
      <point x="281" y="607" type="qcurve"/>
      <point x="318" y="588"/>
      <point x="343" y="562" type="qcurve"/>
      <point x="363" y="540" type="line"/>
      <point x="364" y="539"/>
    </contour>
  </outline>
</glyph>
<glyph name="colon" format="1">
  <advance width="201"/>
  <unicode hex="003A"/>
  <outline>
    <contour>
      <point x="139" y="69" type="qcurve"/>
      <point x="142" y="66" type="line"/>
      <point x="152" y="56"/>
      <point x="152" y="29"/>
      <point x="133" y="10"/>
      <point x="105" y="10"/>
      <point x="95" y="19" type="qcurve"/>
      <point x="92" y="22" type="line"/>
      <point x="83" y="32"/>
      <point x="83" y="59"/>
      <point x="102" y="78"/>
      <point x="130" y="78"/>
    </contour>
    <contour>
      <point x="106" y="458" type="qcurve"/>
      <point x="109" y="455" type="line"/>
      <point x="119" y="445"/>
      <point x="119" y="418"/>
      <point x="100" y="399"/>
      <point x="72" y="399"/>
      <point x="63" y="408" type="qcurve"/>
      <point x="60" y="411" type="line"/>
      <point x="50" y="421"/>
      <point x="50" y="449"/>
      <point x="69" y="468"/>
      <point x="97" y="468"/>
    </contour>
  </outline>
</glyph>
<glyph name="semicolon" format="1">
  <advance width="225"/>
  <unicode hex="003B"/>
  <outline>
    <contour>
      <point x="173" y="86" type="qcurve"/>
      <point x="175" y="43" type="line"/>
      <point x="178" y="-12"/>
      <point x="141" y="-64" type="qcurve"/>
      <point x="110" y="-107" type="line"/>
      <point x="102" y="-118"/>
      <point x="75" y="-122"/>
      <point x="53" y="-107"/>
      <point x="48" y="-79"/>
      <point x="56" y="-69" type="qcurve"/>
      <point x="87" y="-26" type="line"/>
      <point x="111" y="8"/>
      <point x="109" y="40" type="qcurve"/>
      <point x="107" y="83" type="line"/>
      <point x="107" y="97"/>
      <point x="125" y="117"/>
      <point x="152" y="118"/>
      <point x="173" y="100"/>
    </contour>
    <contour>
      <point x="123" y="480" type="qcurve"/>
      <point x="126" y="477" type="line"/>
      <point x="136" y="468"/>
      <point x="136" y="440"/>
      <point x="117" y="421"/>
      <point x="89" y="421"/>
      <point x="79" y="430" type="qcurve"/>
      <point x="76" y="433" type="line"/>
      <point x="67" y="443"/>
      <point x="67" y="471"/>
      <point x="86" y="490"/>
      <point x="114" y="490"/>
    </contour>
  </outline>
</glyph>
<glyph name="equal" format="1">
  <advance width="629"/>
  <unicode hex="003D"/>
  <outline>
    <contour>
      <point x="136" y="241" type="qcurve"/>
      <point x="157" y="241" type="line"/>
      <point x="177" y="240"/>
      <point x="296" y="242"/>
      <point x="410" y="247" type="qcurve"/>
      <point x="525" y="253"/>
      <point x="535" y="253" type="qcurve"/>
      <point x="545" y="253" type="line"/>
      <point x="559" y="254"/>
      <point x="579" y="235"/>
      <point x="580" y="208"/>
      <point x="562" y="188"/>
      <point x="548" y="188" type="qcurve"/>
      <point x="538" y="187" type="line"/>
      <point x="527" y="187"/>
      <point x="413" y="181" type="qcurve"/>
      <point x="298" y="176"/>
      <point x="177" y="174"/>
      <point x="155" y="175" type="qcurve"/>
      <point x="135" y="175" type="line"/>
      <point x="121" y="176"/>
      <point x="102" y="196"/>
      <point x="103" y="222"/>
      <point x="123" y="242"/>
    </contour>
    <contour>
      <point x="86" y="436" type="qcurve"/>
      <point x="108" y="434" type="line"/>
      <point x="129" y="432"/>
      <point x="200" y="428" type="qcurve"/>
      <point x="273" y="424"/>
      <point x="359" y="415" type="qcurve"/>
      <point x="440" y="406"/>
      <point x="459" y="406" type="qcurve"/>
      <point x="480" y="407" type="line"/>
      <point x="493" y="408"/>
      <point x="513" y="389"/>
      <point x="514" y="362"/>
      <point x="496" y="342"/>
      <point x="482" y="341" type="qcurve"/>
      <point x="461" y="340" type="line"/>
      <point x="438" y="340"/>
      <point x="351" y="349" type="qcurve"/>
      <point x="268" y="359"/>
      <point x="197" y="362" type="qcurve"/>
      <point x="124" y="366"/>
      <point x="101" y="369" type="qcurve"/>
      <point x="80" y="371" type="line"/>
      <point x="66" y="372"/>
      <point x="49" y="394"/>
      <point x="52" y="420"/>
      <point x="73" y="438"/>
    </contour>
  </outline>
</glyph>
<glyph name="question" format="1">
  <advance width="370"/>
  <unicode hex="003F"/>
  <outline>
    <contour>
      <point x="181" y="38" type="qcurve"/>
      <point x="182" y="55"/>
      <point x="195" y="64" type="qcurve"/>
      <point x="204" y="69" type="line"/>
      <point x="225" y="84"/>
      <point x="253" y="75" type="qcurve"/>
      <point x="271" y="69"/>
      <point x="287" y="32"/>
      <point x="282" y="15" type="qcurve"/>
      <point x="275" y="-5"/>
      <point x="232" y="-20"/>
      <point x="217" y="-12" type="qcurve"/>
      <point x="200" y="-6" type="line"/>
      <point x="187" y="-1"/>
      <point x="176" y="25"/>
    </contour>
    <contour>
      <point x="55" y="437" type="qcurve"/>
      <point x="51" y="480" type="line"/>
      <point x="45" y="536"/>
      <point x="90" y="589" type="qcurve"/>
      <point x="137" y="645"/>
      <point x="203" y="636" type="qcurve"/>
      <point x="262" y="627"/>
      <point x="295" y="586" type="qcurve"/>
      <point x="328" y="544"/>
      <point x="319" y="473" type="qcurve"/>
      <point x="310" y="407"/>
      <point x="273" y="362" type="qcurve"/>
      <point x="241" y="324"/>
      <point x="218" y="302" type="qcurve"/>
      <point x="217" y="301"/>
      <point x="213" y="288"/>
      <point x="210" y="256"/>
      <point x="211" y="235" type="qcurve"/>
      <point x="214" y="166"/>
      <point x="217" y="149" type="qcurve"/>
      <point x="221" y="130" type="line"/>
      <point x="224" y="117"/>
      <point x="208" y="94"/>
      <point x="182" y="89"/>
      <point x="159" y="104"/>
      <point x="156" y="118" type="qcurve"/>
      <point x="152" y="136" type="line"/>
      <point x="148" y="158"/>
      <point x="145" y="232" type="qcurve"/>
      <point x="143" y="275"/>
      <point x="154" y="332"/>
      <point x="173" y="350" type="qcurve"/>
      <point x="193" y="369"/>
      <point x="223" y="405" type="qcurve"/>
      <point x="247" y="434"/>
      <point x="254" y="482" type="qcurve"/>
      <point x="259" y="525"/>
      <point x="243" y="545" type="qcurve"/>
      <point x="227" y="565"/>
      <point x="193" y="570" type="qcurve"/>
      <point x="164" y="575"/>
      <point x="140" y="547" type="qcurve"/>
      <point x="114" y="515"/>
      <point x="116" y="486" type="qcurve"/>
      <point x="120" y="444" type="line"/>
      <point x="122" y="430"/>
      <point x="104" y="409"/>
      <point x="77" y="406"/>
      <point x="56" y="424"/>
    </contour>
  </outline>
</glyph>
<glyph name="at" format="1">
  <advance width="727"/>
  <unicode hex="0040"/>
  <outline>
    <contour>
      <point x="627" y="102" type="qcurve"/>
      <point x="646" y="105"/>
      <point x="658" y="92" type="qcurve"/>
      <point x="667" y="81"/>
      <point x="665" y="54"/>
      <point x="655" y="45" type="qcurve"/>
      <point x="564" y="-36" type="line"/>
      <point x="463" y="-126"/>
      <point x="342" y="-119" type="qcurve"/>
      <point x="222" y="-112"/>
      <point x="153" y="-42" type="qcurve"/>
      <point x="86" y="25"/>
      <point x="38" y="207"/>
      <point x="61" y="289" type="qcurve"/>
      <point x="83" y="370"/>
      <point x="149" y="445" type="qcurve"/>
      <point x="214" y="519"/>
      <point x="280" y="551" type="qcurve"/>
      <point x="348" y="583"/>
      <point x="429" y="578" type="qcurve"/>
      <point x="513" y="573"/>
      <point x="580" y="507" type="qcurve"/>
      <point x="646" y="442"/>
      <point x="665" y="365" type="qcurve"/>
      <point x="683" y="291"/>
      <point x="674" y="217" type="qcurve"/>
      <point x="665" y="145"/>
    </contour>
    <contour>
      <point x="583" y="69" type="line"/>
      <point x="544" y="54"/>
      <point x="509" y="78" type="qcurve"/>
      <point x="470" y="104"/>
      <point x="449" y="164" type="qcurve"/>
      <point x="427" y="127"/>
      <point x="389" y="96" type="qcurve"/>
      <point x="324" y="44"/>
      <point x="279" y="50" type="qcurve"/>
      <point x="224" y="57"/>
      <point x="210" y="141" type="qcurve"/>
      <point x="198" y="211"/>
      <point x="231" y="275" type="qcurve"/>
      <point x="263" y="336"/>
      <point x="312" y="370" type="qcurve"/>
      <point x="369" y="410"/>
      <point x="427" y="390" type="qcurve"/>
      <point x="475" y="374"/>
      <point x="488" y="364" type="qcurve"/>
      <point x="496" y="357" type="line"/>
      <point x="506" y="349"/>
      <point x="510" y="322"/>
      <point x="501" y="311" type="qcurve"/>
      <point x="497" y="306"/>
      <point x="490" y="302" type="qcurve"/>
      <point x="491" y="295"/>
      <point x="491" y="284" type="qcurve"/>
      <point x="493" y="245"/>
      <point x="509" y="193" type="qcurve"/>
      <point x="523" y="148"/>
      <point x="546" y="133" type="qcurve"/>
      <point x="550" y="128"/>
      <point x="562" y="130"/>
      <point x="574" y="142" type="qcurve"/>
      <point x="602" y="168"/>
      <point x="609" y="225" type="qcurve"/>
      <point x="616" y="287"/>
      <point x="601" y="349" type="qcurve"/>
      <point x="586" y="408"/>
      <point x="534" y="459" type="qcurve"/>
      <point x="484" y="508"/>
      <point x="425" y="512" type="qcurve"/>
      <point x="361" y="516"/>
      <point x="309" y="491" type="qcurve"/>
      <point x="254" y="465"/>
      <point x="198" y="401" type="qcurve"/>
      <point x="143" y="338"/>
      <point x="125" y="271" type="qcurve"/>
      <point x="107" y="206"/>
      <point x="145" y="59"/>
      <point x="199" y="4" type="qcurve"/>
      <point x="251" y="-48"/>
      <point x="345" y="-53" type="qcurve"/>
      <point x="439" y="-58"/>
      <point x="520" y="14" type="qcurve"/>
    </contour>
    <contour>
      <point x="425" y="321" type="qcurve"/>
      <point x="416" y="324"/>
      <point x="406" y="328" type="qcurve"/>
      <point x="380" y="336"/>
      <point x="350" y="316" type="qcurve"/>
      <point x="314" y="291"/>
      <point x="290" y="244" type="qcurve"/>
      <point x="267" y="200"/>
      <point x="275" y="152" type="qcurve"/>
      <point x="280" y="123"/>
      <point x="288" y="116" type="qcurve"/>
      <point x="305" y="115"/>
      <point x="347" y="148" type="qcurve"/>
      <point x="393" y="184"/>
      <point x="406" y="228" type="qcurve"/>
      <point x="420" y="278"/>
      <point x="422" y="301" type="qcurve"/>
      <point x="422" y="313"/>
    </contour>
  </outline>
</glyph>
<glyph name="A" format="1">
  <advance width="600"/>
  <unicode hex="0041"/>
  <outline>
    <contour>
      <point x="53" y="40" type="qcurve"/>
      <point x="63" y="65" type="line"/>
      <point x="73" y="89"/>
      <point x="93" y="142" type="qcurve"/>
      <point x="112" y="196"/>
      <point x="156" y="327"/>
      <point x="176" y="394" type="qcurve"/>
      <point x="197" y="461"/>
      <point x="228" y="562"/>
      <point x="235" y="585" type="qcurve"/>
      <point x="242" y="608"/>
      <point x="244" y="615" type="qcurve"/>
      <point x="250" y="636"/>
      <point x="272" y="646"/>
      <point x="294" y="633"/>
      <point x="315" y="615"/>
      <point x="321" y="606" type="qcurve"/>
      <point x="328" y="597" type="line"/>
      <point x="350" y="560"/>
      <point x="374" y="506" type="qcurve"/>
      <point x="397" y="453"/>
      <point x="423" y="379" type="qcurve"/>
      <point x="444" y="319"/>
      <point x="459" y="277" type="qcurve"/>
      <point x="466" y="279"/>
      <point x="471" y="280" type="qcurve"/>
      <point x="502" y="290" type="line"/>
      <point x="515" y="294"/>
      <point x="539" y="281"/>
      <point x="547" y="255"/>
      <point x="534" y="230"/>
      <point x="521" y="227" type="qcurve"/>
      <point x="490" y="217" type="line"/>
      <point x="487" y="216"/>
      <point x="483" y="215" type="qcurve"/>
      <point x="492" y="195"/>
      <point x="502" y="174" type="qcurve"/>
      <point x="525" y="128"/>
      <point x="534" y="109" type="qcurve"/>
      <point x="542" y="91"/>
      <point x="546" y="81" type="qcurve"/>
      <point x="549" y="73" type="line"/>
      <point x="554" y="60"/>
      <point x="542" y="35"/>
      <point x="517" y="26"/>
      <point x="492" y="37"/>
      <point x="487" y="50" type="qcurve"/>
      <point x="484" y="58" type="line"/>
      <point x="481" y="65"/>
      <point x="466" y="100"/>
      <point x="443" y="145" type="qcurve"/>
      <point x="429" y="173"/>
      <point x="418" y="201" type="qcurve"/>
      <point x="395" y="196"/>
      <point x="364" y="191" type="qcurve"/>
      <point x="272" y="174"/>
      <point x="217" y="162" type="qcurve"/>
      <point x="166" y="152" type="line"/>
      <point x="160" y="135"/>
      <point x="155" y="119" type="qcurve"/>
      <point x="135" y="64"/>
      <point x="124" y="39" type="qcurve"/>
      <point x="113" y="14" type="line"/>
      <point x="108" y="1"/>
      <point x="82" y="-9"/>
      <point x="58" y="2"/>
      <point x="47" y="27"/>
    </contour>
    <contour>
      <point x="191" y="224" type="qcurve"/>
      <point x="203" y="227" type="line"/>
      <point x="259" y="239"/>
      <point x="352" y="255" type="qcurve"/>
      <point x="375" y="260"/>
      <point x="394" y="263" type="qcurve"/>
      <point x="380" y="303"/>
      <point x="361" y="358" type="qcurve"/>
      <point x="336" y="428"/>
      <point x="314" y="479" type="qcurve"/>
      <point x="300" y="509"/>
      <point x="288" y="533" type="qcurve"/>
      <point x="283" y="515"/>
      <point x="275" y="492" type="qcurve"/>
      <point x="260" y="442"/>
      <point x="239" y="375" type="qcurve"/>
      <point x="219" y="307"/>
      <point x="197" y="241" type="qcurve"/>
      <point x="194" y="233"/>
    </contour>
  </outline>
</glyph>
<glyph name="B" format="1">
  <advance width="561"/>
  <unicode hex="0042"/>
  <outline>
    <contour>
      <point x="95" y="600" type="qcurve"/>
      <point x="97" y="603"/>
      <point x="100" y="605" type="qcurve"/>
      <point x="119" y="619" type="line"/>
      <point x="141" y="636"/>
      <point x="206" y="659" type="qcurve"/>
      <point x="275" y="684"/>
      <point x="330" y="674" type="qcurve"/>
      <point x="386" y="663"/>
      <point x="414" y="636" type="qcurve"/>
      <point x="441" y="610"/>
      <point x="466" y="506"/>
      <point x="451" y="459" type="qcurve"/>
      <point x="436" y="414"/>
      <point x="388" y="366" type="qcurve"/>
      <point x="388" y="365"/>
      <point x="387" y="364" type="qcurve"/>
      <point x="434" y="345"/>
      <point x="491" y="280"/>
      <point x="503" y="244" type="qcurve"/>
      <point x="516" y="207"/>
      <point x="510" y="160" type="qcurve"/>
      <point x="503" y="111"/>
      <point x="454" y="59" type="qcurve"/>
      <point x="405" y="8"/>
      <point x="354" y="-8" type="qcurve"/>
      <point x="303" y="-23"/>
      <point x="250" y="-16" type="qcurve"/>
      <point x="203" y="-9"/>
      <point x="144" y="18" type="qcurve"/>
      <point x="139" y="16"/>
      <point x="133" y="15" type="qcurve"/>
      <point x="121" y="14"/>
      <point x="100" y="29"/>
      <point x="97" y="41" type="qcurve"/>
      <point x="68" y="55" type="line"/>
      <point x="56" y="61"/>
      <point x="47" y="87"/>
      <point x="53" y="99" type="qcurve"/>
      <point x="64" y="121"/>
      <point x="88" y="117" type="qcurve"/>
      <point x="85" y="141"/>
      <point x="81" y="172" type="qcurve"/>
      <point x="70" y="246"/>
      <point x="66" y="329" type="qcurve"/>
      <point x="63" y="412"/>
      <point x="64" y="478" type="qcurve"/>
      <point x="65" y="543"/>
      <point x="66" y="556" type="qcurve"/>
      <point x="66" y="568" type="line"/>
      <point x="66" y="580"/>
      <point x="83" y="598"/>
    </contour>
    <contour>
      <point x="159" y="84" type="qcurve"/>
      <point x="160" y="84" type="line"/>
      <point x="218" y="56"/>
      <point x="259" y="50" type="qcurve"/>
      <point x="298" y="44"/>
      <point x="334" y="55" type="qcurve"/>
      <point x="370" y="66"/>
      <point x="406" y="104" type="qcurve"/>
      <point x="441" y="141"/>
      <point x="444" y="169" type="qcurve"/>
      <point x="448" y="200"/>
      <point x="441" y="223" type="qcurve"/>
      <point x="433" y="247"/>
      <point x="413" y="269" type="qcurve"/>
      <point x="394" y="291"/>
      <point x="360" y="304" type="qcurve"/>
      <point x="346" y="309"/>
      <point x="333" y="312" type="qcurve"/>
      <point x="328" y="313"/>
      <point x="323" y="314" type="qcurve"/>
      <point x="302" y="301"/>
      <point x="280" y="292" type="qcurve"/>
      <point x="219" y="266"/>
      <point x="188" y="264" type="qcurve"/>
      <point x="188" y="264"/>
      <point x="180" y="263"/>
      <point x="172" y="262"/>
      <point x="160" y="263"/>
      <point x="150" y="266"/>
      <point x="139" y="273"/>
      <point x="136" y="278" type="qcurve"/>
      <point x="139" y="228"/>
      <point x="146" y="182" type="qcurve"/>
      <point x="156" y="114"/>
    </contour>
    <contour>
      <point x="133" y="326" type="qcurve"/>
      <point x="138" y="335"/>
      <point x="156" y="348"/>
      <point x="183" y="359"/>
      <point x="184" y="359" type="qcurve"/>
      <point x="231" y="384"/>
      <point x="284" y="384" type="qcurve"/>
      <point x="296" y="384"/>
      <point x="307" y="383" type="qcurve"/>
      <point x="312" y="386"/>
      <point x="316" y="389" type="qcurve"/>
      <point x="329" y="400"/>
      <point x="341" y="412" type="qcurve"/>
      <point x="378" y="449"/>
      <point x="388" y="480" type="qcurve"/>
      <point x="398" y="508"/>
      <point x="381" y="576"/>
      <point x="367" y="589" type="qcurve"/>
      <point x="354" y="602"/>
      <point x="318" y="609" type="qcurve"/>
      <point x="280" y="616"/>
      <point x="229" y="597" type="qcurve"/>
      <point x="173" y="578"/>
      <point x="159" y="566" type="qcurve"/>
      <point x="140" y="552" type="line"/>
      <point x="136" y="549"/>
      <point x="131" y="548" type="qcurve"/>
      <point x="131" y="529"/>
      <point x="130" y="477" type="qcurve"/>
      <point x="129" y="413"/>
      <point x="132" y="332" type="qcurve"/>
      <point x="132" y="329"/>
    </contour>
  </outline>
</glyph>
<glyph name="C" format="1">
  <advance width="631"/>
  <unicode hex="0043"/>
  <outline>
    <contour>
      <point x="465" y="421" type="qcurve"/>
      <point x="459" y="435" type="line"/>
      <point x="454" y="449"/>
      <point x="441" y="486" type="qcurve"/>
      <point x="431" y="515"/>
      <point x="406" y="541" type="qcurve"/>
      <point x="385" y="564"/>
      <point x="299" y="583"/>
      <point x="263" y="569" type="qcurve"/>
      <point x="223" y="553"/>
      <point x="191" y="519" type="qcurve"/>
      <point x="157" y="484"/>
      <point x="138" y="444" type="qcurve"/>
      <point x="119" y="405"/>
      <point x="116" y="367" type="qcurve"/>
      <point x="114" y="330"/>
      <point x="129" y="282" type="qcurve"/>
      <point x="145" y="231"/>
      <point x="175" y="177" type="qcurve"/>
      <point x="204" y="126"/>
      <point x="260" y="80"/>
      <point x="294" y="69" type="qcurve"/>
      <point x="321" y="60"/>
      <point x="362" y="80" type="qcurve"/>
      <point x="408" y="102"/>
      <point x="445" y="152" type="qcurve"/>
      <point x="483" y="204"/>
      <point x="499" y="251" type="qcurve"/>
      <point x="518" y="302" type="line"/>
      <point x="522" y="315"/>
      <point x="547" y="326"/>
      <point x="572" y="317"/>
      <point x="584" y="292"/>
      <point x="580" y="280" type="qcurve"/>
      <point x="562" y="229" type="line"/>
      <point x="542" y="173"/>
      <point x="498" y="113" type="qcurve"/>
      <point x="452" y="50"/>
      <point x="391" y="21" type="qcurve"/>
      <point x="326" y="-11"/>
      <point x="273" y="6" type="qcurve"/>
      <point x="228" y="21"/>
      <point x="152" y="83"/>
      <point x="117" y="145" type="qcurve"/>
      <point x="84" y="205"/>
      <point x="66" y="262" type="qcurve"/>
      <point x="47" y="322"/>
      <point x="51" y="372" type="qcurve"/>
      <point x="55" y="422"/>
      <point x="78" y="472" type="qcurve"/>
      <point x="102" y="522"/>
      <point x="143" y="565" type="qcurve"/>
      <point x="186" y="609"/>
      <point x="238" y="630" type="qcurve"/>
      <point x="294" y="652"/>
      <point x="419" y="624"/>
      <point x="455" y="586" type="qcurve"/>
      <point x="488" y="550"/>
      <point x="503" y="508" type="qcurve"/>
      <point x="516" y="472"/>
      <point x="521" y="459" type="qcurve"/>
      <point x="526" y="445" type="line"/>
      <point x="531" y="433"/>
      <point x="520" y="407"/>
      <point x="495" y="397"/>
      <point x="470" y="408"/>
    </contour>
  </outline>
</glyph>
<glyph name="D" format="1">
  <advance width="628"/>
  <unicode hex="0044"/>
  <outline>
    <contour>
      <point x="103" y="543" type="qcurve"/>
      <point x="99" y="556"/>
      <point x="112" y="580"/>
      <point x="125" y="584" type="qcurve"/>
      <point x="134" y="591"/>
      <point x="146" y="590" type="qcurve"/>
      <point x="174" y="599" type="line"/>
      <point x="227" y="614"/>
      <point x="284" y="618" type="qcurve"/>
      <point x="346" y="623"/>
      <point x="417" y="595" type="qcurve"/>
      <point x="492" y="565"/>
      <point x="534" y="490" type="qcurve"/>
      <point x="575" y="418"/>
      <point x="578" y="343" type="qcurve"/>
      <point x="581" y="268"/>
      <point x="554" y="196" type="qcurve"/>
      <point x="527" y="123"/>
      <point x="475" y="70" type="qcurve"/>
      <point x="421" y="15"/>
      <point x="350" y="-4" type="qcurve"/>
      <point x="278" y="-23"/>
      <point x="204" y="0" type="qcurve"/>
      <point x="195" y="2"/>
      <point x="186" y="5" type="qcurve"/>
      <point x="182" y="-5"/>
      <point x="165" y="-17"/>
      <point x="154" y="-17" type="qcurve"/>
      <point x="140" y="-16"/>
      <point x="122" y="4"/>
      <point x="122" y="17" type="qcurve"/>
      <point x="122" y="26" type="line"/>
      <point x="122" y="27"/>
      <point x="122" y="31" type="qcurve"/>
      <point x="108" y="37"/>
      <point x="97" y="45" type="qcurve"/>
      <point x="65" y="66" type="line"/>
      <point x="53" y="74"/>
      <point x="48" y="101"/>
      <point x="63" y="123"/>
      <point x="90" y="129"/>
      <point x="101" y="121" type="qcurve"/>
      <point x="115" y="112" type="line"/>
      <point x="111" y="154"/>
      <point x="106" y="214" type="qcurve"/>
      <point x="99" y="303"/>
      <point x="100" y="391" type="qcurve"/>
      <point x="100" y="480"/>
      <point x="106" y="522" type="qcurve"/>
      <point x="108" y="534" type="line"/>
      <point x="105" y="538"/>
    </contour>
    <contour>
      <point x="185" y="76" type="qcurve"/>
      <point x="202" y="69"/>
      <point x="223" y="63" type="qcurve"/>
      <point x="280" y="46"/>
      <point x="333" y="60" type="qcurve"/>
      <point x="387" y="74"/>
      <point x="428" y="116" type="qcurve"/>
      <point x="470" y="159"/>
      <point x="492" y="219" type="qcurve"/>
      <point x="514" y="279"/>
      <point x="512" y="340" type="qcurve"/>
      <point x="509" y="399"/>
      <point x="477" y="458" type="qcurve"/>
      <point x="446" y="513"/>
      <point x="393" y="533" type="qcurve"/>
      <point x="335" y="556"/>
      <point x="289" y="553" type="qcurve"/>
      <point x="239" y="549"/>
      <point x="193" y="535" type="qcurve"/>
      <point x="174" y="530" type="line"/>
      <point x="171" y="513" type="line"/>
      <point x="166" y="475"/>
      <point x="166" y="391" type="qcurve"/>
      <point x="165" y="305"/>
      <point x="172" y="219" type="qcurve"/>
      <point x="179" y="132"/>
      <point x="184" y="85" type="qcurve"/>
      <point x="184" y="83"/>
      <point x="184" y="77"/>
    </contour>
  </outline>
</glyph>
<glyph name="E" format="1">
  <advance width="612"/>
  <unicode hex="0045"/>
  <outline>
    <contour>
      <point x="50" y="561" type="qcurve"/>
      <point x="49" y="574"/>
      <point x="66" y="595"/>
      <point x="80" y="597" type="qcurve"/>
      <point x="86" y="597" type="line"/>
      <point x="92" y="598"/>
      <point x="147" y="604" type="qcurve"/>
      <point x="203" y="610"/>
      <point x="312" y="620"/>
      <point x="404" y="628" type="qcurve"/>
      <point x="495" y="635"/>
      <point x="509" y="637" type="qcurve"/>
      <point x="524" y="640" type="line"/>
      <point x="537" y="642"/>
      <point x="560" y="626"/>
      <point x="564" y="599"/>
      <point x="547" y="577"/>
      <point x="534" y="575" type="qcurve"/>
      <point x="519" y="572" type="line"/>
      <point x="502" y="570"/>
      <point x="409" y="562" type="qcurve"/>
      <point x="317" y="554"/>
      <point x="209" y="544"/>
      <point x="154" y="538" type="qcurve"/>
      <point x="154" y="538"/>
      <point x="151" y="538" type="qcurve"/>
      <point x="152" y="535"/>
      <point x="151" y="531" type="qcurve"/>
      <point x="149" y="489" type="line"/>
      <point x="147" y="449"/>
      <point x="148" y="371" type="qcurve"/>
      <point x="152" y="370" type="line"/>
      <point x="165" y="369"/>
      <point x="204" y="369" type="qcurve"/>
      <point x="245" y="369"/>
      <point x="308" y="370" type="qcurve"/>
      <point x="362" y="370"/>
      <point x="375" y="374" type="qcurve"/>
      <point x="391" y="380" type="line"/>
      <point x="403" y="385"/>
      <point x="428" y="374"/>
      <point x="438" y="349"/>
      <point x="427" y="324"/>
      <point x="415" y="319" type="qcurve"/>
      <point x="399" y="313" type="line"/>
      <point x="378" y="305"/>
      <point x="309" y="304" type="qcurve"/>
      <point x="246" y="303"/>
      <point x="204" y="303" type="qcurve"/>
      <point x="166" y="303"/>
      <point x="149" y="304" type="qcurve"/>
      <point x="150" y="253"/>
      <point x="151" y="203" type="qcurve"/>
      <point x="153" y="128"/>
      <point x="159" y="100" type="qcurve"/>
      <point x="164" y="74"/>
      <point x="170" y="63" type="qcurve"/>
      <point x="173" y="59"/>
      <point x="181" y="56" type="qcurve"/>
      <point x="194" y="51"/>
      <point x="248" y="56" type="qcurve"/>
      <point x="312" y="62"/>
      <point x="371" y="63" type="qcurve"/>
      <point x="428" y="64"/>
      <point x="466" y="65" type="qcurve"/>
      <point x="502" y="66"/>
      <point x="511" y="68" type="qcurve"/>
      <point x="523" y="70" type="line"/>
      <point x="536" y="72"/>
      <point x="558" y="55"/>
      <point x="563" y="29"/>
      <point x="546" y="6"/>
      <point x="533" y="4" type="qcurve"/>
      <point x="522" y="3" type="line"/>
      <point x="508" y="0"/>
      <point x="468" y="-1" type="qcurve"/>
      <point x="430" y="-2"/>
      <point x="372" y="-3" type="qcurve"/>
      <point x="315" y="-4"/>
      <point x="254" y="-9" type="qcurve"/>
      <point x="183" y="-16"/>
      <point x="157" y="-6" type="qcurve"/>
      <point x="128" y="5"/>
      <point x="113" y="30" type="qcurve"/>
      <point x="102" y="50"/>
      <point x="94" y="86" type="qcurve"/>
      <point x="87" y="120"/>
      <point x="85" y="202" type="qcurve"/>
      <point x="83" y="280"/>
      <point x="82" y="364" type="qcurve"/>
      <point x="81" y="448"/>
      <point x="83" y="492" type="qcurve"/>
      <point x="85" y="531" type="line"/>
      <point x="72" y="530"/>
      <point x="51" y="548"/>
    </contour>
  </outline>
</glyph>
<glyph name="F" format="1">
  <advance width="536"/>
  <unicode hex="0046"/>
  <outline>
    <contour>
      <point x="55" y="537" type="qcurve"/>
      <point x="49" y="549"/>
      <point x="55" y="574"/>
      <point x="66" y="581" type="qcurve"/>
      <point x="68" y="593" type="line"/>
      <point x="70" y="606"/>
      <point x="92" y="623"/>
      <point x="105" y="621" type="qcurve"/>
      <point x="119" y="619"/>
      <point x="127" y="608" type="qcurve"/>
      <point x="134" y="610"/>
      <point x="147" y="615" type="qcurve"/>
      <point x="203" y="634"/>
      <point x="280" y="648" type="qcurve"/>
      <point x="358" y="662"/>
      <point x="378" y="660" type="qcurve"/>
      <point x="393" y="659" type="line"/>
      <point x="407" y="658"/>
      <point x="425" y="637"/>
      <point x="423" y="610"/>
      <point x="402" y="592"/>
      <point x="388" y="593" type="qcurve"/>
      <point x="373" y="594" type="line"/>
      <point x="359" y="595"/>
      <point x="291" y="583" type="qcurve"/>
      <point x="220" y="570"/>
      <point x="169" y="552" type="qcurve"/>
      <point x="146" y="544"/>
      <point x="128" y="537" type="qcurve"/>
      <point x="126" y="524"/>
      <point x="125" y="507" type="qcurve"/>
      <point x="122" y="468"/>
      <point x="118" y="370" type="qcurve"/>
      <point x="116" y="339"/>
      <point x="116" y="310" type="qcurve"/>
      <point x="160" y="319" type="line"/>
      <point x="216" y="330"/>
      <point x="292" y="340" type="qcurve"/>
      <point x="367" y="351"/>
      <point x="410" y="353" type="qcurve"/>
      <point x="452" y="356" type="line"/>
      <point x="465" y="356"/>
      <point x="486" y="338"/>
      <point x="488" y="311"/>
      <point x="469" y="291"/>
      <point x="456" y="290" type="qcurve"/>
      <point x="414" y="287" type="line"/>
      <point x="374" y="285"/>
      <point x="228" y="265"/>
      <point x="173" y="254" type="qcurve"/>
      <point x="118" y="243" type="line"/>
      <point x="117" y="243"/>
      <point x="117" y="243" type="qcurve"/>
      <point x="117" y="220"/>
      <point x="119" y="199" type="qcurve"/>
      <point x="124" y="125"/>
      <point x="138" y="57"/>
      <point x="141" y="47" type="qcurve"/>
      <point x="146" y="34" type="line"/>
      <point x="151" y="21"/>
      <point x="139" y="-4"/>
      <point x="114" y="-13"/>
      <point x="89" y="-1"/>
      <point x="84" y="11" type="qcurve"/>
      <point x="79" y="24" type="line"/>
      <point x="74" y="39"/>
      <point x="66" y="78" type="qcurve"/>
      <point x="58" y="117"/>
      <point x="53" y="195" type="qcurve"/>
      <point x="48" y="272"/>
      <point x="52" y="372" type="qcurve"/>
      <point x="56" y="472"/>
      <point x="59" y="512" type="qcurve"/>
      <point x="60" y="522"/>
      <point x="61" y="530" type="qcurve"/>
      <point x="57" y="533"/>
    </contour>
  </outline>
</glyph>
<glyph name="G" format="1">
  <advance width="658"/>
  <unicode hex="0047"/>
  <outline>
    <contour>
      <point x="453" y="372" type="qcurve"/>
      <point x="435" y="381"/>
      <point x="436" y="401" type="qcurve"/>
      <point x="436" y="408" type="line"/>
      <point x="435" y="415"/>
      <point x="431" y="441" type="qcurve"/>
      <point x="426" y="468"/>
      <point x="407" y="506" type="qcurve"/>
      <point x="391" y="539"/>
      <point x="363" y="555" type="qcurve"/>
      <point x="338" y="569"/>
      <point x="272" y="550" type="qcurve"/>
      <point x="202" y="530"/>
      <point x="167" y="488" type="qcurve"/>
      <point x="130" y="443"/>
      <point x="120" y="413" type="qcurve"/>
      <point x="111" y="384"/>
      <point x="121" y="331" type="qcurve"/>
      <point x="131" y="276"/>
      <point x="165" y="223" type="qcurve"/>
      <point x="200" y="169"/>
      <point x="243" y="131" type="qcurve"/>
      <point x="282" y="96"/>
      <point x="323" y="90" type="qcurve"/>
      <point x="359" y="85"/>
      <point x="393" y="114" type="qcurve"/>
      <point x="428" y="143"/>
      <point x="430" y="178"/>
      <point x="403" y="204" type="qcurve"/>
      <point x="373" y="235"/>
      <point x="335" y="245" type="qcurve"/>
      <point x="293" y="256"/>
      <point x="279" y="256" type="qcurve"/>
      <point x="262" y="247"/>
      <point x="245" y="272" type="qcurve"/>
      <point x="232" y="295"/>
      <point x="243" y="319"/>
      <point x="256" y="323" type="qcurve"/>
      <point x="269" y="326" type="line"/>
      <point x="285" y="331"/>
      <point x="339" y="344" type="qcurve"/>
      <point x="391" y="356"/>
      <point x="431" y="366" type="qcurve"/>
      <point x="444" y="370"/>
    </contour>
    <contour>
      <point x="491" y="377" type="qcurve"/>
      <point x="519" y="372"/>
      <point x="531" y="348" type="qcurve"/>
      <point x="538" y="335"/>
      <point x="553" y="276" type="qcurve"/>
      <point x="569" y="218"/>
      <point x="576" y="142" type="qcurve"/>
      <point x="582" y="71"/>
      <point x="591" y="31" type="qcurve"/>
      <point x="597" y="2"/>
      <point x="601" y="-7" type="qcurve"/>
      <point x="603" y="-12" type="line"/>
      <point x="611" y="-23"/>
      <point x="605" y="-50"/>
      <point x="582" y="-65"/>
      <point x="555" y="-59"/>
      <point x="548" y="-48" type="qcurve"/>
      <point x="544" y="-42" type="line"/>
      <point x="540" y="-36"/>
      <point x="535" y="-22"/>
      <point x="533" y="-15"/>
      <point x="528" y="12"/>
      <point x="526" y="17" type="qcurve"/>
      <point x="517" y="61"/>
      <point x="510" y="136" type="qcurve"/>
      <point x="504" y="206"/>
      <point x="490" y="259" type="qcurve"/>
      <point x="481" y="293"/>
      <point x="476" y="309" type="qcurve"/>
      <point x="464" y="307"/>
      <point x="447" y="302" type="qcurve"/>
      <point x="425" y="297"/>
      <point x="398" y="290" type="qcurve"/>
      <point x="426" y="275"/>
      <point x="450" y="251" type="qcurve"/>
      <point x="497" y="204"/>
      <point x="493" y="112"/>
      <point x="436" y="63" type="qcurve"/>
      <point x="378" y="15"/>
      <point x="313" y="25" type="qcurve"/>
      <point x="253" y="34"/>
      <point x="199" y="81" type="qcurve"/>
      <point x="149" y="125"/>
      <point x="109" y="187" type="qcurve"/>
      <point x="69" y="251"/>
      <point x="56" y="319" type="qcurve"/>
      <point x="43" y="389"/>
      <point x="58" y="433" type="qcurve"/>
      <point x="71" y="476"/>
      <point x="117" y="530" type="qcurve"/>
      <point x="164" y="587"/>
      <point x="253" y="613" type="qcurve"/>
      <point x="346" y="640"/>
      <point x="395" y="613" type="qcurve"/>
      <point x="441" y="587"/>
      <point x="466" y="535" type="qcurve"/>
      <point x="489" y="489"/>
      <point x="496" y="453" type="qcurve"/>
      <point x="502" y="419"/>
      <point x="502" y="408" type="qcurve"/>
      <point x="502" y="401" type="line"/>
      <point x="502" y="387"/>
    </contour>
  </outline>
</glyph>
<glyph name="H" format="1">
  <advance width="589"/>
  <unicode hex="0048"/>
  <outline>
    <contour>
      <point x="73" y="285" type="qcurve"/>
      <point x="82" y="288" type="line"/>
      <point x="83" y="288"/>
      <point x="85" y="288" type="qcurve"/>
      <point x="69" y="405"/>
      <point x="65" y="481" type="qcurve"/>
      <point x="61" y="558"/>
      <point x="61" y="570" type="qcurve"/>
      <point x="60" y="582" type="line"/>
      <point x="60" y="596"/>
      <point x="78" y="616"/>
      <point x="105" y="617"/>
      <point x="126" y="598"/>
      <point x="126" y="585" type="qcurve"/>
      <point x="127" y="573" type="line"/>
      <point x="127" y="561"/>
      <point x="131" y="485" type="qcurve"/>
      <point x="135" y="416"/>
      <point x="148" y="310" type="qcurve"/>
      <point x="162" y="314"/>
      <point x="181" y="321" type="qcurve"/>
      <point x="273" y="352"/>
      <point x="354" y="366" type="qcurve"/>
      <point x="386" y="372"/>
      <point x="409" y="376" type="qcurve"/>
      <point x="410" y="428"/>
      <point x="416" y="479" type="qcurve"/>
      <point x="424" y="539" type="line"/>
      <point x="425" y="553"/>
      <point x="447" y="570"/>
      <point x="474" y="566"/>
      <point x="491" y="545"/>
      <point x="489" y="531" type="qcurve"/>
      <point x="482" y="471" type="line"/>
      <point x="476" y="427"/>
      <point x="475" y="382" type="qcurve"/>
      <point x="505" y="383" type="line"/>
      <point x="518" y="384"/>
      <point x="539" y="365"/>
      <point x="540" y="338"/>
      <point x="521" y="318"/>
      <point x="508" y="318" type="qcurve"/>
      <point x="475" y="316" type="line"/>
      <point x="476" y="265"/>
      <point x="477" y="196" type="qcurve"/>
      <point x="479" y="99"/>
      <point x="480" y="66" type="qcurve"/>
      <point x="481" y="32" type="line"/>
      <point x="482" y="19"/>
      <point x="463" y="-2"/>
      <point x="436" y="-3"/>
      <point x="416" y="16"/>
      <point x="415" y="30" type="qcurve"/>
      <point x="414" y="63" type="line"/>
      <point x="413" y="98"/>
      <point x="411" y="195" type="qcurve"/>
      <point x="410" y="260"/>
      <point x="409" y="309" type="qcurve"/>
      <point x="389" y="306"/>
      <point x="366" y="301" type="qcurve"/>
      <point x="290" y="288"/>
      <point x="202" y="258" type="qcurve"/>
      <point x="174" y="249"/>
      <point x="157" y="243" type="qcurve"/>
      <point x="170" y="157"/>
      <point x="182" y="102" type="qcurve"/>
      <point x="198" y="30"/>
      <point x="202" y="14" type="qcurve"/>
      <point x="207" y="-2" type="line"/>
      <point x="210" y="-16"/>
      <point x="196" y="-39"/>
      <point x="170" y="-46"/>
      <point x="146" y="-32"/>
      <point x="143" y="-19" type="qcurve"/>
      <point x="139" y="-3" type="line"/>
      <point x="134" y="15"/>
      <point x="118" y="87" type="qcurve"/>
      <point x="106" y="142"/>
      <point x="94" y="222" type="qcurve"/>
      <point x="93" y="222" type="line"/>
      <point x="80" y="218"/>
      <point x="56" y="230"/>
      <point x="47" y="256"/>
      <point x="60" y="280"/>
    </contour>
  </outline>
</glyph>
<glyph name="I" format="1">
  <advance width="195"/>
  <unicode hex="0049"/>
  <outline>
    <contour>
      <point x="118" y="594" type="qcurve"/>
      <point x="117" y="589" type="line"/>
      <point x="116" y="577"/>
      <point x="119" y="529" type="qcurve"/>
      <point x="122" y="470"/>
      <point x="127" y="380" type="qcurve"/>
      <point x="132" y="289"/>
      <point x="136" y="174" type="qcurve"/>
      <point x="139" y="62"/>
      <point x="142" y="41" type="qcurve"/>
      <point x="145" y="19" type="line"/>
      <point x="147" y="6"/>
      <point x="130" y="-16"/>
      <point x="103" y="-20"/>
      <point x="81" y="-3"/>
      <point x="80" y="10" type="qcurve"/>
      <point x="77" y="32" type="line"/>
      <point x="73" y="56"/>
      <point x="70" y="172" type="qcurve"/>
      <point x="66" y="286"/>
      <point x="61" y="376" type="qcurve"/>
      <point x="56" y="467"/>
      <point x="53" y="526" type="qcurve"/>
      <point x="49" y="589"/>
      <point x="52" y="600" type="qcurve"/>
      <point x="53" y="607" type="line"/>
      <point x="56" y="620"/>
      <point x="78" y="636"/>
      <point x="105" y="630"/>
      <point x="120" y="608"/>
    </contour>
  </outline>
</glyph>
<glyph name="J" format="1">
  <advance width="526"/>
  <unicode hex="004A"/>
  <outline>
    <contour>
      <point x="464" y="583" type="qcurve"/>
      <point x="464" y="559" type="line"/>
      <point x="464" y="537"/>
      <point x="468" y="478" type="qcurve"/>
      <point x="472" y="417"/>
      <point x="475" y="328" type="qcurve"/>
      <point x="479" y="237"/>
      <point x="471" y="186" type="qcurve"/>
      <point x="462" y="132"/>
      <point x="437" y="92" type="qcurve"/>
      <point x="410" y="50"/>
      <point x="363" y="26" type="qcurve"/>
      <point x="315" y="3"/>
      <point x="270" y="5" type="qcurve"/>
      <point x="228" y="8"/>
      <point x="189" y="24" type="qcurve"/>
      <point x="148" y="41"/>
      <point x="110" y="82" type="qcurve"/>
      <point x="73" y="121"/>
      <point x="62" y="146" type="qcurve"/>
      <point x="53" y="166" type="line"/>
      <point x="47" y="178"/>
      <point x="57" y="204"/>
      <point x="82" y="215"/>
      <point x="107" y="206"/>
      <point x="113" y="193" type="qcurve"/>
      <point x="122" y="173" type="line"/>
      <point x="129" y="159"/>
      <point x="158" y="127" type="qcurve"/>
      <point x="187" y="97"/>
      <point x="214" y="85" type="qcurve"/>
      <point x="243" y="73"/>
      <point x="274" y="71" type="qcurve"/>
      <point x="302" y="70"/>
      <point x="333" y="85" type="qcurve"/>
      <point x="364" y="101"/>
      <point x="381" y="127" type="qcurve"/>
      <point x="399" y="156"/>
      <point x="405" y="196" type="qcurve"/>
      <point x="412" y="240"/>
      <point x="409" y="326" type="qcurve"/>
      <point x="406" y="414"/>
      <point x="402" y="474" type="qcurve"/>
      <point x="398" y="535"/>
      <point x="398" y="560" type="qcurve"/>
      <point x="398" y="584" type="line"/>
      <point x="398" y="597"/>
      <point x="418" y="617"/>
      <point x="445" y="616"/>
      <point x="464" y="597"/>
    </contour>
  </outline>
</glyph>
<glyph name="K" format="1">
  <advance width="589"/>
  <unicode hex="004B"/>
  <outline>
    <contour>
      <point x="432" y="608" type="qcurve"/>
      <point x="389" y="557" type="line"/>
      <point x="346" y="508"/>
      <point x="311" y="461" type="qcurve"/>
      <point x="275" y="412"/>
      <point x="230" y="363" type="qcurve"/>
      <point x="193" y="321"/>
      <point x="165" y="297" type="qcurve"/>
      <point x="180" y="289"/>
      <point x="200" y="278" type="qcurve"/>
      <point x="254" y="248"/>
      <point x="304" y="211" type="qcurve"/>
      <point x="353" y="175"/>
      <point x="394" y="144" type="qcurve"/>
      <point x="434" y="114"/>
      <point x="451" y="103" type="qcurve"/>
      <point x="469" y="91"/>
      <point x="497" y="71"/>
      <point x="506" y="64" type="qcurve"/>
      <point x="515" y="57"/>
      <point x="523" y="50" type="qcurve"/>
      <point x="529" y="44" type="line"/>
      <point x="539" y="35"/>
      <point x="540" y="8"/>
      <point x="522" y="-12"/>
      <point x="494" y="-13"/>
      <point x="484" y="-4" type="qcurve"/>
      <point x="478" y="1" type="line"/>
      <point x="473" y="6"/>
      <point x="466" y="12" type="qcurve"/>
      <point x="458" y="18"/>
      <point x="431" y="37"/>
      <point x="414" y="48" type="qcurve"/>
      <point x="396" y="60"/>
      <point x="354" y="91" type="qcurve"/>
      <point x="313" y="122"/>
      <point x="265" y="158" type="qcurve"/>
      <point x="218" y="192"/>
      <point x="168" y="220" type="qcurve"/>
      <point x="138" y="236"/>
      <point x="120" y="246" type="qcurve"/>
      <point x="119" y="233"/>
      <point x="119" y="223" type="qcurve"/>
      <point x="115" y="145"/>
      <point x="116" y="106" type="qcurve"/>
      <point x="117" y="66" type="line"/>
      <point x="118" y="53"/>
      <point x="98" y="33"/>
      <point x="72" y="32"/>
      <point x="52" y="51"/>
      <point x="51" y="64" type="qcurve"/>
      <point x="50" y="105" type="line"/>
      <point x="49" y="146"/>
      <point x="53" y="226" type="qcurve"/>
      <point x="57" y="305"/>
      <point x="62" y="402" type="qcurve"/>
      <point x="68" y="498"/>
      <point x="70" y="554" type="qcurve"/>
      <point x="72" y="613"/>
      <point x="74" y="625" type="qcurve"/>
      <point x="76" y="633" type="line"/>
      <point x="79" y="646"/>
      <point x="103" y="660"/>
      <point x="129" y="654"/>
      <point x="144" y="631"/>
      <point x="141" y="618" type="qcurve"/>
      <point x="139" y="610" type="line"/>
      <point x="137" y="600"/>
      <point x="136" y="552" type="qcurve"/>
      <point x="134" y="495"/>
      <point x="128" y="398" type="qcurve"/>
      <point x="127" y="374"/>
      <point x="125" y="350" type="qcurve"/>
      <point x="149" y="371"/>
      <point x="181" y="407" type="qcurve"/>
      <point x="224" y="454"/>
      <point x="259" y="501" type="qcurve"/>
      <point x="295" y="549"/>
      <point x="339" y="600" type="qcurve"/>
      <point x="382" y="651" type="line"/>
      <point x="391" y="661"/>
      <point x="418" y="663"/>
      <point x="439" y="646"/>
      <point x="441" y="618"/>
    </contour>
  </outline>
</glyph>
<glyph name="L" format="1">
  <advance width="568"/>
  <unicode hex="004C"/>
  <outline>
    <contour>
      <point x="131" y="611" type="qcurve"/>
      <point x="128" y="597" type="line"/>
      <point x="126" y="586"/>
      <point x="123" y="534" type="qcurve"/>
      <point x="120" y="479"/>
      <point x="118" y="387" type="qcurve"/>
      <point x="115" y="295"/>
      <point x="117" y="218" type="qcurve"/>
      <point x="119" y="142"/>
      <point x="124" y="107" type="qcurve"/>
      <point x="129" y="81"/>
      <point x="141" y="68" type="qcurve"/>
      <point x="154" y="55"/>
      <point x="191" y="46" type="qcurve"/>
      <point x="232" y="36"/>
      <point x="305" y="42" type="qcurve"/>
      <point x="380" y="49"/>
      <point x="421" y="59" type="qcurve"/>
      <point x="467" y="70"/>
      <point x="477" y="70" type="qcurve"/>
      <point x="484" y="70" type="line"/>
      <point x="498" y="71"/>
      <point x="518" y="52"/>
      <point x="519" y="25"/>
      <point x="500" y="5"/>
      <point x="486" y="4" type="qcurve"/>
      <point x="480" y="4" type="line"/>
      <point x="471" y="3"/>
      <point x="436" y="-6" type="qcurve"/>
      <point x="391" y="-17"/>
      <point x="311" y="-24" type="qcurve"/>
      <point x="227" y="-31"/>
      <point x="175" y="-18" type="qcurve"/>
      <point x="120" y="-5"/>
      <point x="94" y="22" type="qcurve"/>
      <point x="67" y="49"/>
      <point x="59" y="96" type="qcurve"/>
      <point x="53" y="137"/>
      <point x="51" y="216" type="qcurve"/>
      <point x="49" y="295"/>
      <point x="52" y="389" type="qcurve"/>
      <point x="54" y="482"/>
      <point x="57" y="537" type="qcurve"/>
      <point x="60" y="595"/>
      <point x="64" y="612" type="qcurve"/>
      <point x="67" y="625" type="line"/>
      <point x="70" y="638"/>
      <point x="94" y="653"/>
      <point x="120" y="647"/>
      <point x="134" y="624"/>
    </contour>
  </outline>
</glyph>
<glyph name="M" format="1">
  <advance width="752"/>
  <unicode hex="004D"/>
  <outline>
    <contour>
      <point x="56" y="45" type="qcurve"/>
      <point x="53" y="77" type="line"/>
      <point x="51" y="110"/>
      <point x="50" y="187" type="qcurve"/>
      <point x="50" y="264"/>
      <point x="51" y="330" type="qcurve"/>
      <point x="53" y="395"/>
      <point x="55" y="470" type="qcurve"/>
      <point x="57" y="546"/>
      <point x="60" y="584" type="qcurve"/>
      <point x="62" y="620"/>
      <point x="62" y="625" type="qcurve"/>
      <point x="62" y="643"/>
      <point x="77" y="659"/>
      <point x="99" y="654"/>
      <point x="120" y="645"/>
      <point x="128" y="639" type="qcurve"/>
      <point x="135" y="634" type="line"/>
      <point x="149" y="616"/>
      <point x="172" y="584" type="qcurve"/>
      <point x="196" y="551"/>
      <point x="226" y="504" type="qcurve"/>
      <point x="254" y="458"/>
      <point x="280" y="414" type="qcurve"/>
      <point x="304" y="370"/>
      <point x="334" y="323" type="qcurve"/>
      <point x="365" y="274"/>
      <point x="384" y="236" type="qcurve"/>
      <point x="395" y="213"/>
      <point x="405" y="197" type="qcurve"/>
      <point x="407" y="204"/>
      <point x="409" y="211" type="qcurve"/>
      <point x="430" y="284"/>
      <point x="458" y="352" type="qcurve"/>
      <point x="486" y="420"/>
      <point x="521" y="488" type="qcurve"/>
      <point x="555" y="556"/>
      <point x="580" y="605" type="qcurve"/>
      <point x="580" y="605"/>
      <point x="590" y="628"/>
      <point x="596" y="637"/>
      <point x="615" y="649"/>
      <point x="627" y="650" type="qcurve"/>
      <point x="648" y="651"/>
      <point x="669" y="626"/>
      <point x="669" y="613" type="qcurve"/>
      <point x="668" y="600" type="line"/>
      <point x="669" y="559"/>
      <point x="667" y="505" type="qcurve"/>
      <point x="666" y="454"/>
      <point x="670" y="400" type="qcurve"/>
      <point x="674" y="344"/>
      <point x="679" y="255" type="qcurve"/>
      <point x="684" y="167"/>
      <point x="690" y="126" type="qcurve"/>
      <point x="695" y="85"/>
      <point x="697" y="71" type="qcurve"/>
      <point x="699" y="56"/>
      <point x="700" y="43" type="qcurve"/>
      <point x="700" y="33"/>
      <point x="701" y="19" type="qcurve"/>
      <point x="703" y="4" type="line"/>
      <point x="704" y="-9"/>
      <point x="686" y="-30"/>
      <point x="659" y="-32"/>
      <point x="638" y="-15"/>
      <point x="637" y="-1" type="qcurve"/>
      <point x="636" y="14" type="line"/>
      <point x="634" y="29"/>
      <point x="634" y="41" type="qcurve"/>
      <point x="633" y="50"/>
      <point x="632" y="62" type="qcurve"/>
      <point x="629" y="76"/>
      <point x="624" y="118" type="qcurve"/>
      <point x="619" y="161"/>
      <point x="613" y="251" type="qcurve"/>
      <point x="608" y="340"/>
      <point x="604" y="396" type="qcurve"/>
      <point x="600" y="449"/>
      <point x="601" y="501" type="qcurve"/>
      <point x="590" y="479"/>
      <point x="579" y="458" type="qcurve"/>
      <point x="546" y="392"/>
      <point x="519" y="327" type="qcurve"/>
      <point x="492" y="262"/>
      <point x="472" y="193" type="qcurve"/>
      <point x="451" y="119"/>
      <point x="447" y="110" type="qcurve"/>
      <point x="443" y="101"/>
      <point x="416" y="83"/>
      <point x="399" y="91" type="qcurve"/>
      <point x="395" y="93"/>
      <point x="388" y="98"/>
      <point x="383" y="103"/>
      <point x="381" y="106"/>
      <point x="378" y="113"/>
      <point x="378" y="113" type="qcurve"/>
      <point x="372" y="125"/>
      <point x="359" y="145" type="qcurve"/>
      <point x="344" y="168"/>
      <point x="325" y="207" type="qcurve"/>
      <point x="308" y="242"/>
      <point x="278" y="288" type="qcurve"/>
      <point x="247" y="336"/>
      <point x="222" y="381" type="qcurve"/>
      <point x="198" y="424"/>
      <point x="169" y="470" type="qcurve"/>
      <point x="144" y="510"/>
      <point x="123" y="540" type="qcurve"/>
      <point x="122" y="509"/>
      <point x="121" y="468" type="qcurve"/>
      <point x="119" y="392"/>
      <point x="117" y="328" type="qcurve"/>
      <point x="116" y="263"/>
      <point x="116" y="188" type="qcurve"/>
      <point x="117" y="113"/>
      <point x="119" y="83" type="qcurve"/>
      <point x="122" y="51" type="line"/>
      <point x="123" y="37"/>
      <point x="105" y="16"/>
      <point x="78" y="14"/>
      <point x="57" y="32"/>
    </contour>
  </outline>
</glyph>
<glyph name="N" format="1">
  <advance width="605"/>
  <unicode hex="004E"/>
  <outline>
    <contour>
      <point x="118" y="516" type="qcurve"/>
      <point x="117" y="471"/>
      <point x="116" y="401" type="qcurve"/>
      <point x="115" y="306"/>
      <point x="120" y="195" type="qcurve"/>
      <point x="126" y="82"/>
      <point x="126" y="54" type="qcurve"/>
      <point x="126" y="27"/>
      <point x="127" y="21" type="qcurve"/>
      <point x="128" y="14" type="line"/>
      <point x="129" y="1"/>
      <point x="112" y="-20"/>
      <point x="85" y="-23"/>
      <point x="63" y="-6"/>
      <point x="62" y="8" type="qcurve"/>
      <point x="61" y="15" type="line"/>
      <point x="60" y="23"/>
      <point x="60" y="53" type="qcurve"/>
      <point x="60" y="80"/>
      <point x="54" y="192" type="qcurve"/>
      <point x="49" y="305"/>
      <point x="50" y="401" type="qcurve"/>
      <point x="51" y="497"/>
      <point x="52" y="546" type="qcurve"/>
      <point x="54" y="595" type="line"/>
      <point x="54" y="608"/>
      <point x="74" y="627"/>
      <point x="88" y="627" type="qcurve"/>
      <point x="96" y="627"/>
      <point x="104" y="622" type="qcurve"/>
      <point x="126" y="627"/>
      <point x="138" y="608" type="qcurve"/>
      <point x="163" y="568" type="line"/>
      <point x="187" y="529"/>
      <point x="289" y="364"/>
      <point x="331" y="296" type="qcurve"/>
      <point x="371" y="228"/>
      <point x="409" y="174" type="qcurve"/>
      <point x="446" y="121"/>
      <point x="469" y="93" type="qcurve"/>
      <point x="472" y="133"/>
      <point x="475" y="187" type="qcurve"/>
      <point x="480" y="258"/>
      <point x="481" y="337" type="qcurve"/>
      <point x="483" y="416"/>
      <point x="486" y="475" type="qcurve"/>
      <point x="489" y="533"/>
      <point x="489" y="575" type="qcurve"/>
      <point x="490" y="616"/>
      <point x="489" y="623" type="qcurve"/>
      <point x="488" y="632" type="line"/>
      <point x="488" y="645"/>
      <point x="506" y="666"/>
      <point x="532" y="668"/>
      <point x="553" y="650"/>
      <point x="554" y="636" type="qcurve"/>
      <point x="555" y="628" type="line"/>
      <point x="556" y="618"/>
      <point x="555" y="574" type="qcurve"/>
      <point x="555" y="531"/>
      <point x="552" y="472" type="qcurve"/>
      <point x="549" y="414"/>
      <point x="547" y="335" type="qcurve"/>
      <point x="545" y="255"/>
      <point x="541" y="183" type="qcurve"/>
      <point x="537" y="111"/>
      <point x="533" y="64" type="qcurve"/>
      <point x="528" y="16"/>
      <point x="527" y="8" type="qcurve"/>
      <point x="524" y="-6"/>
      <point x="504" y="-17"/>
      <point x="481" y="-12"/>
      <point x="461" y="-3"/>
      <point x="458" y="4"/>
      <point x="452" y="11" type="qcurve"/>
      <point x="442" y="22"/>
      <point x="418" y="51" type="qcurve"/>
      <point x="394" y="80"/>
      <point x="316" y="192"/>
      <point x="274" y="261" type="qcurve"/>
      <point x="233" y="330"/>
      <point x="182" y="412" type="qcurve"/>
      <point x="142" y="477"/>
    </contour>
  </outline>
</glyph>
<glyph name="O" format="1">
  <advance width="613"/>
  <unicode hex="004F"/>
  <outline>
    <contour>
      <point x="260" y="566" type="qcurve"/>
      <point x="248" y="561"/>
      <point x="237" y="554" type="qcurve"/>
      <point x="203" y="535"/>
      <point x="165" y="480" type="qcurve"/>
      <point x="127" y="424"/>
      <point x="118" y="376" type="qcurve"/>
      <point x="110" y="329"/>
      <point x="130" y="274" type="qcurve"/>
      <point x="152" y="214"/>
      <point x="189" y="163" type="qcurve"/>
      <point x="226" y="114"/>
      <point x="265" y="89" type="qcurve"/>
      <point x="302" y="66"/>
      <point x="335" y="66" type="qcurve"/>
      <point x="368" y="67"/>
      <point x="396" y="87" type="qcurve"/>
      <point x="429" y="110"/>
      <point x="451" y="144" type="qcurve"/>
      <point x="474" y="177"/>
      <point x="486" y="237" type="qcurve"/>
      <point x="499" y="300"/>
      <point x="497" y="345" type="qcurve"/>
      <point x="495" y="390"/>
      <point x="478" y="448" type="qcurve"/>
      <point x="461" y="504"/>
      <point x="438" y="530" type="qcurve"/>
      <point x="418" y="552"/>
      <point x="358" y="553" type="qcurve"/>
      <point x="283" y="555" type="line"/>
      <point x="270" y="556"/>
    </contour>
    <contour>
      <point x="477" y="584" type="qcurve"/>
      <point x="482" y="579"/>
      <point x="487" y="574" type="qcurve"/>
      <point x="521" y="537"/>
      <point x="541" y="467" type="qcurve"/>
      <point x="561" y="400"/>
      <point x="563" y="347" type="qcurve"/>
      <point x="565" y="294"/>
      <point x="551" y="224" type="qcurve"/>
      <point x="536" y="151"/>
      <point x="506" y="107" type="qcurve"/>
      <point x="477" y="63"/>
      <point x="435" y="33" type="qcurve"/>
      <point x="389" y="1"/>
      <point x="336" y="0" type="qcurve"/>
      <point x="284" y="0"/>
      <point x="230" y="33" type="qcurve"/>
      <point x="180" y="65"/>
      <point x="136" y="124" type="qcurve"/>
      <point x="93" y="183"/>
      <point x="68" y="251" type="qcurve"/>
      <point x="42" y="323"/>
      <point x="53" y="387" type="qcurve"/>
      <point x="64" y="450"/>
      <point x="111" y="517" type="qcurve"/>
      <point x="157" y="585"/>
      <point x="204" y="612" type="qcurve"/>
      <point x="251" y="638"/>
      <point x="304" y="645" type="qcurve"/>
      <point x="337" y="649"/>
      <point x="365" y="648" type="qcurve"/>
      <point x="380" y="648"/>
      <point x="393" y="646" type="qcurve"/>
      <point x="430" y="642"/>
      <point x="445" y="638" type="qcurve"/>
      <point x="458" y="635" type="line"/>
      <point x="471" y="632"/>
      <point x="486" y="608"/>
      <point x="482" y="595" type="qcurve"/>
      <point x="481" y="589"/>
    </contour>
  </outline>
</glyph>
<glyph name="P" format="1">
  <advance width="583"/>
  <unicode hex="0050"/>
  <outline>
    <contour>
      <point x="62" y="256" type="qcurve"/>
      <point x="54" y="267"/>
      <point x="55" y="280" type="qcurve"/>
      <point x="56" y="286"/>
      <point x="59" y="291" type="qcurve"/>
      <point x="54" y="346"/>
      <point x="52" y="397" type="qcurve"/>
      <point x="48" y="474"/>
      <point x="53" y="544" type="qcurve"/>
      <point x="58" y="611" type="line"/>
      <point x="60" y="625"/>
      <point x="81" y="643"/>
      <point x="94" y="642" type="qcurve"/>
      <point x="105" y="641"/>
      <point x="121" y="627"/>
      <point x="123" y="617" type="qcurve"/>
      <point x="155" y="637"/>
      <point x="208" y="649" type="qcurve"/>
      <point x="263" y="662"/>
      <point x="320" y="656" type="qcurve"/>
      <point x="379" y="649"/>
      <point x="423" y="619" type="qcurve"/>
      <point x="465" y="591"/>
      <point x="491" y="557" type="qcurve"/>
      <point x="517" y="523"/>
      <point x="528" y="478" type="qcurve"/>
      <point x="540" y="431"/>
      <point x="527" y="393" type="qcurve"/>
      <point x="515" y="357"/>
      <point x="483" y="324" type="qcurve"/>
      <point x="452" y="290"/>
      <point x="409" y="271" type="qcurve"/>
      <point x="368" y="253"/>
      <point x="324" y="247" type="qcurve"/>
      <point x="283" y="241"/>
      <point x="234" y="239" type="qcurve"/>
      <point x="186" y="237"/>
      <point x="150" y="238" type="qcurve"/>
      <point x="138" y="239"/>
      <point x="130" y="239" type="qcurve"/>
      <point x="138" y="162"/>
      <point x="145" y="102" type="qcurve"/>
      <point x="153" y="40"/>
      <point x="157" y="21" type="qcurve"/>
      <point x="162" y="-1" type="line"/>
      <point x="164" y="-14"/>
      <point x="150" y="-37"/>
      <point x="123" y="-43"/>
      <point x="100" y="-28"/>
      <point x="97" y="-15" type="qcurve"/>
      <point x="92" y="6" type="line"/>
      <point x="87" y="29"/>
      <point x="80" y="94" type="qcurve"/>
      <point x="72" y="157"/>
      <point x="64" y="239" type="qcurve"/>
      <point x="63" y="248"/>
    </contour>
    <contour>
      <point x="124" y="306" type="qcurve"/>
      <point x="137" y="305"/>
      <point x="153" y="304" type="qcurve"/>
      <point x="185" y="303"/>
      <point x="277" y="307"/>
      <point x="315" y="312" type="qcurve"/>
      <point x="349" y="317"/>
      <point x="382" y="332" type="qcurve"/>
      <point x="413" y="345"/>
      <point x="435" y="369" type="qcurve"/>
      <point x="457" y="392"/>
      <point x="464" y="414" type="qcurve"/>
      <point x="471" y="434"/>
      <point x="464" y="462" type="qcurve"/>
      <point x="457" y="494"/>
      <point x="438" y="518" type="qcurve"/>
      <point x="419" y="543"/>
      <point x="386" y="564" type="qcurve"/>
      <point x="356" y="585"/>
      <point x="312" y="590" type="qcurve"/>
      <point x="267" y="595"/>
      <point x="223" y="585" type="qcurve"/>
      <point x="180" y="575"/>
      <point x="157" y="559" type="qcurve"/>
      <point x="133" y="543"/>
      <point x="128" y="538" type="qcurve"/>
      <point x="122" y="531" type="line"/>
      <point x="120" y="529"/>
      <point x="118" y="528" type="qcurve"/>
      <point x="114" y="467"/>
      <point x="118" y="400" type="qcurve"/>
      <point x="120" y="355"/>
    </contour>
  </outline>
</glyph>
<glyph name="Q" format="1">
  <advance width="696"/>
  <unicode hex="0051"/>
  <outline>
    <contour>
      <point x="475" y="151" type="qcurve"/>
      <point x="480" y="141" type="line"/>
      <point x="483" y="136"/>
      <point x="501" y="114" type="qcurve"/>
      <point x="506" y="128"/>
      <point x="511" y="144" type="qcurve"/>
      <point x="528" y="193"/>
      <point x="532" y="243" type="qcurve"/>
      <point x="536" y="295"/>
      <point x="533" y="348" type="qcurve"/>
      <point x="531" y="401"/>
      <point x="522" y="445" type="qcurve"/>
      <point x="513" y="485"/>
      <point x="462" y="552"/>
      <point x="429" y="569" type="qcurve"/>
      <point x="416" y="576"/>
      <point x="404" y="580" type="qcurve"/>
      <point x="401" y="581"/>
      <point x="399" y="582" type="qcurve"/>
      <point x="383" y="581" type="line"/>
      <point x="374" y="580"/>
      <point x="365" y="579" type="qcurve"/>
      <point x="338" y="576"/>
      <point x="311" y="572" type="qcurve"/>
      <point x="280" y="567"/>
      <point x="232" y="539" type="qcurve"/>
      <point x="186" y="512"/>
      <point x="160" y="470" type="qcurve"/>
      <point x="133" y="426"/>
      <point x="121" y="366" type="qcurve"/>
      <point x="110" y="308"/>
      <point x="123" y="242" type="qcurve"/>
      <point x="137" y="173"/>
      <point x="158" y="129" type="qcurve"/>
      <point x="179" y="86"/>
      <point x="208" y="57" type="qcurve"/>
      <point x="236" y="30"/>
      <point x="274" y="18" type="qcurve"/>
      <point x="315" y="6"/>
      <point x="359" y="7" type="qcurve"/>
      <point x="400" y="8"/>
      <point x="426" y="22" type="qcurve"/>
      <point x="447" y="35"/>
      <point x="465" y="54" type="qcurve"/>
      <point x="429" y="97"/>
      <point x="422" y="110" type="qcurve"/>
      <point x="416" y="120" type="line"/>
      <point x="410" y="132"/>
      <point x="418" y="158"/>
      <point x="442" y="171"/>
      <point x="468" y="163"/>
    </contour>
    <contour>
      <point x="309" y="639" type="qcurve"/>
      <point x="320" y="656"/>
      <point x="339" y="655" type="qcurve"/>
      <point x="373" y="653" type="line"/>
      <point x="388" y="653"/>
      <point x="405" y="648" type="qcurve"/>
      <point x="415" y="649" type="line"/>
      <point x="434" y="651"/>
      <point x="445" y="634" type="qcurve"/>
      <point x="453" y="631"/>
      <point x="460" y="627" type="qcurve"/>
      <point x="506" y="603"/>
      <point x="575" y="513"/>
      <point x="586" y="459" type="qcurve"/>
      <point x="597" y="409"/>
      <point x="599" y="351" type="qcurve"/>
      <point x="602" y="293"/>
      <point x="597" y="238" type="qcurve"/>
      <point x="593" y="180"/>
      <point x="574" y="123" type="qcurve"/>
      <point x="562" y="86"/>
      <point x="547" y="58" type="qcurve"/>
      <point x="565" y="37"/>
      <point x="583" y="16" type="qcurve"/>
      <point x="617" y="-25"/>
      <point x="628" y="-39" type="qcurve"/>
      <point x="639" y="-52" type="line"/>
      <point x="647" y="-63"/>
      <point x="645" y="-90"/>
      <point x="624" y="-107"/>
      <point x="596" y="-104"/>
      <point x="588" y="-94" type="qcurve"/>
      <point x="577" y="-80" type="line"/>
      <point x="566" y="-67"/>
      <point x="532" y="-27" type="qcurve"/>
      <point x="520" y="-12"/>
      <point x="507" y="3" type="qcurve"/>
      <point x="485" y="-20"/>
      <point x="458" y="-35" type="qcurve"/>
      <point x="418" y="-58"/>
      <point x="360" y="-59" type="qcurve"/>
      <point x="305" y="-60"/>
      <point x="255" y="-45" type="qcurve"/>
      <point x="201" y="-28"/>
      <point x="162" y="10" type="qcurve"/>
      <point x="124" y="47"/>
      <point x="99" y="100" type="qcurve"/>
      <point x="74" y="152"/>
      <point x="58" y="229" type="qcurve"/>
      <point x="43" y="307"/>
      <point x="57" y="379" type="qcurve"/>
      <point x="70" y="450"/>
      <point x="104" y="505" type="qcurve"/>
      <point x="139" y="561"/>
      <point x="199" y="596" type="qcurve"/>
      <point x="257" y="630"/>
      <point x="301" y="637" type="qcurve"/>
      <point x="305" y="638"/>
    </contour>
  </outline>
</glyph>
<glyph name="R" format="1">
  <advance width="605"/>
  <unicode hex="0052"/>
  <outline>
    <contour>
      <point x="122" y="297" type="qcurve"/>
      <point x="123" y="268"/>
      <point x="124" y="240" type="qcurve"/>
      <point x="127" y="167"/>
      <point x="130" y="103" type="qcurve"/>
      <point x="133" y="41"/>
      <point x="135" y="25" type="qcurve"/>
      <point x="136" y="9" type="line"/>
      <point x="138" y="-5"/>
      <point x="121" y="-26"/>
      <point x="94" y="-29"/>
      <point x="72" y="-12"/>
      <point x="71" y="1" type="qcurve"/>
      <point x="69" y="18" type="line"/>
      <point x="67" y="36"/>
      <point x="64" y="100" type="qcurve"/>
      <point x="61" y="164"/>
      <point x="55" y="311"/>
      <point x="52" y="406" type="qcurve"/>
      <point x="49" y="501"/>
      <point x="51" y="550" type="qcurve"/>
      <point x="53" y="597" type="line"/>
      <point x="53" y="611"/>
      <point x="74" y="629"/>
      <point x="87" y="629" type="qcurve"/>
      <point x="107" y="628"/>
      <point x="116" y="610" type="qcurve"/>
      <point x="129" y="617"/>
      <point x="164" y="633" type="qcurve"/>
      <point x="223" y="659"/>
      <point x="270" y="657" type="qcurve"/>
      <point x="317" y="654"/>
      <point x="368" y="622" type="qcurve"/>
      <point x="423" y="587"/>
      <point x="442" y="527" type="qcurve"/>
      <point x="462" y="467"/>
      <point x="443" y="419" type="qcurve"/>
      <point x="426" y="372"/>
      <point x="370" y="329" type="qcurve"/>
      <point x="338" y="305"/>
      <point x="307" y="291" type="qcurve"/>
      <point x="348" y="270"/>
      <point x="382" y="244" type="qcurve"/>
      <point x="424" y="212"/>
      <point x="466" y="162" type="qcurve"/>
      <point x="507" y="114"/>
      <point x="520" y="91" type="qcurve"/>
      <point x="532" y="71"/>
      <point x="541" y="53" type="qcurve"/>
      <point x="554" y="30"/>
      <point x="555" y="16" type="qcurve"/>
      <point x="556" y="9" type="line"/>
      <point x="556" y="-4"/>
      <point x="538" y="-25"/>
      <point x="511" y="-26"/>
      <point x="491" y="-8"/>
      <point x="490" y="5" type="qcurve"/>
      <point x="489" y="9" type="line"/>
      <point x="488" y="14"/>
      <point x="483" y="22" type="qcurve"/>
      <point x="474" y="39"/>
      <point x="463" y="58" type="qcurve"/>
      <point x="453" y="75"/>
      <point x="415" y="120" type="qcurve"/>
      <point x="378" y="164"/>
      <point x="305" y="220"/>
      <point x="259" y="241" type="qcurve"/>
      <point x="241" y="249"/>
      <point x="224" y="255" type="qcurve"/>
      <point x="200" y="264"/>
      <point x="180" y="269" type="qcurve"/>
      <point x="148" y="270"/>
      <point x="135" y="274" type="qcurve"/>
      <point x="128" y="284"/>
    </contour>
    <contour>
      <point x="120" y="335" type="qcurve"/>
      <point x="126" y="341"/>
      <point x="137" y="342" type="qcurve"/>
      <point x="149" y="344"/>
      <point x="189" y="335" type="qcurve"/>
      <point x="208" y="334"/>
      <point x="234" y="339" type="qcurve"/>
      <point x="242" y="340"/>
      <point x="251" y="342" type="qcurve"/>
      <point x="288" y="349"/>
      <point x="330" y="381" type="qcurve"/>
      <point x="371" y="413"/>
      <point x="382" y="442" type="qcurve"/>
      <point x="392" y="469"/>
      <point x="379" y="507" type="qcurve"/>
      <point x="367" y="544"/>
      <point x="333" y="566" type="qcurve"/>
      <point x="296" y="589"/>
      <point x="266" y="591" type="qcurve"/>
      <point x="235" y="592"/>
      <point x="190" y="572" type="qcurve"/>
      <point x="149" y="554"/>
      <point x="140" y="545" type="qcurve"/>
      <point x="130" y="532" type="line"/>
      <point x="124" y="525"/>
      <point x="116" y="522" type="qcurve"/>
      <point x="116" y="478"/>
      <point x="118" y="408" type="qcurve"/>
      <point x="119" y="370"/>
    </contour>
  </outline>
</glyph>
<glyph name="S" format="1">
  <advance width="543"/>
  <unicode hex="0053"/>
  <outline>
    <contour>
      <point x="394" y="457" type="qcurve"/>
      <point x="387" y="478" type="line"/>
      <point x="382" y="495"/>
      <point x="365" y="528" type="qcurve"/>
      <point x="351" y="556"/>
      <point x="327" y="572" type="qcurve"/>
      <point x="302" y="588"/>
      <point x="254" y="596" type="qcurve"/>
      <point x="209" y="603"/>
      <point x="190" y="594" type="qcurve"/>
      <point x="168" y="582"/>
      <point x="152" y="561" type="qcurve"/>
      <point x="135" y="539"/>
      <point x="127" y="511" type="qcurve"/>
      <point x="120" y="487"/>
      <point x="130" y="458" type="qcurve"/>
      <point x="140" y="427"/>
      <point x="155" y="411" type="qcurve"/>
      <point x="170" y="395"/>
      <point x="206" y="385" type="qcurve"/>
      <point x="251" y="373"/>
      <point x="283" y="366" type="qcurve"/>
      <point x="320" y="357"/>
      <point x="356" y="340" type="qcurve"/>
      <point x="396" y="322"/>
      <point x="429" y="282" type="qcurve"/>
      <point x="460" y="245"/>
      <point x="473" y="219" type="qcurve"/>
      <point x="489" y="191"/>
      <point x="492" y="156" type="qcurve"/>
      <point x="497" y="117"/>
      <point x="482" y="91" type="qcurve"/>
      <point x="468" y="68"/>
      <point x="423" y="38" type="qcurve"/>
      <point x="379" y="9"/>
      <point x="330" y="2" type="qcurve"/>
      <point x="284" y="-5"/>
      <point x="234" y="3" type="qcurve"/>
      <point x="183" y="11"/>
      <point x="107" y="62"/>
      <point x="80" y="105" type="qcurve"/>
      <point x="52" y="149"/>
      <point x="51" y="183" type="qcurve"/>
      <point x="50" y="208" type="line"/>
      <point x="50" y="222"/>
      <point x="69" y="242"/>
      <point x="95" y="242"/>
      <point x="116" y="224"/>
      <point x="116" y="210" type="qcurve"/>
      <point x="117" y="185" type="line"/>
      <point x="117" y="169"/>
      <point x="136" y="140" type="qcurve"/>
      <point x="155" y="109"/>
      <point x="208" y="74"/>
      <point x="245" y="68" type="qcurve"/>
      <point x="284" y="62"/>
      <point x="320" y="67" type="qcurve"/>
      <point x="355" y="72"/>
      <point x="387" y="94" type="qcurve"/>
      <point x="419" y="114"/>
      <point x="424" y="124" type="qcurve"/>
      <point x="429" y="132"/>
      <point x="427" y="149" type="qcurve"/>
      <point x="425" y="171"/>
      <point x="415" y="188" type="qcurve"/>
      <point x="405" y="208"/>
      <point x="378" y="239" type="qcurve"/>
      <point x="355" y="268"/>
      <point x="328" y="280" type="qcurve"/>
      <point x="298" y="294"/>
      <point x="268" y="301" type="qcurve"/>
      <point x="234" y="309"/>
      <point x="189" y="322" type="qcurve"/>
      <point x="135" y="336"/>
      <point x="107" y="366" type="qcurve"/>
      <point x="81" y="393"/>
      <point x="67" y="438" type="qcurve"/>
      <point x="51" y="485"/>
      <point x="64" y="529" type="qcurve"/>
      <point x="75" y="568"/>
      <point x="99" y="601" type="qcurve"/>
      <point x="124" y="634"/>
      <point x="160" y="653" type="qcurve"/>
      <point x="199" y="672"/>
      <point x="265" y="661" type="qcurve"/>
      <point x="327" y="651"/>
      <point x="364" y="627" type="qcurve"/>
      <point x="402" y="601"/>
      <point x="424" y="558" type="qcurve"/>
      <point x="443" y="521"/>
      <point x="450" y="498" type="qcurve"/>
      <point x="457" y="477" type="line"/>
      <point x="461" y="465"/>
      <point x="448" y="440"/>
      <point x="422" y="432"/>
      <point x="398" y="445"/>
    </contour>
  </outline>
</glyph>
<glyph name="T" format="1">
  <advance width="673"/>
  <unicode hex="0054"/>
  <outline>
    <contour>
      <point x="85" y="637" type="qcurve"/>
      <point x="91" y="637" type="line"/>
      <point x="97" y="637"/>
      <point x="119" y="639" type="qcurve"/>
      <point x="148" y="642"/>
      <point x="228" y="644" type="qcurve"/>
      <point x="306" y="645"/>
      <point x="423" y="648"/>
      <point x="471" y="649" type="qcurve"/>
      <point x="519" y="650"/>
      <point x="540" y="651" type="qcurve"/>
      <point x="565" y="652"/>
      <point x="583" y="648" type="qcurve"/>
      <point x="597" y="645" type="line"/>
      <point x="610" y="642"/>
      <point x="626" y="620"/>
      <point x="621" y="593"/>
      <point x="598" y="578"/>
      <point x="585" y="580" type="qcurve"/>
      <point x="570" y="583" type="line"/>
      <point x="559" y="585"/>
      <point x="542" y="585" type="qcurve"/>
      <point x="521" y="584"/>
      <point x="472" y="583" type="qcurve"/>
      <point x="424" y="582"/>
      <point x="366" y="581" type="qcurve"/>
      <point x="365" y="581"/>
      <point x="364" y="581" type="qcurve"/>
      <point x="367" y="573"/>
      <point x="366" y="564" type="qcurve"/>
      <point x="362" y="540" type="line"/>
      <point x="358" y="518"/>
      <point x="356" y="460" type="qcurve"/>
      <point x="354" y="400"/>
      <point x="355" y="255"/>
      <point x="357" y="198" type="qcurve"/>
      <point x="360" y="140"/>
      <point x="362" y="98" type="qcurve"/>
      <point x="363" y="59"/>
      <point x="365" y="46" type="qcurve"/>
      <point x="367" y="29"/>
      <point x="367" y="17" type="qcurve"/>
      <point x="367" y="8" type="line"/>
      <point x="367" y="-5"/>
      <point x="348" y="-25"/>
      <point x="321" y="-25"/>
      <point x="301" y="-5"/>
      <point x="301" y="8" type="qcurve"/>
      <point x="301" y="17" type="line"/>
      <point x="301" y="25"/>
      <point x="300" y="37" type="qcurve"/>
      <point x="298" y="53"/>
      <point x="296" y="96" type="qcurve"/>
      <point x="294" y="137"/>
      <point x="291" y="195" type="qcurve"/>
      <point x="289" y="254"/>
      <point x="288" y="401"/>
      <point x="290" y="462" type="qcurve"/>
      <point x="293" y="525"/>
      <point x="297" y="551" type="qcurve"/>
      <point x="301" y="575" type="line"/>
      <point x="301" y="577"/>
      <point x="302" y="579" type="qcurve"/>
      <point x="268" y="578"/>
      <point x="229" y="578" type="qcurve"/>
      <point x="152" y="576"/>
      <point x="127" y="573" type="qcurve"/>
      <point x="96" y="570"/>
      <point x="87" y="571" type="qcurve"/>
      <point x="81" y="571" type="line"/>
      <point x="67" y="572"/>
      <point x="49" y="593"/>
      <point x="51" y="620"/>
      <point x="72" y="638"/>
    </contour>
  </outline>
</glyph>
<glyph name="U" format="1">
  <advance width="592"/>
  <unicode hex="0055"/>
  <outline>
    <contour>
      <point x="119" y="658" type="qcurve"/>
      <point x="117" y="637" type="line"/>
      <point x="116" y="618"/>
      <point x="116" y="577" type="qcurve"/>
      <point x="116" y="535"/>
      <point x="118" y="443" type="qcurve"/>
      <point x="119" y="352"/>
      <point x="119" y="307" type="qcurve"/>
      <point x="119" y="264"/>
      <point x="123" y="225" type="qcurve"/>
      <point x="127" y="187"/>
      <point x="144" y="130"/>
      <point x="155" y="105" type="qcurve"/>
      <point x="166" y="83"/>
      <point x="178" y="72" type="qcurve"/>
      <point x="190" y="61"/>
      <point x="211" y="54" type="qcurve"/>
      <point x="233" y="47"/>
      <point x="254" y="46" type="qcurve"/>
      <point x="275" y="45"/>
      <point x="302" y="52" type="qcurve"/>
      <point x="329" y="59"/>
      <point x="354" y="76" type="qcurve"/>
      <point x="382" y="94"/>
      <point x="404" y="115" type="qcurve"/>
      <point x="425" y="136"/>
      <point x="453" y="180"/>
      <point x="463" y="208" type="qcurve"/>
      <point x="473" y="236"/>
      <point x="475" y="267" type="qcurve"/>
      <point x="478" y="300"/>
      <point x="475" y="332" type="qcurve"/>
      <point x="472" y="366"/>
      <point x="466" y="413"/>
      <point x="460" y="448" type="qcurve"/>
      <point x="454" y="484"/>
      <point x="451" y="509" type="qcurve"/>
      <point x="448" y="533"/>
      <point x="446" y="551" type="qcurve"/>
      <point x="443" y="570"/>
      <point x="443" y="583" type="qcurve"/>
      <point x="442" y="594" type="line"/>
      <point x="442" y="607"/>
      <point x="461" y="628"/>
      <point x="488" y="629"/>
      <point x="508" y="610"/>
      <point x="508" y="596" type="qcurve"/>
      <point x="509" y="585" type="line"/>
      <point x="509" y="575"/>
      <point x="511" y="559" type="qcurve"/>
      <point x="513" y="541"/>
      <point x="516" y="517" type="qcurve"/>
      <point x="519" y="493"/>
      <point x="525" y="459" type="qcurve"/>
      <point x="531" y="423"/>
      <point x="538" y="374"/>
      <point x="541" y="338" type="qcurve"/>
      <point x="544" y="300"/>
      <point x="541" y="262" type="qcurve"/>
      <point x="538" y="223"/>
      <point x="525" y="187" type="qcurve"/>
      <point x="513" y="151"/>
      <point x="477" y="94"/>
      <point x="450" y="68" type="qcurve"/>
      <point x="423" y="42"/>
      <point x="390" y="21" type="qcurve"/>
      <point x="356" y="-2"/>
      <point x="318" y="-12" type="qcurve"/>
      <point x="282" y="-21"/>
      <point x="221" y="-18"/>
      <point x="190" y="-8" type="qcurve"/>
      <point x="157" y="3"/>
      <point x="112" y="43"/>
      <point x="96" y="76" type="qcurve"/>
      <point x="82" y="106"/>
      <point x="62" y="174"/>
      <point x="57" y="218" type="qcurve"/>
      <point x="53" y="260"/>
      <point x="53" y="307" type="qcurve"/>
      <point x="53" y="351"/>
      <point x="52" y="443" type="qcurve"/>
      <point x="50" y="534"/>
      <point x="50" y="577" type="qcurve"/>
      <point x="50" y="620"/>
      <point x="51" y="642" type="qcurve"/>
      <point x="53" y="663" type="line"/>
      <point x="54" y="676"/>
      <point x="75" y="694"/>
      <point x="102" y="692"/>
      <point x="120" y="671"/>
    </contour>
  </outline>
</glyph>
<glyph name="V" format="1">
  <advance width="591"/>
  <unicode hex="0056"/>
  <outline>
    <contour>
      <point x="113" y="636" type="qcurve"/>
      <point x="128" y="603" type="line"/>
      <point x="144" y="568"/>
      <point x="193" y="451"/>
      <point x="219" y="382" type="qcurve"/>
      <point x="245" y="314"/>
      <point x="270" y="251" type="qcurve"/>
      <point x="296" y="188"/>
      <point x="308" y="154" type="qcurve"/>
      <point x="318" y="128"/>
      <point x="322" y="117" type="qcurve"/>
      <point x="330" y="138"/>
      <point x="340" y="162" type="qcurve"/>
      <point x="357" y="208"/>
      <point x="372" y="267" type="qcurve"/>
      <point x="387" y="329"/>
      <point x="411" y="421"/>
      <point x="425" y="474" type="qcurve"/>
      <point x="440" y="528"/>
      <point x="449" y="559" type="qcurve"/>
      <point x="458" y="589"/>
      <point x="464" y="606" type="qcurve"/>
      <point x="469" y="624"/>
      <point x="473" y="637" type="qcurve"/>
      <point x="477" y="649" type="line"/>
      <point x="482" y="662"/>
      <point x="507" y="674"/>
      <point x="532" y="665"/>
      <point x="544" y="640"/>
      <point x="540" y="627" type="qcurve"/>
      <point x="536" y="615" type="line"/>
      <point x="532" y="604"/>
      <point x="527" y="588" type="qcurve"/>
      <point x="522" y="570"/>
      <point x="512" y="540" type="qcurve"/>
      <point x="503" y="510"/>
      <point x="489" y="457" type="qcurve"/>
      <point x="475" y="404"/>
      <point x="451" y="313"/>
      <point x="436" y="251" type="qcurve"/>
      <point x="420" y="188"/>
      <point x="401" y="138" type="qcurve"/>
      <point x="382" y="90"/>
      <point x="369" y="53" type="qcurve"/>
      <point x="369" y="53"/>
      <point x="367" y="47"/>
      <point x="365" y="41"/>
      <point x="361" y="31"/>
      <point x="356" y="23"/>
      <point x="349" y="14"/>
      <point x="340" y="8"/>
      <point x="329" y="5"/>
      <point x="315" y="6"/>
      <point x="307" y="9" type="qcurve"/>
      <point x="294" y="15"/>
      <point x="287" y="30" type="qcurve"/>
      <point x="278" y="47"/>
      <point x="269" y="73" type="qcurve"/>
      <point x="259" y="98"/>
      <point x="247" y="131" type="qcurve"/>
      <point x="234" y="164"/>
      <point x="209" y="227" type="qcurve"/>
      <point x="183" y="290"/>
      <point x="157" y="359" type="qcurve"/>
      <point x="131" y="427"/>
      <point x="83" y="542"/>
      <point x="68" y="575" type="qcurve"/>
      <point x="53" y="609" type="line"/>
      <point x="47" y="621"/>
      <point x="57" y="647"/>
      <point x="82" y="658"/>
      <point x="107" y="649"/>
    </contour>
  </outline>
</glyph>
<glyph name="W" format="1">
  <advance width="800"/>
  <unicode hex="0057"/>
  <outline>
    <contour>
      <point x="237" y="188" type="qcurve"/>
      <point x="254" y="249"/>
      <point x="274" y="314" type="qcurve"/>
      <point x="293" y="379"/>
      <point x="308" y="434" type="qcurve"/>
      <point x="323" y="489"/>
      <point x="338" y="546" type="qcurve"/>
      <point x="352" y="600"/>
      <point x="354" y="613" type="qcurve"/>
      <point x="350" y="632"/>
      <point x="374" y="644" type="qcurve"/>
      <point x="399" y="653"/>
      <point x="424" y="635"/>
      <point x="427" y="619" type="qcurve"/>
      <point x="430" y="603" type="line"/>
      <point x="440" y="571"/>
      <point x="461" y="507" type="qcurve"/>
      <point x="482" y="443"/>
      <point x="519" y="337"/>
      <point x="534" y="296" type="qcurve"/>
      <point x="548" y="255"/>
      <point x="566" y="211" type="qcurve"/>
      <point x="573" y="195"/>
      <point x="579" y="181" type="qcurve"/>
      <point x="585" y="202"/>
      <point x="591" y="227" type="qcurve"/>
      <point x="606" y="285"/>
      <point x="617" y="338" type="qcurve"/>
      <point x="628" y="390"/>
      <point x="651" y="521"/>
      <point x="656" y="556" type="qcurve"/>
      <point x="661" y="594"/>
      <point x="669" y="626" type="qcurve"/>
      <point x="678" y="660"/>
      <point x="684" y="672" type="qcurve"/>
      <point x="688" y="682" type="line"/>
      <point x="694" y="694"/>
      <point x="720" y="703"/>
      <point x="744" y="692"/>
      <point x="754" y="666"/>
      <point x="748" y="654" type="qcurve"/>
      <point x="743" y="644" type="line"/>
      <point x="740" y="637"/>
      <point x="733" y="610" type="qcurve"/>
      <point x="726" y="581"/>
      <point x="721" y="547" type="qcurve"/>
      <point x="716" y="510"/>
      <point x="692" y="378"/>
      <point x="682" y="325" type="qcurve"/>
      <point x="671" y="270"/>
      <point x="639" y="150"/>
      <point x="627" y="113" type="qcurve"/>
      <point x="627" y="111"/>
      <point x="626" y="107"/>
      <point x="623" y="93"/>
      <point x="618" y="83"/>
      <point x="610" y="69"/>
      <point x="598" y="64"/>
      <point x="581" y="61"/>
      <point x="570" y="66" type="qcurve"/>
      <point x="554" y="72"/>
      <point x="548" y="89" type="qcurve"/>
      <point x="543" y="102"/>
      <point x="534" y="120" type="qcurve"/>
      <point x="524" y="141"/>
      <point x="505" y="186" type="qcurve"/>
      <point x="487" y="232"/>
      <point x="456" y="315"/>
      <point x="438" y="368" type="qcurve"/>
      <point x="420" y="421"/>
      <point x="399" y="486" type="qcurve"/>
      <point x="398" y="489"/>
      <point x="395" y="496"/>
      <point x="394" y="500" type="qcurve"/>
      <point x="383" y="458"/>
      <point x="372" y="417" type="qcurve"/>
      <point x="357" y="361"/>
      <point x="337" y="295" type="qcurve"/>
      <point x="317" y="230"/>
      <point x="302" y="174" type="qcurve"/>
      <point x="286" y="116"/>
      <point x="272" y="73" type="qcurve"/>
      <point x="271" y="70"/>
      <point x="265" y="61"/>
      <point x="251" y="36"/>
      <point x="236" y="22"/>
      <point x="218" y="11"/>
      <point x="200" y="22"/>
      <point x="192" y="38" type="qcurve"/>
      <point x="188" y="48"/>
      <point x="182" y="62" type="qcurve"/>
      <point x="175" y="78"/>
      <point x="165" y="106" type="qcurve"/>
      <point x="157" y="133"/>
      <point x="143" y="189" type="qcurve"/>
      <point x="129" y="243"/>
      <point x="108" y="318" type="qcurve"/>
      <point x="88" y="394"/>
      <point x="74" y="450" type="qcurve"/>
      <point x="60" y="508"/>
      <point x="55" y="544" type="qcurve"/>
      <point x="50" y="578" type="line"/>
      <point x="48" y="591"/>
      <point x="65" y="614"/>
      <point x="92" y="617"/>
      <point x="114" y="601"/>
      <point x="116" y="587" type="qcurve"/>
      <point x="120" y="553" type="line"/>
      <point x="125" y="520"/>
      <point x="138" y="466" type="qcurve"/>
      <point x="152" y="411"/>
      <point x="172" y="336" type="qcurve"/>
      <point x="193" y="260"/>
      <point x="207" y="205" type="qcurve"/>
      <point x="217" y="165"/>
      <point x="224" y="141" type="qcurve"/>
      <point x="231" y="164"/>
    </contour>
  </outline>
</glyph>
<glyph name="X" format="1">
  <advance width="556"/>
  <unicode hex="0058"/>
  <outline>
    <contour>
      <point x="487" y="625" type="qcurve"/>
      <point x="465" y="589" type="line"/>
      <point x="443" y="554"/>
      <point x="381" y="442"/>
      <point x="353" y="390" type="qcurve"/>
      <point x="333" y="352"/>
      <point x="311" y="310" type="qcurve"/>
      <point x="315" y="303"/>
      <point x="320" y="295" type="qcurve"/>
      <point x="355" y="235"/>
      <point x="381" y="199" type="qcurve"/>
      <point x="406" y="162"/>
      <point x="429" y="132" type="qcurve"/>
      <point x="452" y="102"/>
      <point x="463" y="88" type="qcurve"/>
      <point x="474" y="74"/>
      <point x="487" y="58" type="qcurve"/>
      <point x="500" y="41" type="line"/>
      <point x="508" y="30"/>
      <point x="505" y="3"/>
      <point x="483" y="-14"/>
      <point x="456" y="-11"/>
      <point x="448" y="0" type="qcurve"/>
      <point x="435" y="17" type="line"/>
      <point x="421" y="34"/>
      <point x="411" y="48" type="qcurve"/>
      <point x="400" y="62"/>
      <point x="376" y="92" type="qcurve"/>
      <point x="353" y="123"/>
      <point x="327" y="161" type="qcurve"/>
      <point x="304" y="193"/>
      <point x="275" y="241" type="qcurve"/>
      <point x="255" y="204"/>
      <point x="241" y="179" type="qcurve"/>
      <point x="222" y="145"/>
      <point x="201" y="111" type="qcurve"/>
      <point x="181" y="78"/>
      <point x="169" y="61" type="qcurve"/>
      <point x="163" y="51"/>
      <point x="159" y="44" type="qcurve"/>
      <point x="154" y="33"/>
      <point x="149" y="26" type="qcurve"/>
      <point x="145" y="19" type="line"/>
      <point x="138" y="8"/>
      <point x="111" y="1"/>
      <point x="88" y="15"/>
      <point x="82" y="42"/>
      <point x="89" y="53" type="qcurve"/>
      <point x="93" y="60" type="line"/>
      <point x="96" y="65"/>
      <point x="100" y="73" type="qcurve"/>
      <point x="106" y="84"/>
      <point x="116" y="100" type="qcurve"/>
      <point x="125" y="113"/>
      <point x="145" y="146" type="qcurve"/>
      <point x="165" y="179"/>
      <point x="203" y="246"/>
      <point x="235" y="306" type="qcurve"/>
      <point x="235" y="307"/>
      <point x="236" y="308" type="qcurve"/>
      <point x="213" y="346"/>
      <point x="190" y="384" type="qcurve"/>
      <point x="153" y="444"/>
      <point x="115" y="499" type="qcurve"/>
      <point x="75" y="556"/>
      <point x="64" y="576" type="qcurve"/>
      <point x="54" y="595" type="line"/>
      <point x="47" y="607"/>
      <point x="55" y="633"/>
      <point x="79" y="646"/>
      <point x="106" y="638"/>
      <point x="112" y="626" type="qcurve"/>
      <point x="122" y="608" type="line"/>
      <point x="131" y="591"/>
      <point x="169" y="537" type="qcurve"/>
      <point x="209" y="480"/>
      <point x="246" y="418" type="qcurve"/>
      <point x="259" y="397"/>
      <point x="272" y="376" type="qcurve"/>
      <point x="284" y="400"/>
      <point x="295" y="420" type="qcurve"/>
      <point x="323" y="474"/>
      <point x="355" y="530" type="qcurve"/>
      <point x="386" y="588"/>
      <point x="409" y="624" type="qcurve"/>
      <point x="431" y="660" type="line"/>
      <point x="438" y="671"/>
      <point x="465" y="678"/>
      <point x="488" y="663"/>
      <point x="494" y="637"/>
    </contour>
  </outline>
</glyph>
<glyph name="Y" format="1">
  <advance width="648"/>
  <unicode hex="0059"/>
  <outline>
    <contour>
      <point x="586" y="601" type="qcurve"/>
      <point x="574" y="592" type="line"/>
      <point x="564" y="585"/>
      <point x="516" y="533"/>
      <point x="455" y="442"/>
      <point x="438" y="403" type="qcurve"/>
      <point x="420" y="363"/>
      <point x="404" y="305" type="qcurve"/>
      <point x="392" y="264"/>
      <point x="384" y="221" type="qcurve"/>
      <point x="390" y="202"/>
      <point x="378" y="188" type="qcurve"/>
      <point x="377" y="184"/>
      <point x="376" y="181" type="qcurve"/>
      <point x="365" y="114"/>
      <point x="359" y="78" type="qcurve"/>
      <point x="354" y="42"/>
      <point x="352" y="29" type="qcurve"/>
      <point x="350" y="17"/>
      <point x="350" y="11" type="qcurve"/>
      <point x="349" y="3" type="line"/>
      <point x="349" y="-11"/>
      <point x="329" y="-29"/>
      <point x="302" y="-28"/>
      <point x="283" y="-8"/>
      <point x="283" y="5" type="qcurve"/>
      <point x="284" y="13" type="line"/>
      <point x="284" y="23"/>
      <point x="286" y="38" type="qcurve"/>
      <point x="288" y="52"/>
      <point x="300" y="125"/>
      <point x="311" y="192" type="qcurve"/>
      <point x="313" y="199"/>
      <point x="314" y="206" type="qcurve"/>
      <point x="305" y="218" type="line"/>
      <point x="282" y="248"/>
      <point x="259" y="289" type="qcurve"/>
      <point x="238" y="326"/>
      <point x="204" y="381" type="qcurve"/>
      <point x="170" y="436"/>
      <point x="131" y="491" type="qcurve"/>
      <point x="92" y="548"/>
      <point x="73" y="576" type="qcurve"/>
      <point x="55" y="603" type="line"/>
      <point x="48" y="614"/>
      <point x="54" y="641"/>
      <point x="76" y="656"/>
      <point x="103" y="651"/>
      <point x="110" y="639" type="qcurve"/>
      <point x="128" y="612" type="line"/>
      <point x="146" y="585"/>
      <point x="185" y="529" type="qcurve"/>
      <point x="225" y="473"/>
      <point x="260" y="416" type="qcurve"/>
      <point x="294" y="360"/>
      <point x="316" y="321" type="qcurve"/>
      <point x="324" y="307"/>
      <point x="333" y="294" type="qcurve"/>
      <point x="336" y="308"/>
      <point x="340" y="322" type="qcurve"/>
      <point x="358" y="385"/>
      <point x="377" y="429" type="qcurve"/>
      <point x="397" y="474"/>
      <point x="464" y="574"/>
      <point x="520" y="634"/>
      <point x="534" y="645" type="qcurve"/>
      <point x="546" y="654" type="line"/>
      <point x="557" y="662"/>
      <point x="584" y="658"/>
      <point x="600" y="637"/>
      <point x="597" y="610"/>
    </contour>
  </outline>
</glyph>
<glyph name="Z" format="1">
  <advance width="716"/>
  <unicode hex="005A"/>
  <outline>
    <contour>
      <point x="99" y="657" type="qcurve"/>
      <point x="104" y="656" type="line"/>
      <point x="116" y="655"/>
      <point x="177" y="656" type="qcurve"/>
      <point x="250" y="658"/>
      <point x="329" y="665" type="qcurve"/>
      <point x="413" y="672"/>
      <point x="430" y="670" type="qcurve"/>
      <point x="446" y="668"/>
      <point x="464" y="649"/>
      <point x="467" y="624"/>
      <point x="466" y="606"/>
      <point x="464" y="598" type="qcurve"/>
      <point x="455" y="565"/>
      <point x="407" y="492" type="qcurve"/>
      <point x="361" y="421"/>
      <point x="326" y="376" type="qcurve"/>
      <point x="291" y="331"/>
      <point x="250" y="274" type="qcurve"/>
      <point x="209" y="217"/>
      <point x="156" y="138"/>
      <point x="138" y="108" type="qcurve"/>
      <point x="129" y="94"/>
      <point x="123" y="84" type="qcurve"/>
      <point x="130" y="82"/>
      <point x="137" y="81" type="qcurve"/>
      <point x="176" y="75"/>
      <point x="212" y="75" type="qcurve"/>
      <point x="250" y="76"/>
      <point x="316" y="81" type="qcurve"/>
      <point x="384" y="87"/>
      <point x="444" y="87" type="qcurve"/>
      <point x="504" y="88"/>
      <point x="569" y="86" type="qcurve"/>
      <point x="634" y="85" type="line"/>
      <point x="648" y="85"/>
      <point x="667" y="65"/>
      <point x="666" y="38"/>
      <point x="646" y="19"/>
      <point x="633" y="19" type="qcurve"/>
      <point x="568" y="20" type="line"/>
      <point x="504" y="22"/>
      <point x="445" y="21" type="qcurve"/>
      <point x="387" y="21"/>
      <point x="321" y="15" type="qcurve"/>
      <point x="253" y="10"/>
      <point x="213" y="9" type="qcurve"/>
      <point x="171" y="8"/>
      <point x="126" y="16" type="qcurve"/>
      <point x="123" y="16"/>
      <point x="104" y="19"/>
      <point x="96" y="21"/>
      <point x="80" y="25"/>
      <point x="70" y="31"/>
      <point x="59" y="42"/>
      <point x="56" y="49" type="qcurve"/>
      <point x="43" y="74"/>
      <point x="56" y="100" type="qcurve"/>
      <point x="62" y="111"/>
      <point x="100" y="173"/>
      <point x="154" y="255"/>
      <point x="197" y="313" type="qcurve"/>
      <point x="239" y="371"/>
      <point x="273" y="416" type="qcurve"/>
      <point x="307" y="460"/>
      <point x="351" y="528" type="qcurve"/>
      <point x="384" y="577"/>
      <point x="395" y="604" type="qcurve"/>
      <point x="372" y="602"/>
      <point x="334" y="599" type="qcurve"/>
      <point x="253" y="592"/>
      <point x="179" y="591" type="qcurve"/>
      <point x="102" y="589"/>
      <point x="92" y="591" type="qcurve"/>
      <point x="86" y="592" type="line"/>
      <point x="72" y="595"/>
      <point x="57" y="618"/>
      <point x="63" y="644"/>
      <point x="86" y="659"/>
    </contour>
  </outline>
</glyph>
<glyph name="a" format="1">
  <advance width="605"/>
  <unicode hex="0061"/>
  <outline>
    <contour>
      <point x="313" y="460" type="qcurve"/>
      <point x="297" y="462"/>
      <point x="274" y="458" type="qcurve"/>
      <point x="251" y="454"/>
      <point x="237" y="446" type="qcurve"/>
      <point x="220" y="436"/>
      <point x="207" y="427" type="qcurve"/>
      <point x="197" y="420"/>
      <point x="193" y="416" type="qcurve"/>
      <point x="187" y="409"/>
      <point x="173" y="388" type="qcurve"/>
      <point x="158" y="366"/>
      <point x="143" y="341" type="qcurve"/>
      <point x="130" y="318"/>
      <point x="124" y="296" type="qcurve"/>
      <point x="117" y="273"/>
      <point x="116" y="252" type="qcurve"/>
      <point x="115" y="231"/>
      <point x="121" y="201" type="qcurve"/>
      <point x="128" y="166"/>
      <point x="130" y="154" type="qcurve"/>
      <point x="131" y="147"/>
      <point x="139" y="122" type="qcurve"/>
      <point x="147" y="99"/>
      <point x="154" y="88" type="qcurve"/>
      <point x="161" y="76"/>
      <point x="169" y="67" type="qcurve"/>
      <point x="177" y="58"/>
      <point x="188" y="49" type="qcurve"/>
      <point x="199" y="41"/>
      <point x="212" y="35" type="qcurve"/>
      <point x="220" y="32"/>
      <point x="225" y="31" type="qcurve"/>
      <point x="230" y="37"/>
      <point x="238" y="53" type="qcurve"/>
      <point x="249" y="75"/>
      <point x="260" y="112"/>
      <point x="264" y="138" type="qcurve"/>
      <point x="269" y="165"/>
      <point x="272" y="194" type="qcurve"/>
      <point x="275" y="223"/>
      <point x="278" y="252" type="qcurve"/>
      <point x="281" y="281"/>
      <point x="287" y="314" type="qcurve"/>
      <point x="292" y="338"/>
      <point x="296" y="359" type="qcurve"/>
      <point x="296" y="375"/>
      <point x="298" y="391" type="qcurve"/>
      <point x="301" y="419"/>
      <point x="308" y="446" type="qcurve"/>
      <point x="311" y="454"/>
    </contour>
    <contour>
      <point x="379" y="463" type="qcurve"/>
      <point x="380" y="456"/>
      <point x="380" y="453" type="qcurve"/>
      <point x="380" y="443"/>
      <point x="378" y="433" type="qcurve"/>
      <point x="376" y="425"/>
      <point x="369" y="382"/>
      <point x="363" y="357" type="qcurve"/>
      <point x="362" y="353"/>
      <point x="362" y="352" type="qcurve"/>
      <point x="362" y="346"/>
      <point x="363" y="341" type="qcurve"/>
      <point x="364" y="319"/>
      <point x="368" y="295" type="qcurve"/>
      <point x="372" y="277"/>
      <point x="375" y="259" type="qcurve"/>
      <point x="376" y="251"/>
      <point x="378" y="244" type="qcurve"/>
      <point x="382" y="219"/>
      <point x="385" y="202" type="qcurve"/>
      <point x="387" y="186"/>
      <point x="392" y="172" type="qcurve"/>
      <point x="396" y="158"/>
      <point x="405" y="135" type="qcurve"/>
      <point x="413" y="113"/>
      <point x="419" y="100" type="qcurve"/>
      <point x="424" y="90"/>
      <point x="430" y="83" type="qcurve"/>
      <point x="438" y="73"/>
      <point x="443" y="67" type="qcurve"/>
      <point x="446" y="63"/>
      <point x="452" y="60" type="qcurve"/>
      <point x="455" y="58"/>
      <point x="457" y="58" type="qcurve"/>
      <point x="461" y="58"/>
      <point x="463" y="59" type="qcurve"/>
      <point x="465" y="61"/>
      <point x="467" y="63" type="qcurve"/>
      <point x="472" y="71"/>
      <point x="477" y="83" type="qcurve"/>
      <point x="483" y="96"/>
      <point x="486" y="109" type="qcurve"/>
      <point x="488" y="117"/>
      <point x="489" y="123" type="qcurve"/>
      <point x="489" y="129" type="line"/>
      <point x="490" y="143"/>
      <point x="510" y="161"/>
      <point x="537" y="160"/>
      <point x="556" y="140"/>
      <point x="555" y="126" type="qcurve"/>
      <point x="555" y="120" type="line"/>
      <point x="554" y="110"/>
      <point x="550" y="92" type="qcurve"/>
      <point x="545" y="75"/>
      <point x="538" y="58" type="qcurve"/>
      <point x="531" y="39"/>
      <point x="521" y="25" type="qcurve"/>
      <point x="508" y="7"/>
      <point x="490" y="-1" type="qcurve"/>
      <point x="475" y="-8"/>
      <point x="457" y="-8" type="qcurve"/>
      <point x="437" y="-8"/>
      <point x="419" y="3" type="qcurve"/>
      <point x="404" y="11"/>
      <point x="394" y="22" type="qcurve"/>
      <point x="387" y="30"/>
      <point x="378" y="42" type="qcurve"/>
      <point x="367" y="56"/>
      <point x="359" y="72" type="qcurve"/>
      <point x="352" y="87"/>
      <point x="343" y="112" type="qcurve"/>
      <point x="337" y="129"/>
      <point x="332" y="143" type="qcurve"/>
      <point x="331" y="135"/>
      <point x="329" y="127" type="qcurve"/>
      <point x="325" y="97"/>
      <point x="310" y="51"/>
      <point x="298" y="25" type="qcurve"/>
      <point x="283" y="-5"/>
      <point x="269" y="-18" type="qcurve"/>
      <point x="249" y="-37"/>
      <point x="224" y="-36" type="qcurve"/>
      <point x="208" y="-35"/>
      <point x="187" y="-26" type="qcurve"/>
      <point x="166" y="-17"/>
      <point x="131" y="10"/>
      <point x="119" y="24" type="qcurve"/>
      <point x="108" y="37"/>
      <point x="98" y="53" type="qcurve"/>
      <point x="87" y="70"/>
      <point x="77" y="101" type="qcurve"/>
      <point x="67" y="131"/>
      <point x="65" y="145" type="qcurve"/>
      <point x="63" y="155"/>
      <point x="56" y="188" type="qcurve"/>
      <point x="49" y="227"/>
      <point x="50" y="255" type="qcurve"/>
      <point x="52" y="284"/>
      <point x="60" y="314" type="qcurve"/>
      <point x="69" y="344"/>
      <point x="86" y="374" type="qcurve"/>
      <point x="102" y="401"/>
      <point x="118" y="425" type="qcurve"/>
      <point x="135" y="450"/>
      <point x="143" y="459" type="qcurve"/>
      <point x="152" y="470"/>
      <point x="170" y="482" type="qcurve"/>
      <point x="185" y="492"/>
      <point x="204" y="503" type="qcurve"/>
      <point x="228" y="516"/>
      <point x="262" y="523" type="qcurve"/>
      <point x="296" y="530"/>
      <point x="323" y="525" type="qcurve"/>
      <point x="344" y="522"/>
      <point x="351" y="521" type="qcurve"/>
      <point x="360" y="520" type="line"/>
      <point x="374" y="518"/>
      <point x="391" y="501"/>
      <point x="389" y="489" type="qcurve"/>
      <point x="388" y="472"/>
    </contour>
  </outline>
</glyph>
<glyph name="b" format="1">
  <advance width="542"/>
  <unicode hex="0062"/>
  <outline>
    <contour>
      <point x="198" y="114" type="qcurve"/>
      <point x="200" y="100"/>
      <point x="201" y="89" type="qcurve"/>
      <point x="227" y="85"/>
      <point x="252" y="83" type="qcurve"/>
      <point x="276" y="81"/>
      <point x="290" y="82" type="qcurve"/>
      <point x="301" y="84"/>
      <point x="319" y="92" type="qcurve"/>
      <point x="338" y="102"/>
      <point x="359" y="119" type="qcurve"/>
      <point x="380" y="136"/>
      <point x="398" y="160" type="qcurve"/>
      <point x="414" y="183"/>
      <point x="429" y="242"/>
      <point x="425" y="270" type="qcurve"/>
      <point x="421" y="300"/>
      <point x="404" y="335" type="qcurve"/>
      <point x="385" y="372"/>
      <point x="370" y="392" type="qcurve"/>
      <point x="356" y="411"/>
      <point x="336" y="426" type="qcurve"/>
      <point x="321" y="438"/>
      <point x="311" y="438" type="qcurve"/>
      <point x="301" y="438"/>
      <point x="287" y="429" type="qcurve"/>
      <point x="269" y="418"/>
      <point x="227" y="364"/>
      <point x="216" y="333" type="qcurve"/>
      <point x="204" y="300"/>
      <point x="199" y="266" type="qcurve"/>
      <point x="197" y="253"/>
      <point x="196" y="239" type="qcurve"/>
      <point x="194" y="216"/>
      <point x="194" y="192" type="qcurve"/>
      <point x="194" y="152"/>
    </contour>
    <contour>
      <point x="140" y="32" type="qcurve"/>
      <point x="136" y="33"/>
      <point x="131" y="34" type="qcurve"/>
      <point x="102" y="40"/>
      <point x="87" y="44" type="qcurve"/>
      <point x="74" y="48" type="line"/>
      <point x="61" y="52"/>
      <point x="48" y="76"/>
      <point x="55" y="102"/>
      <point x="79" y="115"/>
      <point x="92" y="112" type="qcurve"/>
      <point x="105" y="108" type="line"/>
      <point x="115" y="105"/>
      <point x="133" y="101" type="qcurve"/>
      <point x="133" y="103"/>
      <point x="133" y="106" type="qcurve"/>
      <point x="129" y="133"/>
      <point x="124" y="165" type="qcurve"/>
      <point x="117" y="205"/>
      <point x="112" y="244" type="qcurve"/>
      <point x="109" y="263"/>
      <point x="107" y="281" type="qcurve"/>
      <point x="100" y="338"/>
      <point x="98" y="392" type="qcurve"/>
      <point x="97" y="445"/>
      <point x="98" y="504" type="qcurve"/>
      <point x="99" y="564"/>
      <point x="103" y="601" type="qcurve"/>
      <point x="107" y="637"/>
      <point x="109" y="648" type="qcurve"/>
      <point x="110" y="657" type="line"/>
      <point x="113" y="671"/>
      <point x="136" y="686"/>
      <point x="162" y="681"/>
      <point x="178" y="659"/>
      <point x="175" y="645" type="qcurve"/>
      <point x="174" y="636" type="line"/>
      <point x="172" y="627"/>
      <point x="168" y="593" type="qcurve"/>
      <point x="165" y="560"/>
      <point x="164" y="503" type="qcurve"/>
      <point x="163" y="446"/>
      <point x="164" y="394" type="qcurve"/>
      <point x="165" y="388"/>
      <point x="165" y="382" type="qcurve"/>
      <point x="178" y="409"/>
      <point x="197" y="432" type="qcurve"/>
      <point x="224" y="467"/>
      <point x="251" y="484" type="qcurve"/>
      <point x="282" y="504"/>
      <point x="312" y="504" type="qcurve"/>
      <point x="344" y="503"/>
      <point x="376" y="478" type="qcurve"/>
      <point x="403" y="458"/>
      <point x="423" y="432" type="qcurve"/>
      <point x="442" y="407"/>
      <point x="463" y="364" type="qcurve"/>
      <point x="485" y="319"/>
      <point x="490" y="279" type="qcurve"/>
      <point x="496" y="238"/>
      <point x="475" y="155"/>
      <point x="451" y="122" type="qcurve"/>
      <point x="428" y="90"/>
      <point x="401" y="68" type="qcurve"/>
      <point x="374" y="46"/>
      <point x="349" y="33" type="qcurve"/>
      <point x="321" y="20"/>
      <point x="298" y="17" type="qcurve"/>
      <point x="278" y="14"/>
      <point x="247" y="17" type="qcurve"/>
      <point x="228" y="18"/>
      <point x="208" y="21" type="qcurve"/>
      <point x="208" y="16"/>
      <point x="208" y="13" type="qcurve"/>
      <point x="208" y="13"/>
      <point x="181" y="-4" type="qcurve"/>
      <point x="149" y="-20"/>
      <point x="143" y="1" type="qcurve"/>
      <point x="142" y="6"/>
      <point x="141" y="19" type="qcurve"/>
      <point x="141" y="24"/>
    </contour>
  </outline>
</glyph>
<glyph name="c" format="1">
  <advance width="494"/>
  <unicode hex="0063"/>
  <outline>
    <contour>
      <point x="382" y="291" type="qcurve"/>
      <point x="372" y="314" type="line"/>
      <point x="362" y="336"/>
      <point x="352" y="355" type="qcurve"/>
      <point x="344" y="371"/>
      <point x="327" y="389" type="qcurve"/>
      <point x="314" y="402"/>
      <point x="284" y="405" type="qcurve"/>
      <point x="248" y="410"/>
      <point x="217" y="401" type="qcurve"/>
      <point x="185" y="393"/>
      <point x="175" y="385" type="qcurve"/>
      <point x="164" y="377"/>
      <point x="150" y="361" type="qcurve"/>
      <point x="138" y="346"/>
      <point x="130" y="322" type="qcurve"/>
      <point x="121" y="295"/>
      <point x="117" y="267" type="qcurve"/>
      <point x="114" y="241"/>
      <point x="119" y="209" type="qcurve"/>
      <point x="124" y="178"/>
      <point x="139" y="148" type="qcurve"/>
      <point x="154" y="116"/>
      <point x="170" y="94" type="qcurve"/>
      <point x="185" y="74"/>
      <point x="193" y="68" type="qcurve"/>
      <point x="200" y="63"/>
      <point x="213" y="61" type="qcurve"/>
      <point x="227" y="58"/>
      <point x="236" y="60" type="qcurve"/>
      <point x="246" y="61"/>
      <point x="255" y="65" type="qcurve"/>
      <point x="265" y="69"/>
      <point x="278" y="77" type="qcurve"/>
      <point x="290" y="84"/>
      <point x="297" y="90" type="qcurve"/>
      <point x="304" y="97"/>
      <point x="311" y="105" type="qcurve"/>
      <point x="316" y="112"/>
      <point x="322" y="122" type="qcurve"/>
      <point x="329" y="135"/>
      <point x="332" y="143" type="qcurve"/>
      <point x="336" y="150"/>
      <point x="339" y="156" type="qcurve"/>
      <point x="342" y="163" type="line"/>
      <point x="348" y="175"/>
      <point x="374" y="184"/>
      <point x="398" y="172"/>
      <point x="407" y="146"/>
      <point x="402" y="134" type="qcurve"/>
      <point x="399" y="128" type="line"/>
      <point x="396" y="122"/>
      <point x="392" y="114" type="qcurve"/>
      <point x="388" y="105"/>
      <point x="380" y="91" type="qcurve"/>
      <point x="372" y="76"/>
      <point x="362" y="64" type="qcurve"/>
      <point x="353" y="53"/>
      <point x="343" y="43" type="qcurve"/>
      <point x="331" y="31"/>
      <point x="312" y="20" type="qcurve"/>
      <point x="295" y="9"/>
      <point x="279" y="3" type="qcurve"/>
      <point x="263" y="-3"/>
      <point x="245" y="-6" type="qcurve"/>
      <point x="226" y="-8"/>
      <point x="201" y="-4" type="qcurve"/>
      <point x="175" y="1"/>
      <point x="156" y="13" type="qcurve"/>
      <point x="138" y="26"/>
      <point x="117" y="55" type="qcurve"/>
      <point x="97" y="81"/>
      <point x="79" y="119" type="qcurve"/>
      <point x="60" y="158"/>
      <point x="54" y="199" type="qcurve"/>
      <point x="47" y="240"/>
      <point x="52" y="276" type="qcurve"/>
      <point x="56" y="310"/>
      <point x="68" y="344" type="qcurve"/>
      <point x="80" y="380"/>
      <point x="100" y="403" type="qcurve"/>
      <point x="118" y="425"/>
      <point x="136" y="439" type="qcurve"/>
      <point x="156" y="453"/>
      <point x="200" y="465" type="qcurve"/>
      <point x="243" y="477"/>
      <point x="292" y="471" type="qcurve"/>
      <point x="345" y="464"/>
      <point x="374" y="435" type="qcurve"/>
      <point x="398" y="411"/>
      <point x="411" y="386" type="qcurve"/>
      <point x="422" y="364"/>
      <point x="432" y="341" type="qcurve"/>
      <point x="442" y="318" type="line"/>
      <point x="448" y="306"/>
      <point x="438" y="280"/>
      <point x="413" y="269"/>
      <point x="387" y="279"/>
    </contour>
  </outline>
</glyph>
<glyph name="d" format="1">
  <advance width="613"/>
  <unicode hex="0064"/>
  <outline>
    <contour>
      <point x="421" y="267" type="qcurve"/>
      <point x="421" y="246"/>
      <point x="423" y="224" type="qcurve"/>
      <point x="425" y="203"/>
      <point x="426" y="185" type="qcurve"/>
      <point x="427" y="172"/>
      <point x="429" y="160" type="qcurve"/>
      <point x="431" y="134"/>
      <point x="439" y="103" type="qcurve"/>
      <point x="444" y="83"/>
      <point x="447" y="71" type="qcurve"/>
      <point x="468" y="81"/>
      <point x="481" y="92" type="qcurve"/>
      <point x="494" y="104"/>
      <point x="499" y="109" type="qcurve"/>
      <point x="505" y="117" type="line"/>
      <point x="513" y="127"/>
      <point x="541" y="131"/>
      <point x="562" y="114"/>
      <point x="565" y="86"/>
      <point x="557" y="76" type="qcurve"/>
      <point x="550" y="68" type="line"/>
      <point x="542" y="57"/>
      <point x="523" y="41" type="qcurve"/>
      <point x="504" y="25"/>
      <point x="476" y="11" type="qcurve"/>
      <point x="475" y="11"/>
      <point x="460" y="2"/>
      <point x="452" y="-1"/>
      <point x="438" y="-4"/>
      <point x="423" y="-2"/>
      <point x="415" y="2" type="qcurve"/>
      <point x="397" y="12"/>
      <point x="388" y="38" type="qcurve"/>
      <point x="384" y="52"/>
      <point x="375" y="87" type="qcurve"/>
      <point x="374" y="89"/>
      <point x="374" y="92" type="qcurve"/>
      <point x="371" y="87"/>
      <point x="369" y="83" type="qcurve"/>
      <point x="348" y="43"/>
      <point x="330" y="25" type="qcurve"/>
      <point x="311" y="6"/>
      <point x="276" y="-7" type="qcurve"/>
      <point x="238" y="-21"/>
      <point x="210" y="-14" type="qcurve"/>
      <point x="184" y="-7"/>
      <point x="155" y="24" type="qcurve"/>
      <point x="130" y="51"/>
      <point x="110" y="87" type="qcurve"/>
      <point x="92" y="122"/>
      <point x="77" y="161" type="qcurve"/>
      <point x="62" y="201"/>
      <point x="54" y="244" type="qcurve"/>
      <point x="47" y="289"/>
      <point x="53" y="323" type="qcurve"/>
      <point x="59" y="358"/>
      <point x="75" y="384" type="qcurve"/>
      <point x="92" y="409"/>
      <point x="128" y="433" type="qcurve"/>
      <point x="165" y="457"/>
      <point x="268" y="466"/>
      <point x="315" y="447" type="qcurve"/>
      <point x="334" y="440"/>
      <point x="348" y="434" type="qcurve"/>
      <point x="347" y="442"/>
      <point x="347" y="450" type="qcurve"/>
      <point x="345" y="498"/>
      <point x="346" y="544" type="qcurve"/>
      <point x="348" y="592"/>
      <point x="353" y="614" type="qcurve"/>
      <point x="353" y="614"/>
      <point x="379" y="635" type="qcurve"/>
      <point x="419" y="660"/>
      <point x="423" y="622" type="qcurve"/>
      <point x="424" y="611"/>
      <point x="423" y="591" type="qcurve"/>
      <point x="423" y="575"/>
      <point x="422" y="512"/>
      <point x="424" y="487" type="qcurve"/>
      <point x="425" y="460"/>
      <point x="425" y="420" type="qcurve"/>
      <point x="426" y="380"/>
      <point x="425" y="334" type="qcurve"/>
      <point x="424" y="298"/>
    </contour>
    <contour>
      <point x="352" y="362" type="qcurve"/>
      <point x="341" y="366" type="line"/>
      <point x="330" y="370"/>
      <point x="290" y="386" type="qcurve"/>
      <point x="258" y="399"/>
      <point x="188" y="392"/>
      <point x="164" y="377" type="qcurve"/>
      <point x="140" y="361"/>
      <point x="131" y="348" type="qcurve"/>
      <point x="122" y="334"/>
      <point x="118" y="311" type="qcurve"/>
      <point x="114" y="289"/>
      <point x="119" y="255" type="qcurve"/>
      <point x="126" y="218"/>
      <point x="139" y="184" type="qcurve"/>
      <point x="152" y="149"/>
      <point x="169" y="118" type="qcurve"/>
      <point x="184" y="90"/>
      <point x="203" y="69" type="qcurve"/>
      <point x="219" y="52"/>
      <point x="227" y="50" type="qcurve"/>
      <point x="234" y="48"/>
      <point x="253" y="55" type="qcurve"/>
      <point x="274" y="63"/>
      <point x="283" y="72" type="qcurve"/>
      <point x="294" y="83"/>
      <point x="310" y="114" type="qcurve"/>
      <point x="327" y="146"/>
      <point x="338" y="186" type="qcurve"/>
      <point x="340" y="191"/>
      <point x="341" y="197" type="qcurve"/>
      <point x="350" y="231"/>
      <point x="354" y="259" type="qcurve"/>
      <point x="354" y="265"/>
      <point x="355" y="270" type="qcurve"/>
      <point x="355" y="280"/>
      <point x="355" y="289" type="qcurve"/>
      <point x="355" y="319"/>
      <point x="352" y="360" type="qcurve"/>
      <point x="352" y="361"/>
    </contour>
  </outline>
</glyph>
<glyph name="e" format="1">
  <advance width="502"/>
  <unicode hex="0065"/>
  <outline>
    <contour>
      <point x="117" y="274" type="qcurve"/>
      <point x="126" y="274"/>
      <point x="141" y="275" type="qcurve"/>
      <point x="167" y="276"/>
      <point x="217" y="283" type="qcurve"/>
      <point x="265" y="290"/>
      <point x="288" y="299" type="qcurve"/>
      <point x="309" y="307"/>
      <point x="319" y="317" type="qcurve"/>
      <point x="331" y="328"/>
      <point x="337" y="339" type="qcurve"/>
      <point x="341" y="344"/>
      <point x="340" y="350" type="qcurve"/>
      <point x="339" y="362"/>
      <point x="334" y="373" type="qcurve"/>
      <point x="329" y="383"/>
      <point x="312" y="400" type="qcurve"/>
      <point x="297" y="414"/>
      <point x="279" y="417" type="qcurve"/>
      <point x="260" y="420"/>
      <point x="225" y="408" type="qcurve"/>
      <point x="188" y="395"/>
      <point x="171" y="378" type="qcurve"/>
      <point x="151" y="360"/>
      <point x="139" y="339" type="qcurve"/>
      <point x="126" y="318"/>
      <point x="120" y="293" type="qcurve"/>
      <point x="118" y="284"/>
    </contour>
    <contour>
      <point x="123" y="208" type="qcurve"/>
      <point x="125" y="202"/>
      <point x="128" y="194" type="qcurve"/>
      <point x="137" y="168"/>
      <point x="160" y="136" type="qcurve"/>
      <point x="185" y="102"/>
      <point x="206" y="81" type="qcurve"/>
      <point x="225" y="62"/>
      <point x="239" y="55" type="qcurve"/>
      <point x="249" y="50"/>
      <point x="263" y="50" type="qcurve"/>
      <point x="279" y="50"/>
      <point x="294" y="55" type="qcurve"/>
      <point x="310" y="61"/>
      <point x="329" y="73"/>
      <point x="344" y="88" type="qcurve"/>
      <point x="359" y="103"/>
      <point x="368" y="117" type="qcurve"/>
      <point x="379" y="133"/>
      <point x="384" y="142" type="qcurve"/>
      <point x="391" y="153" type="line"/>
      <point x="397" y="165"/>
      <point x="424" y="172"/>
      <point x="447" y="158"/>
      <point x="454" y="132"/>
      <point x="448" y="120" type="qcurve"/>
      <point x="441" y="109" type="line"/>
      <point x="434" y="98"/>
      <point x="423" y="80" type="qcurve"/>
      <point x="410" y="61"/>
      <point x="391" y="42" type="qcurve"/>
      <point x="371" y="21"/>
      <point x="339" y="1"/>
      <point x="315" y="-7" type="qcurve"/>
      <point x="290" y="-16"/>
      <point x="263" y="-16" type="qcurve"/>
      <point x="233" y="-17"/>
      <point x="208" y="-3" type="qcurve"/>
      <point x="186" y="8"/>
      <point x="159" y="35" type="qcurve"/>
      <point x="134" y="59"/>
      <point x="107" y="97" type="qcurve"/>
      <point x="78" y="137"/>
      <point x="53" y="207"/>
      <point x="51" y="239" type="qcurve"/>
      <point x="48" y="273"/>
      <point x="64" y="343"/>
      <point x="82" y="373" type="qcurve"/>
      <point x="99" y="402"/>
      <point x="126" y="426" type="qcurve"/>
      <point x="153" y="452"/>
      <point x="203" y="470" type="qcurve"/>
      <point x="255" y="488"/>
      <point x="291" y="482" type="qcurve"/>
      <point x="328" y="475"/>
      <point x="357" y="448" type="qcurve"/>
      <point x="384" y="423"/>
      <point x="394" y="401" type="qcurve"/>
      <point x="403" y="380"/>
      <point x="406" y="358" type="qcurve"/>
      <point x="409" y="329"/>
      <point x="394" y="305" type="qcurve"/>
      <point x="382" y="286"/>
      <point x="364" y="269" type="qcurve"/>
      <point x="345" y="251"/>
      <point x="312" y="238" type="qcurve"/>
      <point x="282" y="226"/>
      <point x="226" y="218" type="qcurve"/>
      <point x="173" y="210"/>
      <point x="144" y="209" type="qcurve"/>
      <point x="132" y="209"/>
    </contour>
  </outline>
</glyph>
<glyph name="f" format="1">
  <advance width="503"/>
  <unicode hex="0066"/>
  <outline>
    <contour>
      <point x="67" y="425" type="qcurve"/>
      <point x="90" y="437" type="line"/>
      <point x="115" y="451"/>
      <point x="163" y="464" type="qcurve"/>
      <point x="176" y="468"/>
      <point x="188" y="471" type="qcurve"/>
      <point x="189" y="496"/>
      <point x="192" y="513" type="qcurve"/>
      <point x="197" y="540"/>
      <point x="212" y="574" type="qcurve"/>
      <point x="227" y="611"/>
      <point x="251" y="632" type="qcurve"/>
      <point x="273" y="653"/>
      <point x="301" y="664" type="qcurve"/>
      <point x="329" y="674"/>
      <point x="358" y="674" type="qcurve"/>
      <point x="389" y="674"/>
      <point x="415" y="662" type="qcurve"/>
      <point x="435" y="653" type="line"/>
      <point x="447" y="647"/>
      <point x="457" y="621"/>
      <point x="446" y="597"/>
      <point x="420" y="587"/>
      <point x="407" y="593" type="qcurve"/>
      <point x="388" y="602" type="line"/>
      <point x="374" y="608"/>
      <point x="357" y="608" type="qcurve"/>
      <point x="340" y="608"/>
      <point x="309" y="596"/>
      <point x="295" y="584" type="qcurve"/>
      <point x="282" y="572"/>
      <point x="272" y="548" type="qcurve"/>
      <point x="261" y="521"/>
      <point x="257" y="501" type="qcurve"/>
      <point x="256" y="494"/>
      <point x="255" y="484" type="qcurve"/>
      <point x="275" y="487"/>
      <point x="286" y="486" type="qcurve"/>
      <point x="295" y="486"/>
      <point x="321" y="487" type="qcurve"/>
      <point x="348" y="488"/>
      <point x="377" y="489" type="qcurve"/>
      <point x="406" y="490" type="line"/>
      <point x="419" y="490"/>
      <point x="439" y="471"/>
      <point x="440" y="444"/>
      <point x="421" y="424"/>
      <point x="408" y="424" type="qcurve"/>
      <point x="379" y="423" type="line"/>
      <point x="350" y="422"/>
      <point x="323" y="421" type="qcurve"/>
      <point x="295" y="420"/>
      <point x="284" y="420" type="qcurve"/>
      <point x="279" y="420"/>
      <point x="254" y="417" type="qcurve"/>
      <point x="255" y="381"/>
      <point x="256" y="349" type="qcurve"/>
      <point x="259" y="306"/>
      <point x="258" y="263" type="qcurve"/>
      <point x="258" y="222"/>
      <point x="259" y="202" type="qcurve"/>
      <point x="259" y="184"/>
      <point x="261" y="167" type="qcurve"/>
      <point x="263" y="148"/>
      <point x="265" y="136" type="qcurve"/>
      <point x="266" y="125"/>
      <point x="269" y="102" type="qcurve"/>
      <point x="273" y="76"/>
      <point x="274" y="63" type="qcurve"/>
      <point x="274" y="51"/>
      <point x="274" y="41" type="qcurve"/>
      <point x="274" y="24" type="line"/>
      <point x="274" y="14"/>
      <point x="272" y="3" type="qcurve"/>
      <point x="271" y="-5" type="line"/>
      <point x="269" y="-18"/>
      <point x="246" y="-34"/>
      <point x="219" y="-29"/>
      <point x="204" y="-6"/>
      <point x="206" y="7" type="qcurve"/>
      <point x="208" y="15" type="line"/>
      <point x="208" y="20"/>
      <point x="208" y="24" type="qcurve"/>
      <point x="208" y="41" type="line"/>
      <point x="208" y="50"/>
      <point x="208" y="60" type="qcurve"/>
      <point x="208" y="69"/>
      <point x="204" y="89" type="qcurve"/>
      <point x="200" y="117"/>
      <point x="199" y="129" type="qcurve"/>
      <point x="198" y="141"/>
      <point x="196" y="159" type="qcurve"/>
      <point x="193" y="179"/>
      <point x="193" y="201" type="qcurve"/>
      <point x="192" y="222"/>
      <point x="192" y="264" type="qcurve"/>
      <point x="193" y="304"/>
      <point x="191" y="345" type="qcurve"/>
      <point x="189" y="373"/>
      <point x="188" y="403" type="qcurve"/>
      <point x="185" y="402"/>
      <point x="180" y="400" type="qcurve"/>
      <point x="140" y="389"/>
      <point x="121" y="379" type="qcurve"/>
      <point x="98" y="367" type="line"/>
      <point x="86" y="361"/>
      <point x="60" y="369"/>
      <point x="47" y="393"/>
      <point x="56" y="419"/>
    </contour>
  </outline>
</glyph>
<glyph name="g" format="1">
  <advance width="565"/>
  <unicode hex="0067"/>
  <outline>
    <contour>
      <point x="361" y="17" type="qcurve"/>
      <point x="340" y="1"/>
      <point x="317" y="-18" type="qcurve"/>
      <point x="233" y="-84"/>
      <point x="210" y="-121" type="qcurve"/>
      <point x="196" y="-144"/>
      <point x="192" y="-156" type="qcurve"/>
      <point x="196" y="-161"/>
      <point x="203" y="-166" type="qcurve"/>
      <point x="219" y="-178"/>
      <point x="245" y="-180" type="qcurve"/>
      <point x="271" y="-182"/>
      <point x="299" y="-167" type="qcurve"/>
      <point x="326" y="-153"/>
      <point x="339" y="-122" type="qcurve"/>
      <point x="355" y="-85"/>
      <point x="359" y="-42" type="qcurve"/>
      <point x="362" y="-14"/>
    </contour>
    <contour>
      <point x="352" y="399" type="line"/>
      <point x="340" y="398"/>
      <point x="319" y="396" type="qcurve"/>
      <point x="274" y="392"/>
      <point x="217" y="368" type="qcurve"/>
      <point x="162" y="345"/>
      <point x="133" y="311" type="qcurve"/>
      <point x="109" y="285"/>
      <point x="119" y="245" type="qcurve"/>
      <point x="130" y="197"/>
      <point x="154" y="172" type="qcurve"/>
      <point x="174" y="150"/>
      <point x="211" y="146" type="qcurve"/>
      <point x="243" y="143"/>
      <point x="267" y="168" type="qcurve"/>
      <point x="296" y="199"/>
      <point x="313" y="253" type="qcurve"/>
      <point x="331" y="314"/>
      <point x="346" y="372"/>
      <point x="349" y="386" type="qcurve"/>
      <point x="350" y="394"/>
      <point x="352" y="397" type="qcurve"/>
      <point x="352" y="398"/>
      <point x="353" y="399" type="qcurve"/>
    </contour>
    <contour>
      <point x="365" y="402" type="line"/>
      <point x="373" y="398"/>
      <point x="396" y="376"/>
      <point x="403" y="366" type="qcurve"/>
      <point x="411" y="356" type="line"/>
      <point x="405" y="327"/>
      <point x="407" y="264" type="qcurve"/>
      <point x="409" y="200"/>
      <point x="414" y="159" type="qcurve"/>
      <point x="415" y="151"/>
      <point x="416" y="142" type="qcurve"/>
      <point x="463" y="176" type="line"/>
      <point x="474" y="184"/>
      <point x="501" y="180"/>
      <point x="517" y="158"/>
      <point x="513" y="131"/>
      <point x="502" y="123" type="qcurve"/>
      <point x="454" y="87" type="line"/>
      <point x="442" y="79"/>
      <point x="428" y="68" type="qcurve"/>
      <point x="426" y="67"/>
      <point x="424" y="65" type="qcurve"/>
      <point x="424" y="64"/>
      <point x="424" y="61" type="qcurve"/>
      <point x="430" y="2"/>
      <point x="425" y="-49" type="qcurve"/>
      <point x="420" y="-102"/>
      <point x="400" y="-148" type="qcurve"/>
      <point x="377" y="-200"/>
      <point x="330" y="-225" type="qcurve"/>
      <point x="286" y="-249"/>
      <point x="240" y="-246" type="qcurve"/>
      <point x="195" y="-242"/>
      <point x="165" y="-220" type="qcurve"/>
      <point x="130" y="-195"/>
      <point x="125" y="-167" type="qcurve"/>
      <point x="123" y="-153"/>
      <point x="132" y="-123"/>
      <point x="141" y="-107"/>
      <point x="154" y="-87" type="qcurve"/>
      <point x="183" y="-39"/>
      <point x="276" y="34" type="qcurve"/>
      <point x="320" y="69"/>
      <point x="355" y="95" type="qcurve"/>
      <point x="355" y="96"/>
      <point x="355" y="99"/>
      <point x="354" y="99" type="qcurve"/>
      <point x="352" y="127"/>
      <point x="349" y="151" type="qcurve"/>
      <point x="348" y="158"/>
      <point x="347" y="166" type="qcurve"/>
      <point x="333" y="141"/>
      <point x="315" y="123" type="qcurve"/>
      <point x="269" y="74"/>
      <point x="204" y="81" type="qcurve"/>
      <point x="143" y="87"/>
      <point x="105" y="127" type="qcurve"/>
      <point x="70" y="165"/>
      <point x="55" y="230" type="qcurve"/>
      <point x="37" y="303"/>
      <point x="83" y="355" type="qcurve"/>
      <point x="123" y="400"/>
      <point x="191" y="429" type="qcurve"/>
      <point x="257" y="456"/>
      <point x="313" y="462" type="qcurve"/>
      <point x="364" y="467"/>
      <point x="373" y="468" type="qcurve"/>
      <point x="382" y="468" type="line"/>
      <point x="395" y="470"/>
      <point x="416" y="452"/>
      <point x="418" y="439" type="qcurve"/>
      <point x="419" y="421"/>
      <point x="405" y="409" type="qcurve"/>
    </contour>
  </outline>
</glyph>
<glyph name="h" format="1">
  <advance width="501"/>
  <unicode hex="0068"/>
  <outline>
    <contour>
      <point x="127" y="676" type="qcurve"/>
      <point x="124" y="667" type="line"/>
      <point x="123" y="661"/>
      <point x="119" y="635" type="qcurve"/>
      <point x="116" y="609"/>
      <point x="116" y="560" type="qcurve"/>
      <point x="116" y="510"/>
      <point x="118" y="459" type="qcurve"/>
      <point x="120" y="408"/>
      <point x="123" y="347" type="qcurve"/>
      <point x="124" y="339"/>
      <point x="124" y="331" type="qcurve"/>
      <point x="129" y="341"/>
      <point x="134" y="350" type="qcurve"/>
      <point x="155" y="389"/>
      <point x="173" y="413" type="qcurve"/>
      <point x="193" y="438"/>
      <point x="213" y="451" type="qcurve"/>
      <point x="236" y="466"/>
      <point x="255" y="466" type="qcurve"/>
      <point x="277" y="466"/>
      <point x="303" y="443" type="qcurve"/>
      <point x="324" y="424"/>
      <point x="343" y="384" type="qcurve"/>
      <point x="362" y="345"/>
      <point x="370" y="299" type="qcurve"/>
      <point x="376" y="258"/>
      <point x="382" y="219" type="qcurve"/>
      <point x="386" y="182"/>
      <point x="400" y="115"/>
      <point x="407" y="87" type="qcurve"/>
      <point x="412" y="67"/>
      <point x="415" y="55" type="qcurve"/>
      <point x="426" y="52" type="line"/>
      <point x="439" y="49"/>
      <point x="453" y="25"/>
      <point x="447" y="-1"/>
      <point x="423" y="-15"/>
      <point x="410" y="-12" type="qcurve"/>
      <point x="394" y="-8" type="line"/>
      <point x="360" y="1"/>
      <point x="352" y="31" type="qcurve"/>
      <point x="350" y="42"/>
      <point x="343" y="71" type="qcurve"/>
      <point x="335" y="100"/>
      <point x="321" y="171"/>
      <point x="316" y="210" type="qcurve"/>
      <point x="311" y="248"/>
      <point x="305" y="289" type="qcurve"/>
      <point x="299" y="325"/>
      <point x="284" y="355" type="qcurve"/>
      <point x="270" y="384"/>
      <point x="259" y="394" type="qcurve"/>
      <point x="256" y="397"/>
      <point x="253" y="398" type="qcurve"/>
      <point x="251" y="397"/>
      <point x="249" y="396" type="qcurve"/>
      <point x="238" y="389"/>
      <point x="225" y="372" type="qcurve"/>
      <point x="210" y="353"/>
      <point x="174" y="285"/>
      <point x="159" y="239" type="qcurve"/>
      <point x="152" y="220"/>
      <point x="148" y="199" type="qcurve"/>
      <point x="142" y="172"/>
      <point x="139" y="142" type="qcurve"/>
      <point x="137" y="117"/>
      <point x="136" y="101" type="qcurve"/>
      <point x="142" y="91"/>
      <point x="142" y="80" type="qcurve"/>
      <point x="141" y="73" type="line"/>
      <point x="141" y="73"/>
      <point x="141" y="70"/>
      <point x="142" y="63"/>
      <point x="142" y="59" type="qcurve"/>
      <point x="145" y="43"/>
      <point x="145" y="32" type="qcurve"/>
      <point x="145" y="23" type="line"/>
      <point x="146" y="9"/>
      <point x="127" y="-11"/>
      <point x="100" y="-12"/>
      <point x="80" y="7"/>
      <point x="79" y="21" type="qcurve"/>
      <point x="79" y="30" type="line"/>
      <point x="79" y="37"/>
      <point x="77" y="50" type="qcurve"/>
      <point x="75" y="61"/>
      <point x="75" y="68" type="qcurve"/>
      <point x="72" y="70"/>
      <point x="70" y="78"/>
      <point x="70" y="83" type="qcurve"/>
      <point x="69" y="85"/>
      <point x="69" y="86" type="qcurve"/>
      <point x="65" y="106"/>
      <point x="63" y="134" type="qcurve"/>
      <point x="62" y="157"/>
      <point x="61" y="203" type="qcurve"/>
      <point x="61" y="213"/>
      <point x="61" y="223" type="qcurve"/>
      <point x="60" y="283"/>
      <point x="57" y="344" type="qcurve"/>
      <point x="54" y="405"/>
      <point x="52" y="457" type="qcurve"/>
      <point x="50" y="509"/>
      <point x="50" y="560" type="qcurve"/>
      <point x="50" y="613"/>
      <point x="54" y="643" type="qcurve"/>
      <point x="58" y="675"/>
      <point x="62" y="687" type="qcurve"/>
      <point x="65" y="696" type="line"/>
      <point x="69" y="709"/>
      <point x="93" y="721"/>
      <point x="119" y="713"/>
      <point x="132" y="688"/>
    </contour>
  </outline>
</glyph>
<glyph name="i" format="1">
  <advance width="330"/>
  <unicode hex="0069"/>
  <outline>
    <contour>
      <point x="107" y="656" type="qcurve"/>
      <point x="110" y="653" type="line"/>
      <point x="119" y="643"/>
      <point x="119" y="616"/>
      <point x="100" y="597"/>
      <point x="73" y="597"/>
      <point x="63" y="606" type="qcurve"/>
      <point x="60" y="609" type="line"/>
      <point x="50" y="619"/>
      <point x="50" y="646"/>
      <point x="69" y="665"/>
      <point x="97" y="665"/>
    </contour>
    <contour>
      <point x="122" y="441" type="qcurve"/>
      <point x="131" y="423" type="line"/>
      <point x="143" y="397"/>
      <point x="137" y="345" type="qcurve"/>
      <point x="132" y="300"/>
      <point x="123" y="259" type="qcurve"/>
      <point x="116" y="222"/>
      <point x="116" y="193" type="qcurve"/>
      <point x="116" y="162"/>
      <point x="118" y="142" type="qcurve"/>
      <point x="120" y="124"/>
      <point x="125" y="108" type="qcurve"/>
      <point x="128" y="98"/>
      <point x="135" y="92" type="qcurve"/>
      <point x="141" y="87"/>
      <point x="146" y="85" type="qcurve"/>
      <point x="152" y="87"/>
      <point x="161" y="93" type="qcurve"/>
      <point x="180" y="105"/>
      <point x="192" y="127" type="qcurve"/>
      <point x="207" y="156"/>
      <point x="212" y="167" type="qcurve"/>
      <point x="218" y="179" type="line"/>
      <point x="223" y="191"/>
      <point x="249" y="201"/>
      <point x="274" y="189"/>
      <point x="283" y="163"/>
      <point x="278" y="151" type="qcurve"/>
      <point x="272" y="140" type="line"/>
      <point x="267" y="127"/>
      <point x="250" y="96" type="qcurve"/>
      <point x="230" y="59"/>
      <point x="197" y="38" type="qcurve"/>
      <point x="159" y="13"/>
      <point x="132" y="20" type="qcurve"/>
      <point x="110" y="26"/>
      <point x="91" y="43" type="qcurve"/>
      <point x="71" y="61"/>
      <point x="62" y="89" type="qcurve"/>
      <point x="55" y="111"/>
      <point x="53" y="135" type="qcurve"/>
      <point x="50" y="158"/>
      <point x="50" y="193" type="qcurve"/>
      <point x="50" y="229"/>
      <point x="59" y="272" type="qcurve"/>
      <point x="67" y="311"/>
      <point x="72" y="353" type="qcurve"/>
      <point x="76" y="386"/>
      <point x="71" y="395" type="qcurve"/>
      <point x="63" y="412" type="line"/>
      <point x="57" y="424"/>
      <point x="66" y="450"/>
      <point x="90" y="462"/>
      <point x="116" y="453"/>
    </contour>
  </outline>
</glyph>
<glyph name="j" format="1">
  <advance width="370"/>
  <unicode hex="006A"/>
  <outline>
    <contour>
      <point x="239" y="639" type="qcurve"/>
      <point x="237" y="652"/>
      <point x="254" y="674"/>
      <point x="268" y="675" type="qcurve"/>
      <point x="275" y="676" type="line"/>
      <point x="292" y="678"/>
      <point x="319" y="653"/>
      <point x="320" y="638" type="qcurve"/>
      <point x="321" y="619"/>
      <point x="306" y="596" type="qcurve"/>
      <point x="297" y="582" type="line"/>
      <point x="290" y="571"/>
      <point x="263" y="566"/>
      <point x="240" y="581"/>
      <point x="235" y="608"/>
      <point x="242" y="619" type="qcurve"/>
      <point x="245" y="623" type="line"/>
      <point x="240" y="631"/>
    </contour>
    <contour>
      <point x="310" y="439" type="qcurve"/>
      <point x="311" y="430" type="line"/>
      <point x="312" y="422"/>
      <point x="314" y="391" type="qcurve"/>
      <point x="317" y="358"/>
      <point x="318" y="290" type="qcurve"/>
      <point x="318" y="223"/>
      <point x="318" y="136"/>
      <point x="317" y="93" type="qcurve"/>
      <point x="316" y="50"/>
      <point x="313" y="13" type="qcurve"/>
      <point x="310" y="-27"/>
      <point x="299" y="-63" type="qcurve"/>
      <point x="287" y="-100"/>
      <point x="275" y="-119" type="qcurve"/>
      <point x="261" y="-140"/>
      <point x="232" y="-158" type="qcurve"/>
      <point x="205" y="-176"/>
      <point x="175" y="-183" type="qcurve"/>
      <point x="142" y="-190"/>
      <point x="102" y="-175" type="qcurve"/>
      <point x="71" y="-164" type="line"/>
      <point x="59" y="-159"/>
      <point x="47" y="-134"/>
      <point x="57" y="-108"/>
      <point x="82" y="-97"/>
      <point x="95" y="-102" type="qcurve"/>
      <point x="125" y="-113" type="line"/>
      <point x="147" y="-121"/>
      <point x="161" y="-118" type="qcurve"/>
      <point x="179" y="-114"/>
      <point x="197" y="-103" type="qcurve"/>
      <point x="213" y="-92"/>
      <point x="219" y="-83" type="qcurve"/>
      <point x="227" y="-72"/>
      <point x="236" y="-43" type="qcurve"/>
      <point x="245" y="-14"/>
      <point x="248" y="18" type="qcurve"/>
      <point x="250" y="53"/>
      <point x="251" y="94" type="qcurve"/>
      <point x="252" y="136"/>
      <point x="252" y="223"/>
      <point x="252" y="289" type="qcurve"/>
      <point x="251" y="354"/>
      <point x="249" y="385" type="qcurve"/>
      <point x="246" y="416"/>
      <point x="245" y="425" type="qcurve"/>
      <point x="244" y="434" type="line"/>
      <point x="243" y="447"/>
      <point x="261" y="468"/>
      <point x="288" y="470"/>
      <point x="309" y="452"/>
    </contour>
  </outline>
</glyph>
<glyph name="k" format="1">
  <advance width="588"/>
  <unicode hex="006B"/>
  <outline>
    <contour>
      <point x="192" y="315" type="qcurve"/>
      <point x="217" y="328"/>
      <point x="239" y="351" type="qcurve"/>
      <point x="259" y="373"/>
      <point x="260" y="383" type="qcurve"/>
      <point x="260" y="384"/>
      <point x="260" y="385" type="qcurve"/>
      <point x="259" y="386"/>
      <point x="257" y="386" type="qcurve"/>
      <point x="249" y="384"/>
      <point x="236" y="373" type="qcurve"/>
      <point x="220" y="359"/>
      <point x="205" y="336" type="qcurve"/>
      <point x="199" y="326"/>
    </contour>
    <contour>
      <point x="143" y="651" type="qcurve"/>
      <point x="135" y="628" type="line"/>
      <point x="129" y="608"/>
      <point x="123" y="574" type="qcurve"/>
      <point x="118" y="538"/>
      <point x="116" y="498" type="qcurve"/>
      <point x="115" y="457"/>
      <point x="120" y="361"/>
      <point x="121" y="321" type="qcurve"/>
      <point x="134" y="348"/>
      <point x="149" y="372" type="qcurve"/>
      <point x="170" y="403"/>
      <point x="193" y="423" type="qcurve"/>
      <point x="219" y="445"/>
      <point x="244" y="450" type="qcurve"/>
      <point x="276" y="457"/>
      <point x="302" y="436" type="qcurve"/>
      <point x="312" y="427"/>
      <point x="319" y="416" type="qcurve"/>
      <point x="328" y="398"/>
      <point x="326" y="375" type="qcurve"/>
      <point x="323" y="345"/>
      <point x="287" y="306" type="qcurve"/>
      <point x="255" y="271"/>
      <point x="216" y="253" type="qcurve"/>
      <point x="198" y="245"/>
      <point x="182" y="239" type="qcurve"/>
      <point x="200" y="220"/>
      <point x="221" y="197" type="qcurve"/>
      <point x="255" y="160"/>
      <point x="283" y="121" type="qcurve"/>
      <point x="309" y="86"/>
      <point x="323" y="71" type="qcurve"/>
      <point x="333" y="61"/>
      <point x="350" y="54" type="qcurve"/>
      <point x="358" y="51"/>
      <point x="368" y="57" type="qcurve"/>
      <point x="385" y="68"/>
      <point x="397" y="88" type="qcurve"/>
      <point x="412" y="114"/>
      <point x="424" y="141" type="qcurve"/>
      <point x="436" y="169"/>
      <point x="448" y="202" type="qcurve"/>
      <point x="460" y="236"/>
      <point x="468" y="255" type="qcurve"/>
      <point x="475" y="273" type="line"/>
      <point x="480" y="285"/>
      <point x="505" y="296"/>
      <point x="530" y="286"/>
      <point x="541" y="261"/>
      <point x="536" y="248" type="qcurve"/>
      <point x="529" y="230" type="line"/>
      <point x="522" y="212"/>
      <point x="510" y="180" type="qcurve"/>
      <point x="497" y="145"/>
      <point x="484" y="115" type="qcurve"/>
      <point x="471" y="84"/>
      <point x="454" y="55" type="qcurve"/>
      <point x="434" y="20"/>
      <point x="402" y="1" type="qcurve"/>
      <point x="364" y="-22"/>
      <point x="326" y="-7" type="qcurve"/>
      <point x="296" y="5"/>
      <point x="275" y="26" type="qcurve"/>
      <point x="258" y="44"/>
      <point x="230" y="83" type="qcurve"/>
      <point x="204" y="118"/>
      <point x="172" y="153" type="qcurve"/>
      <point x="159" y="168"/>
      <point x="146" y="181" type="qcurve"/>
      <point x="142" y="159"/>
      <point x="138" y="134" type="qcurve"/>
      <point x="131" y="87"/>
      <point x="129" y="55" type="qcurve"/>
      <point x="129" y="47"/>
      <point x="97" y="31" type="qcurve"/>
      <point x="62" y="14"/>
      <point x="62" y="30" type="qcurve"/>
      <point x="62" y="35"/>
      <point x="60" y="51" type="qcurve"/>
      <point x="58" y="70"/>
      <point x="57" y="97" type="qcurve"/>
      <point x="56" y="124"/>
      <point x="56" y="161" type="qcurve"/>
      <point x="56" y="197"/>
      <point x="55" y="237" type="qcurve"/>
      <point x="55" y="277"/>
      <point x="55" y="317" type="qcurve"/>
      <point x="54" y="357"/>
      <point x="52" y="405" type="qcurve"/>
      <point x="49" y="456"/>
      <point x="50" y="500" type="qcurve"/>
      <point x="52" y="544"/>
      <point x="58" y="584" type="qcurve"/>
      <point x="64" y="624"/>
      <point x="73" y="649" type="qcurve"/>
      <point x="80" y="672" type="line"/>
      <point x="85" y="685"/>
      <point x="110" y="697"/>
      <point x="135" y="688"/>
      <point x="147" y="663"/>
    </contour>
  </outline>
</glyph>
<glyph name="l" format="1">
  <advance width="281"/>
  <unicode hex="006C"/>
  <outline>
    <contour>
      <point x="125" y="667" type="qcurve"/>
      <point x="124" y="650" type="line"/>
      <point x="122" y="634"/>
      <point x="120" y="586" type="qcurve"/>
      <point x="118" y="538"/>
      <point x="118" y="485" type="qcurve"/>
      <point x="119" y="430"/>
      <point x="119" y="374" type="qcurve"/>
      <point x="118" y="317"/>
      <point x="117" y="264" type="qcurve"/>
      <point x="115" y="215"/>
      <point x="118" y="185" type="qcurve"/>
      <point x="122" y="154"/>
      <point x="125" y="131" type="qcurve"/>
      <point x="128" y="113"/>
      <point x="132" y="105" type="qcurve"/>
      <point x="136" y="98"/>
      <point x="141" y="90" type="qcurve"/>
      <point x="150" y="93"/>
      <point x="160" y="102" type="qcurve"/>
      <point x="177" y="117" type="line"/>
      <point x="187" y="126"/>
      <point x="215" y="124"/>
      <point x="232" y="104"/>
      <point x="231" y="76"/>
      <point x="221" y="67" type="qcurve"/>
      <point x="203" y="52" type="line"/>
      <point x="179" y="31"/>
      <point x="154" y="25" type="qcurve"/>
      <point x="136" y="21"/>
      <point x="120" y="26" type="qcurve"/>
      <point x="103" y="31"/>
      <point x="92" y="45" type="qcurve"/>
      <point x="81" y="60"/>
      <point x="73" y="76" type="qcurve"/>
      <point x="65" y="93"/>
      <point x="60" y="121" type="qcurve"/>
      <point x="56" y="145"/>
      <point x="53" y="178" type="qcurve"/>
      <point x="49" y="212"/>
      <point x="51" y="267" type="qcurve"/>
      <point x="52" y="318"/>
      <point x="53" y="374" type="qcurve"/>
      <point x="53" y="430"/>
      <point x="52" y="484" type="qcurve"/>
      <point x="52" y="539"/>
      <point x="54" y="589" type="qcurve"/>
      <point x="56" y="639"/>
      <point x="58" y="657" type="qcurve"/>
      <point x="60" y="674" type="line"/>
      <point x="61" y="687"/>
      <point x="83" y="704"/>
      <point x="109" y="702"/>
      <point x="127" y="680"/>
    </contour>
  </outline>
</glyph>
<glyph name="m" format="1">
  <advance width="745"/>
  <unicode hex="006D"/>
  <outline>
    <contour>
      <point x="61" y="48" type="qcurve"/>
      <point x="56" y="75" type="line"/>
      <point x="50" y="105"/>
      <point x="50" y="152" type="qcurve"/>
      <point x="50" y="198"/>
      <point x="54" y="249" type="qcurve"/>
      <point x="58" y="302"/>
      <point x="75" y="356" type="qcurve"/>
      <point x="91" y="413"/>
      <point x="120" y="452" type="qcurve"/>
      <point x="151" y="493"/>
      <point x="193" y="509" type="qcurve"/>
      <point x="239" y="527"/>
      <point x="286" y="507" type="qcurve"/>
      <point x="330" y="487"/>
      <point x="351" y="452" type="qcurve"/>
      <point x="369" y="422"/>
      <point x="378" y="384" type="qcurve"/>
      <point x="386" y="356"/>
      <point x="390" y="321" type="qcurve"/>
      <point x="392" y="326"/>
      <point x="394" y="332" type="qcurve"/>
      <point x="409" y="368"/>
      <point x="427" y="398" type="qcurve"/>
      <point x="445" y="430"/>
      <point x="465" y="452" type="qcurve"/>
      <point x="488" y="476"/>
      <point x="517" y="489" type="qcurve"/>
      <point x="553" y="505"/>
      <point x="586" y="489" type="qcurve"/>
      <point x="612" y="476"/>
      <point x="634" y="447" type="qcurve"/>
      <point x="654" y="420"/>
      <point x="666" y="388" type="qcurve"/>
      <point x="677" y="356"/>
      <point x="683" y="306" type="qcurve"/>
      <point x="688" y="258"/>
      <point x="688" y="225" type="qcurve"/>
      <point x="688" y="193"/>
      <point x="687" y="169" type="qcurve"/>
      <point x="687" y="145"/>
      <point x="687" y="128" type="qcurve"/>
      <point x="687" y="112"/>
      <point x="687" y="97" type="qcurve"/>
      <point x="688" y="83"/>
      <point x="689" y="71" type="qcurve"/>
      <point x="691" y="57"/>
      <point x="692" y="47" type="qcurve"/>
      <point x="693" y="36"/>
      <point x="694" y="26" type="qcurve"/>
      <point x="695" y="17" type="line"/>
      <point x="696" y="3"/>
      <point x="679" y="-18"/>
      <point x="652" y="-20"/>
      <point x="631" y="-3"/>
      <point x="629" y="11" type="qcurve"/>
      <point x="629" y="20" type="line"/>
      <point x="628" y="29"/>
      <point x="627" y="38" type="qcurve"/>
      <point x="625" y="49"/>
      <point x="624" y="63" type="qcurve"/>
      <point x="622" y="79"/>
      <point x="621" y="95" type="qcurve"/>
      <point x="621" y="111"/>
      <point x="621" y="146"/>
      <point x="621" y="170" type="qcurve"/>
      <point x="622" y="194"/>
      <point x="622" y="225" type="qcurve"/>
      <point x="622" y="255"/>
      <point x="617" y="299" type="qcurve"/>
      <point x="612" y="341"/>
      <point x="604" y="365" type="qcurve"/>
      <point x="595" y="389"/>
      <point x="581" y="408" type="qcurve"/>
      <point x="569" y="424"/>
      <point x="557" y="430" type="qcurve"/>
      <point x="552" y="432"/>
      <point x="543" y="428" type="qcurve"/>
      <point x="527" y="421"/>
      <point x="514" y="407" type="qcurve"/>
      <point x="498" y="391"/>
      <point x="484" y="366" type="qcurve"/>
      <point x="469" y="339"/>
      <point x="442" y="274"/>
      <point x="432" y="238" type="qcurve"/>
      <point x="423" y="202"/>
      <point x="408" y="102"/>
      <point x="407" y="83" type="qcurve"/>
      <point x="407" y="78"/>
      <point x="373" y="67"/>
      <point x="343" y="65"/>
      <point x="341" y="71" type="qcurve"/>
      <point x="341" y="79"/>
      <point x="339" y="106" type="qcurve"/>
      <point x="337" y="135"/>
      <point x="333" y="191"/>
      <point x="332" y="224" type="qcurve"/>
      <point x="330" y="256"/>
      <point x="326" y="298" type="qcurve"/>
      <point x="322" y="337"/>
      <point x="314" y="368" type="qcurve"/>
      <point x="307" y="396"/>
      <point x="294" y="418" type="qcurve"/>
      <point x="284" y="435"/>
      <point x="259" y="446" type="qcurve"/>
      <point x="238" y="456"/>
      <point x="217" y="448" type="qcurve"/>
      <point x="192" y="438"/>
      <point x="173" y="412" type="qcurve"/>
      <point x="151" y="384"/>
      <point x="138" y="338" type="qcurve"/>
      <point x="124" y="290"/>
      <point x="120" y="244" type="qcurve"/>
      <point x="116" y="195"/>
      <point x="116" y="152" type="qcurve"/>
      <point x="116" y="111"/>
      <point x="120" y="88" type="qcurve"/>
      <point x="126" y="61" type="line"/>
      <point x="128" y="47"/>
      <point x="112" y="25"/>
      <point x="86" y="20"/>
      <point x="63" y="35"/>
    </contour>
  </outline>
</glyph>
